SplineFontDB: 3.0
FontName: SquareAntiqua-BoldOblique
FullName: Square Antiqua Bold Oblique
FamilyName: Square Antiqua
Weight: Bold
Copyright: Copyright (c) 2011, wmk69 (wmk69@o2.pl)\nwith Reserved Font Names 'SquareAntiqua' and 'Square Antiqua Bold Oblique'.\n\nThis Font Software is licensed under the SIL Open Font License, Version 1.1.\nThis license is available with a FAQ at:\nhttp://scripts.sil.org/OFL
Version: 1.000
ItalicAngle: -13
UnderlinePosition: -81
UnderlineWidth: 122
Ascent: 1638
Descent: 410
LayerCount: 2
Layer: 0 1 "Warstwa t+AUIA-a"  1
Layer: 1 1 "Plan pierwszy"  0
XUID: [1021 783 23647091 10727182]
FSType: 0
OS2Version: 3
OS2_WeightWidthSlopeOnly: 0
OS2_UseTypoMetrics: 1
CreationTime: 1260698820
ModificationTime: 1313129967
PfmFamily: 17
TTFWeight: 700
TTFWidth: 5
LineGap: 0
VLineGap: 0
Panose: 2 1 8 4 2 4 4 13 2 4
OS2TypoAscent: 1937
OS2TypoAOffset: 0
OS2TypoDescent: -491
OS2TypoDOffset: 0
OS2TypoLinegap: 0
OS2WinAscent: 1937
OS2WinAOffset: 0
OS2WinDescent: 491
OS2WinDOffset: 0
HheadAscent: 1937
HheadAOffset: 0
HheadDescent: -491
HheadDOffset: 0
OS2SubXSize: 1434
OS2SubYSize: 1331
OS2SubXOff: 0
OS2SubYOff: 287
OS2SupXSize: 1434
OS2SupYSize: 1331
OS2SupXOff: 0
OS2SupYOff: 977
OS2StrikeYSize: 102
OS2StrikeYPos: 512
OS2Vendor: '    '
OS2CodePages: 20000093.00000000
OS2UnicodeRanges: 8000002f.4000204b.00000000.00000000
Lookup: 4 0 1 "'liga' Ligatury zwyk+AUIA-e w tablicy 0"  {"Podtablica 'liga' Ligatury zwyk+AUIA-e w tablicy 0"  } ['liga' ('DFLT' <'dflt' > 'grek' <'dflt' > 'latn' <'dflt' > ) ]
Lookup: 258 0 0 "'kern' Kerning poziomy w tablicy 0"  {"Podtablica 'kern' Kerning poziomy w tablicy 0-0"  } ['kern' ('DFLT' <'dflt' > 'grek' <'dflt' > 'latn' <'dflt' > ) ]
DEI: 91125
KernClass2: 14 9 "Podtablica 'kern' Kerning poziomy w tablicy 0-0" 
 33 L Lacute Lcommaaccent Lcaron Ldot
 9 P uni1E56
 42 T Tcommaaccent Tcaron Tbar uni021A uni1E6A
 1 V
 5 Thorn
 5 longs
 14 r rcommaaccent
 13 racute rcaron

StartChar: .notdef
Encoding: 65536 -1 0
Width: 1044
Flags: W
HStem: 0 268<480 688> 1243 267<705 913>
VStem: 150 744<0 744> 499 744<766 1510>
DStem2: 150 0 418.127 0 0.224951 0.97437<335.365 1335.99> 626.127 0 894 0 0.224951 0.97437<275.049 1275.67>
LayerCount: 2
Fore
SplineSet
150 0 m 1,0,-1
 499 1510 l 1,1,-1
 1243 1510 l 1,2,-1
 894 0 l 1,3,-1
 150 0 l 1,0,-1
480 268 m 1,4,-1
 688 268 l 1,5,-1
 913 1243 l 1,6,-1
 705 1243 l 1,7,-1
 480 268 l 1,4,-1
EndSplineSet
Validated: 1
EndChar

StartChar: exclam
Encoding: 33 33 4
Width: 892
GlyphClass: 2
Flags: W
HStem: -20 406<381.507 594.493> 1490 20G<613.257 972>
LayerCount: 2
Fore
SplineSet
287 182 m 0,0,1
 334 386 334 386 535 386 c 0,2,3
 698 386 698 386 698 253 c 0,4,5
 698 221 698 221 689 183 c 0,6,7
 641 -20 641 -20 441 -20 c 0,8,9
 278 -20 278 -20 278 112 c 0,10,11
 278 142 278 142 287 182 c 0,0,1
428 500 m 1,12,-1
 617 1510 l 1,13,-1
 972 1510 l 1,14,-1
 693 500 l 1,15,-1
 428 500 l 1,12,-1
EndSplineSet
Validated: 1
EndChar

StartChar: quotedbl
Encoding: 34 34 5
Width: 1186
GlyphClass: 2
Flags: W
HStem: 843 667<519 695 996 1172>
LayerCount: 2
Fore
SplineSet
881 843 m 1,0,-1
 996 1510 l 1,1,-1
 1365 1510 l 1,2,-1
 1172 843 l 1,3,-1
 881 843 l 1,0,-1
404 843 m 1,4,-1
 519 1510 l 1,5,-1
 888 1510 l 1,6,-1
 695 843 l 1,7,-1
 404 843 l 1,4,-1
EndSplineSet
Validated: 1
EndChar

StartChar: numbersign
Encoding: 35 35 6
Width: 1633
GlyphClass: 2
Flags: W
HStem: 403 277<307 554 895 988 1329 1576> 837 277<407 654 995 1088 1429 1676>
VStem: 482 277<92 369> 790 277<1148 1425> 916 277<92 369> 1224 277<1148 1425>
DStem2: 482 92 759 92 0.224951 0.97437<62.3114 319.226 665.834 764.597 1111.21 1368.12> 916 92 1193 92 0.224951 0.97437<62.3114 319.226 665.834 764.597 1111.21 1368.12>
LayerCount: 2
Fore
SplineSet
243 403 m 1,0,-1
 307 680 l 1,1,-1
 618 680 l 1,2,-1
 654 837 l 1,3,-1
 343 837 l 1,4,-1
 407 1114 l 1,5,-1
 718 1114 l 1,6,-1
 790 1425 l 1,7,-1
 1067 1425 l 1,8,-1
 995 1114 l 1,9,-1
 1152 1114 l 1,10,-1
 1224 1425 l 1,11,-1
 1501 1425 l 1,12,-1
 1429 1114 l 1,13,-1
 1740 1114 l 1,14,-1
 1676 837 l 1,15,-1
 1365 837 l 1,16,-1
 1329 680 l 1,17,-1
 1640 680 l 1,18,-1
 1576 403 l 1,19,-1
 1265 403 l 1,20,-1
 1193 92 l 1,21,-1
 916 92 l 1,22,-1
 988 403 l 1,23,-1
 831 403 l 1,24,-1
 759 92 l 1,25,-1
 482 92 l 1,26,-1
 554 403 l 1,27,-1
 243 403 l 1,0,-1
1052 680 m 1,28,-1
 1088 837 l 1,29,-1
 931 837 l 1,30,-1
 895 680 l 1,31,-1
 1052 680 l 1,28,-1
EndSplineSet
Validated: 1
EndChar

StartChar: dollar
Encoding: 36 36 7
Width: 1538
GlyphClass: 2
Flags: W
VStem: 243 378<138 442.101> 427 374<828 1129.83> 1154 368<469.833 795> 1232 375<1102.11 1382>
DStem2: 627 -186 825 -186 0.224951 0.97437<44.5403 170.294 510.524 883.698 1226.85 1466.61 1805.64 1930.42>
LayerCount: 2
Fore
SplineSet
262 440 m 1,0,-1
 634 536 l 1,1,2
 621 478 621 478 621 432 c 0,3,4
 621 300 621 300 731 266 c 1,5,-1
 826 675 l 1,6,7
 427 709 427 709 427 947 c 0,8,9
 427 985 427 985 437 1027 c 0,10,11
 537 1446 537 1446 1020 1516 c 1,12,-1
 1061 1695 l 1,13,-1
 1259 1695 l 1,14,-1
 1221 1530 l 17,15,16
 1607 1530 1607 1530 1607 1234 c 0,17,18
 1607 1177 1607 1177 1593 1108 c 1,19,-1
 1221 1012 l 1,20,21
 1232 1064 1232 1064 1232 1104 c 0,22,23
 1232 1210 1232 1210 1155 1242 c 1,24,-1
 1091 966 l 1,25,26
 1522 925 1522 925 1522 665 c 0,27,28
 1522 623 1522 623 1511 577 c 8,29,30
 1392 79 1392 79 867 -5 c 1,31,-1
 825 -186 l 1,32,-1
 627 -186 l 1,33,-1
 665 -20 l 17,34,35
 243 -20 243 -20 243 296 c 0,36,37
 243 361 243 361 262 440 c 1,0,-1
898 988 m 1,38,-1
 957 1243 l 1,39,40
 836 1212 836 1212 804 1096 c 0,41,42
 801 1085 801 1085 801 1075 c 0,43,44
 801 1014 801 1014 898 988 c 1,38,-1
1021 663 m 1,45,-1
 930 268 l 1,46,47
 1092 314 1092 314 1150 530 c 0,48,49
 1154 545 1154 545 1154 561 c 0,50,51
 1154 644 1154 644 1021 663 c 1,45,-1
EndSplineSet
Validated: 1
EndChar

StartChar: percent
Encoding: 37 37 8
Width: 1998
GlyphClass: 2
Flags: W
HStem: -20 234<1432.63 1634.27> 0 21G<447 802.821> 481 244<1472.47 1674.34> 785 234<664.628 866.273> 1286 244<704.47 906.336> 1490 20G<1548.22 1907>
VStem: 401 252<907.14 1234.98> 447 341<0 341> 918 260<1069.67 1407> 1169 252<102.14 429.975> 1563 344<1166 1510> 1686 260<264.669 602>
DStem2: 447 0 788 0 0.595393 0.803435<203.029 1877.64>
LayerCount: 2
Fore
SplineSet
659 1153 m 0,0,1
 653 1127 653 1127 653 1106 c 0,2,3
 653 1019 653 1019 755 1019 c 0,4,5
 881 1019 881 1019 912 1153 c 0,6,7
 918 1178 918 1178 918 1200 c 0,8,9
 918 1286 918 1286 816 1286 c 0,10,11
 690 1286 690 1286 659 1153 c 0,0,1
417 1156 m 0,12,13
 503 1530 503 1530 875 1530 c 0,14,15
 1178 1530 1178 1530 1178 1284 c 0,16,17
 1178 1228 1178 1228 1162 1158 c 0,18,19
 1077 785 1077 785 705 785 c 0,20,21
 401 785 401 785 401 1031 c 0,22,23
 401 1085 401 1085 417 1156 c 0,12,13
1427 348 m 0,24,25
 1421 322 1421 322 1421 301 c 0,26,27
 1421 214 1421 214 1523 214 c 0,28,29
 1649 214 1649 214 1680 348 c 0,30,31
 1686 373 1686 373 1686 395 c 0,32,33
 1686 481 1686 481 1584 481 c 0,34,35
 1458 481 1458 481 1427 348 c 0,24,25
1185 351 m 0,36,37
 1271 725 1271 725 1643 725 c 0,38,39
 1946 725 1946 725 1946 479 c 0,40,41
 1946 423 1946 423 1930 353 c 0,42,43
 1845 -20 1845 -20 1473 -20 c 0,44,45
 1169 -20 1169 -20 1169 226 c 0,46,47
 1169 280 1169 280 1185 351 c 0,36,37
447 0 m 1,48,-1
 1563 1510 l 1,49,-1
 1907 1510 l 9,50,-1
 788 0 l 17,51,-1
 447 0 l 1,48,-1
EndSplineSet
Validated: 1
EndChar

StartChar: ampersand
Encoding: 38 38 9
Width: 1796
GlyphClass: 2
Flags: W
HStem: -20 274<637.881 971.332> 0 21G<1268.25 1696> 1244 286<916.428 1405.5>
VStem: 237 363<127 493.965> 485 359<892 1133.09>
LayerCount: 2
Fore
SplineSet
887 692 m 17,0,1
 664 692 664 692 604 406 c 0,2,3
 600 387 600 387 600 371 c 0,4,5
 600 254 600 254 821 254 c 8,6,7
 977 254 977 254 1085 338 c 1,8,-1
 887 692 l 17,0,1
1696 0 m 1,9,-1
 1280 0 l 1,10,-1
 1206 126 l 1,11,12
 957 -20 957 -20 655 -20 c 0,13,14
 237 -20 237 -20 237 274 c 0,15,16
 237 330 237 330 252 398 c 0,17,18
 314 660 314 660 518 803 c 1,19,20
 485 855 485 855 485 929 c 0,21,22
 485 975 485 975 498 1029 c 0,23,24
 609 1530 609 1530 1252 1530 c 0,25,26
 1559 1530 1559 1530 1559 1295 c 0,27,28
 1559 1247 1559 1247 1546 1188 c 1,29,-1
 1188 1092 l 17,30,31
 1194 1118 1194 1118 1194 1139 c 0,32,33
 1194 1244 1194 1244 1052 1244 c 0,34,35
 882 1244 882 1244 847 1083 c 0,36,37
 844 1069 844 1069 844 1058 c 0,38,39
 844 972 844 972 1002 972 c 2,40,-1
 1127 972 l 1,41,-1
 1319 634 l 1,42,43
 1364 746 1364 746 1406 928 c 9,44,-1
 1770 989 l 17,45,46
 1669 552 1669 552 1496 344 c 1,47,-1
 1696 0 l 1,9,-1
EndSplineSet
Validated: 1
EndChar

StartChar: quotesingle
Encoding: 39 39 10
Width: 709
GlyphClass: 2
Flags: W
HStem: 843 667<519 695>
VStem: 404 484
LayerCount: 2
Fore
SplineSet
404 843 m 1,0,-1
 519 1510 l 1,1,-1
 888 1510 l 1,2,-1
 695 843 l 1,3,-1
 404 843 l 1,0,-1
EndSplineSet
Validated: 1
EndChar

StartChar: parenleft
Encoding: 40 40 11
Width: 1057
GlyphClass: 2
Flags: W
VStem: 388 339<124.209 743.676>
LayerCount: 2
Fore
SplineSet
1063 1797 m 1,0,-1
 1372 1797 l 1,1,2
 1159 1586 1159 1586 988 1307 c 0,3,4
 848 1078 848 1078 778 771 c 0,5,6
 727 547 727 547 727 371 c 0,7,8
 727 293 727 293 737 223 c 0,9,10
 776 -49 776 -49 895 -267 c 1,11,-1
 586 -267 l 1,12,13
 496 -120 496 -120 423 160 c 0,14,15
 388 294 388 294 388 441 c 0,16,17
 389 598 389 598 427 765 c 0,18,19
 498 1075 498 1075 702 1369 c 0,20,21
 881 1627 881 1627 1063 1797 c 1,0,-1
EndSplineSet
Validated: 1
EndChar

StartChar: parenright
Encoding: 41 41 12
Width: 1057
GlyphClass: 2
Flags: W
VStem: 684 336<790.104 1415.65>
LayerCount: 2
Fore
SplineSet
824 1797 m 1,0,1
 930 1617 930 1617 987 1368 c 0,2,3
 1020 1223 1020 1223 1020 1076 c 0,4,5
 1020 922 1020 922 984 765 c 0,6,7
 908 434 908 434 709 158 c 0,8,9
 513 -122 513 -122 347 -267 c 1,10,-1
 38 -267 l 1,11,12
 251 -56 251 -56 422 223 c 0,13,14
 560 450 560 450 635 771 c 0,15,16
 684 982 684 982 684 1154 c 0,17,18
 684 1235 684 1235 673 1307 c 0,19,20
 631 1585 631 1585 515 1797 c 1,21,-1
 824 1797 l 1,0,1
EndSplineSet
Validated: 1
EndChar

StartChar: asterisk
Encoding: 42 42 13
Width: 1333
GlyphClass: 2
Flags: W
HStem: 1490 20G<872.379 1154>
VStem: 638 277<477 754> 877 277<1233 1510>
DStem2: 347 855 430 615 0.891066 0.453873<0 270.487 833.626 1103.22> 605 1372 411 1132 0.832215 -0.554453<0 221.234 682.281 904.07> 638 477 915 477 0.224951 0.97437<62.3114 284.297 838.302 1060.29>
LayerCount: 2
Fore
SplineSet
877 1510 m 1,0,-1
 1154 1510 l 1,1,-1
 1090 1233 l 1,2,-1
 1362 1372 l 1,3,-1
 1444 1132 l 1,4,-1
 1173 994 l 1,5,-1
 1380 855 l 1,6,-1
 1187 615 l 1,7,-1
 979 754 l 1,8,-1
 915 477 l 1,9,-1
 638 477 l 1,10,-1
 702 754 l 1,11,-1
 430 615 l 1,12,-1
 347 855 l 1,13,-1
 619 994 l 1,14,-1
 411 1132 l 1,15,-1
 605 1372 l 1,16,-1
 813 1233 l 1,17,-1
 877 1510 l 1,0,-1
EndSplineSet
Validated: 1
EndChar

StartChar: plus
Encoding: 43 43 14
Width: 1333
GlyphClass: 2
Flags: W
HStem: 621 277<357 671 1012 1326>
VStem: 584 277<243 520> 823 277<999 1276>
DStem2: 584 243 861 243 0.224951 0.97437<62.3114 387.883 734.491 1060.29>
LayerCount: 2
Fore
SplineSet
293 621 m 1,0,-1
 357 898 l 1,1,-1
 735 898 l 1,2,-1
 823 1276 l 1,3,-1
 1100 1276 l 1,4,-1
 1012 898 l 1,5,-1
 1390 898 l 1,6,-1
 1326 621 l 1,7,-1
 948 621 l 1,8,-1
 861 243 l 1,9,-1
 584 243 l 1,10,-1
 671 621 l 1,11,-1
 293 621 l 1,0,-1
EndSplineSet
Validated: 1
EndChar

StartChar: comma
Encoding: 44 44 15
Width: 790
GlyphClass: 2
Flags: W
HStem: -410 21G<223.291 413>
VStem: 309 349<-69.0396 237.972>
LayerCount: 2
Fore
SplineSet
515 437 m 1,0,1
 658 319 658 319 658 139 c 0,2,3
 658 80 658 80 643 14 c 0,4,5
 588 -226 588 -226 238 -410 c 1,6,-1
 99 -221 l 1,7,8
 273 -144 273 -144 304 1 c 0,9,10
 309 24 309 24 309 45 c 0,11,12
 309 142 309 142 201 213 c 1,13,-1
 515 437 l 1,0,1
EndSplineSet
Validated: 1
EndChar

StartChar: hyphen
Encoding: 45 45 16
Width: 1333
GlyphClass: 2
Flags: W
HStem: 621 277<357 1326>
LayerCount: 2
Fore
SplineSet
1326 621 m 1,0,-1
 293 621 l 1,1,-1
 357 898 l 1,2,-1
 1390 898 l 1,3,-1
 1326 621 l 1,0,-1
EndSplineSet
Validated: 1
EndChar

StartChar: period
Encoding: 46 46 17
Width: 702
GlyphClass: 2
Flags: W
HStem: -20 406<286.507 499.493>
VStem: 183 420<94.1875 272.969>
LayerCount: 2
Fore
SplineSet
192 182 m 0,0,1
 239 386 239 386 440 386 c 0,2,3
 603 386 603 386 603 253 c 0,4,5
 603 221 603 221 594 183 c 0,6,7
 546 -20 546 -20 346 -20 c 0,8,9
 183 -20 183 -20 183 114 c 0,10,11
 183 144 183 144 192 182 c 0,0,1
EndSplineSet
Validated: 1
EndChar

StartChar: slash
Encoding: 47 47 18
Width: 1263
GlyphClass: 2
Flags: W
DStem2: 34 -68 285 -200 0.588416 0.808559<40.9626 2193.22>
LayerCount: 2
Fore
SplineSet
1325 1705 m 1,0,-1
 1576 1574 l 1,1,-1
 285 -200 l 1,2,-1
 34 -68 l 1,3,-1
 1325 1705 l 1,0,-1
EndSplineSet
Validated: 1
EndChar

StartChar: zero
Encoding: 48 48 19
Width: 1538
GlyphClass: 2
Flags: W
HStem: -20 274<640.156 980.129> 1256 274<906.371 1246.36>
VStem: 236 365<126.5 519.742> 1286 364<990.258 1383>
DStem2: 155.266 -20 505.341 -20 0.224951 0.97437<487.642 1237.65> 1023.32 -20 1372.94 -20 0.224951 0.97437<431.982 1181.99>
LayerCount: 2
Fore
SplineSet
606 416 m 2,0,1
 601 395 601 395 601 377 c 0,2,3
 603 254 603 254 821 254 c 0,4,5
 1087 254 1087 254 1169 611 c 2,6,-1
 1281 1094 l 2,7,8
 1286 1115 1286 1115 1286 1133 c 0,9,10
 1284 1256 1284 1256 1066 1256 c 0,11,12
 800 1256 800 1256 718 899 c 2,13,-1
 606 416 l 2,0,1
252 399 m 2,14,-1
 369 906 l 2,15,16
 513 1530 513 1530 1231 1530 c 0,17,18
 1650 1530 1650 1530 1650 1236 c 0,19,20
 1650 1180 1650 1180 1634 1111 c 2,21,-1
 1517 604 l 2,22,23
 1373 -20 1373 -20 655 -20 c 0,24,25
 237 -20 237 -20 236 273 c 0,26,27
 236 329 236 329 252 399 c 2,14,-1
EndSplineSet
Validated: 1
EndChar

StartChar: one
Encoding: 49 49 20
Width: 855
GlyphClass: 2
Flags: W
HStem: 0 21G<255 609.612> 1233 277<369 540>
VStem: 255 350<0 350>
DStem2: 255 0 605 0 0.224951 0.97437<78.7329 1265.51>
LayerCount: 2
Fore
SplineSet
255 0 m 1,0,-1
 540 1233 l 17,1,-1
 305 1233 l 1,2,-1
 369 1510 l 1,3,-1
 904 1510 l 1,4,5
 913 1474 913 1474 913 1424 c 0,6,7
 913 1336 913 1336 884 1210 c 2,8,-1
 605 0 l 1,9,-1
 255 0 l 1,0,-1
EndSplineSet
Validated: 1
EndChar

StartChar: two
Encoding: 50 50 21
Width: 1428
GlyphClass: 2
Flags: W
HStem: 0 857<736.536 1096> 0 277<553 1251.66> 1253 277<640.215 1160.82>
VStem: 1183 363<1041.51 1391.5>
LayerCount: 2
Fore
SplineSet
130 0 m 1,0,1
 321 818 321 818 829 857 c 0,2,3
 1096 877 1096 877 1166 1076 c 0,4,5
 1183 1124 1183 1124 1183 1157 c 0,6,7
 1183 1253 1183 1253 977 1253 c 2,8,-1
 871 1253 l 2,9,10
 688 1253 688 1253 555 1183 c 1,11,-1
 624 1480 l 1,12,13
 752 1530 752 1530 935 1530 c 2,14,-1
 1123 1530 l 2,15,16
 1546 1530 1546 1530 1546 1253 c 0,17,18
 1546 1202 1546 1202 1533 1144 c 0,19,20
 1425 659 1425 659 823 579 c 0,21,22
 649 556 649 556 553 277 c 1,23,-1
 1020 277 l 2,24,25
 1208 277 1208 277 1336 347 c 1,26,-1
 1268 50 l 1,27,28
 1139 0 1139 0 956 0 c 2,29,-1
 130 0 l 1,0,1
EndSplineSet
Validated: 1
EndChar

StartChar: three
Encoding: 51 51 22
Width: 1507
GlyphClass: 2
Flags: W
HStem: -20 274<415 966.701> 690 277<625 1002.5> 1253 277<695.215 1171.38>
VStem: 206 379<126.5 435> 1128 364<465.912 740> 1180 357<1108.24 1409>
LayerCount: 2
Fore
SplineSet
222 400 m 9,0,1
 595 496 l 17,2,3
 585 453 585 453 585 417 c 0,4,5
 585 254 585 254 790 254 c 0,6,7
 1065 254 1065 254 1125 553 c 0,8,9
 1128 568 1128 568 1128 581 c 0,10,11
 1128 690 1128 690 904 690 c 2,12,-1
 561 690 l 1,13,-1
 625 967 l 1,14,15
 1139 967 1139 967 1178 1164 c 0,16,17
 1180 1174 1180 1174 1180 1182 c 0,18,19
 1180 1253 1180 1253 1032 1253 c 2,20,-1
 926 1253 l 2,21,22
 743 1253 743 1253 610 1183 c 1,23,-1
 679 1480 l 1,24,25
 807 1530 807 1530 990 1530 c 2,26,-1
 1121 1530 l 2,27,28
 1537 1530 1537 1530 1537 1288 c 0,29,30
 1537 1250 1537 1250 1527 1207 c 8,31,32
 1485 1027 1485 1027 1321 891 c 1,33,34
 1492 817 1492 817 1492 663 c 0,35,36
 1492 621 1492 621 1482 580 c 8,37,38
 1349 -20 1349 -20 624 -20 c 0,39,40
 206 -20 206 -20 206 273 c 0,41,42
 206 331 206 331 222 400 c 9,0,1
EndSplineSet
Validated: 1
EndChar

StartChar: four
Encoding: 52 52 23
Width: 1471
GlyphClass: 2
Flags: W
HStem: 0 21G<921 1275.62> 368 277<699 1006> 1490 20G<544.377 899>
VStem: 549 350<1160 1510> 921 350<0 350> 1218 350<935 1285>
DStem2: 200.04 0 550.09 0 0.224951 0.97437<740.71 1549.8> 921 0 1271 0 0.224951 0.97437<78.7329 377.689 661.986 1318.88>
LayerCount: 2
Fore
SplineSet
921 0 m 1,0,-1
 1006 368 l 1,1,-1
 285 368 l 1,2,-1
 549 1510 l 1,3,-1
 899 1510 l 1,4,-1
 699 645 l 1,5,-1
 1070 645 l 1,6,-1
 1218 1285 l 1,7,-1
 1568 1285 l 1,8,-1
 1271 0 l 1,9,-1
 921 0 l 1,0,-1
EndSplineSet
Validated: 1
EndChar

StartChar: five
Encoding: 53 53 24
Width: 1507
GlyphClass: 2
Flags: W
HStem: -20 274<415 965.336> 690 277<863 1099.07> 1232 278<946 1523>
VStem: 206 379<129 435> 1128 370<488.117 838.5>
LayerCount: 2
Fore
SplineSet
222 400 m 9,0,1
 595 496 l 17,2,3
 585 453 585 453 585 417 c 0,4,5
 585 255 585 255 790 254 c 0,6,7
 1065 254 1065 254 1125 553 c 0,8,9
 1128 568 1128 568 1128 581 c 0,10,11
 1128 690 1128 690 904 690 c 2,12,-1
 453 690 l 1,13,-1
 701 1510 l 1,14,-1
 1588 1510 l 1,15,-1
 1523 1232 l 1,16,-1
 946 1232 l 1,17,-1
 863 967 l 1,18,-1
 1170 967 l 2,19,20
 1498 967 1498 967 1498 710 c 0,21,22
 1498 653 1498 653 1482 584 c 8,23,24
 1342 -20 1342 -20 624 -20 c 0,25,26
 206 -19 206 -19 206 277 c 0,27,28
 206 334 206 334 222 400 c 9,0,1
EndSplineSet
Validated: 1
EndChar

StartChar: six
Encoding: 54 54 25
Width: 1538
GlyphClass: 2
Flags: W
HStem: -20 274<444.264 996.051> 690 274<774.495 1128.64> 1256 274<906.597 1436.5>
VStem: 236 373<127 518.984> 1159 369<488.953 828> 1271 371<1074.5 1381>
LayerCount: 2
Fore
SplineSet
1628 1113 m 9,0,-1
 1262 1015 l 17,1,2
 1271 1057 1271 1057 1271 1092 c 0,3,4
 1271 1256 1271 1256 1066 1256 c 0,5,6
 801 1256 801 1256 718 902 c 1,7,8
 894 964 894 964 1072 964 c 0,9,10
 1528 964 1528 964 1528 692 c 0,11,12
 1528 648 1528 648 1516 597 c 8,13,14
 1371 -20 1371 -20 655 -20 c 0,15,16
 236 -20 236 -20 236 274 c 0,17,18
 236 330 236 330 252 399 c 2,19,-1
 369 906 l 2,20,21
 513 1530 513 1530 1231 1530 c 0,22,23
 1642 1530 1642 1530 1642 1232 c 0,24,25
 1642 1178 1642 1178 1628 1113 c 9,0,-1
616 460 m 0,26,27
 609 428 609 428 609 400 c 0,28,29
 609 254 609 254 821 254 c 0,30,31
 1096 254 1096 254 1156 553 c 16,32,33
 1159 568 1159 568 1159 581 c 0,34,35
 1159 690 1159 690 935 690 c 0,36,37
 666 690 666 690 616 460 c 0,26,27
EndSplineSet
Validated: 1
EndChar

StartChar: seven
Encoding: 55 55 26
Width: 1134
GlyphClass: 2
Flags: W
HStem: 0 21G<76 490.972> 1233 277<403.336 1008>
VStem: 76 400<0 400>
DStem2: 76 0 476 0 0.602998 0.797743<241.199 1545.61>
LayerCount: 2
Fore
SplineSet
76 0 m 1,0,-1
 1008 1233 l 1,1,-1
 635 1233 l 2,2,3
 451 1233 451 1233 318 1163 c 1,4,-1
 387 1460 l 1,5,6
 516 1510 516 1510 699 1510 c 2,7,-1
 1463 1510 l 1,8,-1
 1399 1233 l 1,9,-1
 476 0 l 1,10,-1
 76 0 l 1,0,-1
EndSplineSet
Validated: 1
EndChar

StartChar: eight
Encoding: 56 56 27
Width: 1538
GlyphClass: 2
Flags: W
HStem: -20 273<640.973 1000.08> 690 283<857.103 1116.7> 1244 286<916.236 1408.5>
VStem: 237 364<127.5 498.45> 486 359<893.5 1137.53> 1155 371<476.004 767> 1202 363<1085.38 1411.5>
LayerCount: 2
Fore
SplineSet
926 690 m 0,0,1
 664 690 664 690 605 412 c 0,2,3
 601 393 601 393 601 375 c 0,4,5
 601 253 601 253 825 253 c 0,6,7
 1092 253 1092 253 1151 532 c 16,8,9
 1155 551 1155 551 1155 568 c 0,10,11
 1155 689 1155 689 926 690 c 0,0,1
998 973 m 0,12,13
 1168 973 1168 973 1199 1130 c 16,14,15
 1202 1145 1202 1145 1202 1158 c 0,16,17
 1202 1244 1202 1244 1052 1244 c 0,18,19
 890 1244 890 1244 849 1089 c 0,20,21
 845 1074 845 1074 845 1058 c 0,22,23
 845 973 845 973 998 973 c 0,12,13
253 404 m 0,24,25
 314 665 314 665 518 803 c 1,26,27
 486 856 486 856 486 931 c 0,28,29
 486 978 486 978 499 1035 c 8,30,31
 612 1530 612 1530 1252 1530 c 0,32,33
 1565 1530 1565 1530 1565 1293 c 0,34,35
 1565 1245 1565 1245 1552 1188 c 0,36,37
 1511 1007 1511 1007 1389 888 c 1,38,39
 1526 843 1526 843 1526 691 c 0,40,41
 1526 644 1526 644 1513 586 c 0,42,43
 1377 -20 1377 -20 657 -20 c 0,44,45
 237 -20 237 -20 237 275 c 0,46,47
 237 333 237 333 253 404 c 0,24,25
EndSplineSet
Validated: 1
EndChar

StartChar: nine
Encoding: 57 57 28
Width: 1538
GlyphClass: 2
Flags: W
HStem: -20 274<450.5 980.403> 546 274<758.355 1112.51> 1256 274<890.949 1442.74>
VStem: 245 371<129 435.5> 359 369<682 1021.05> 1278 373<991.016 1383>
LayerCount: 2
Fore
SplineSet
259 397 m 9,0,-1
 625 495 l 17,1,2
 616 453 616 453 616 418 c 0,3,4
 616 254 616 254 821 254 c 0,5,6
 1086 254 1086 254 1169 608 c 1,7,8
 993 546 993 546 815 546 c 0,9,10
 359 546 359 546 359 818 c 0,11,12
 359 862 359 862 371 913 c 8,13,14
 516 1530 516 1530 1232 1530 c 0,15,16
 1651 1530 1651 1530 1651 1236 c 0,17,18
 1651 1180 1651 1180 1635 1111 c 2,19,-1
 1518 604 l 2,20,21
 1374 -20 1374 -20 656 -20 c 0,22,23
 245 -20 245 -20 245 278 c 0,24,25
 245 332 245 332 259 397 c 9,0,-1
1271 1050 m 0,26,27
 1278 1082 1278 1082 1278 1110 c 0,28,29
 1278 1256 1278 1256 1066 1256 c 0,30,31
 791 1256 791 1256 731 957 c 16,32,33
 728 942 728 942 728 929 c 0,34,35
 728 820 728 820 952 820 c 0,36,37
 1221 820 1221 820 1271 1050 c 0,26,27
EndSplineSet
Validated: 1
EndChar

StartChar: colon
Encoding: 58 58 29
Width: 702
GlyphClass: 2
Flags: W
HStem: -20 406<286.507 499.493> 558 406<421.507 634.493>
VStem: 183 555
LayerCount: 2
Fore
SplineSet
327 760 m 0,0,1
 374 964 374 964 575 964 c 0,2,3
 738 964 738 964 738 831 c 0,4,5
 738 799 738 799 729 761 c 0,6,7
 681 558 681 558 481 558 c 0,8,9
 318 558 318 558 318 692 c 0,10,11
 318 722 318 722 327 760 c 0,0,1
192 182 m 0,12,13
 239 386 239 386 440 386 c 0,14,15
 603 386 603 386 603 253 c 0,16,17
 603 221 603 221 594 183 c 0,18,19
 546 -20 546 -20 346 -20 c 0,20,21
 183 -20 183 -20 183 114 c 0,22,23
 183 144 183 144 192 182 c 0,12,13
EndSplineSet
Validated: 1
EndChar

StartChar: semicolon
Encoding: 59 59 30
Width: 790
GlyphClass: 2
Flags: W
HStem: -410 21G<223.291 413> 558 406<470.507 683.493>
VStem: 309 349<-69.0396 237.972>
LayerCount: 2
Fore
SplineSet
515 437 m 1,0,1
 658 319 658 319 658 139 c 0,2,3
 658 80 658 80 643 14 c 0,4,5
 588 -226 588 -226 238 -410 c 1,6,-1
 99 -221 l 1,7,8
 273 -144 273 -144 304 1 c 0,9,10
 309 24 309 24 309 45 c 0,11,12
 309 142 309 142 201 213 c 1,13,-1
 515 437 l 1,0,1
376 760 m 0,14,15
 423 964 423 964 624 964 c 0,16,17
 787 964 787 964 787 831 c 0,18,19
 787 799 787 799 778 761 c 0,20,21
 730 558 730 558 530 558 c 0,22,23
 367 558 367 558 367 692 c 0,24,25
 367 722 367 722 376 760 c 0,14,15
EndSplineSet
Validated: 1
EndChar

StartChar: less
Encoding: 60 60 31
Width: 1356
GlyphClass: 2
Flags: W
DStem2: 725 798 295 630 0.828075 -0.560617<0 642.919> 355 889 725 798 0.889071 0.45777<287.299 1066.77>
LayerCount: 2
Fore
SplineSet
1497 1477 m 1,0,-1
 1421 1149 l 1,1,-1
 725 798 l 1,2,-1
 1257 437 l 1,3,-1
 1165 41 l 1,4,-1
 295 630 l 1,5,-1
 355 889 l 1,6,-1
 1497 1477 l 1,0,-1
EndSplineSet
Validated: 1
EndChar

StartChar: equal
Encoding: 61 61 32
Width: 1333
GlyphClass: 2
Flags: W
HStem: 394 277<305 1274> 848 277<410 1379>
LayerCount: 2
Fore
SplineSet
241 394 m 1,0,-1
 305 671 l 1,1,-1
 1338 671 l 1,2,-1
 1274 394 l 1,3,-1
 241 394 l 1,0,-1
346 848 m 1,4,-1
 410 1125 l 1,5,-1
 1443 1125 l 1,6,-1
 1379 848 l 1,7,-1
 346 848 l 1,4,-1
EndSplineSet
Validated: 1
EndChar

StartChar: greater
Encoding: 62 62 33
Width: 1356
GlyphClass: 2
Flags: W
DStem2: 285 370 210 43 0.889224 0.457471<0 779.473> 541 1478 450 1082 0.828075 -0.560617<146.649 788.74>
LayerCount: 2
Fore
SplineSet
541 1478 m 1,0,-1
 1411 889 l 1,1,-1
 1351 630 l 1,2,-1
 210 43 l 1,3,-1
 285 370 l 1,4,-1
 981 721 l 1,5,-1
 450 1082 l 1,6,-1
 541 1478 l 1,0,-1
EndSplineSet
Validated: 1
EndChar

StartChar: question
Encoding: 63 63 34
Width: 1538
GlyphClass: 2
Flags: W
HStem: -20 406<654.507 867.493> 619 247<1045.48 1175.86> 1256 274<906.84 1246.34>
VStem: 1286 363<1010.05 1238>
LayerCount: 2
Fore
SplineSet
560 182 m 0,0,1
 607 386 607 386 808 386 c 0,2,3
 971 386 971 386 971 253 c 0,4,5
 971 221 971 221 962 183 c 0,6,7
 914 -20 914 -20 714 -20 c 0,8,9
 551 -20 551 -20 551 114 c 0,10,11
 551 144 551 144 560 182 c 0,0,1
355 846 m 17,12,13
 515 1530 515 1530 1231 1530 c 0,14,15
 1649 1530 1649 1530 1649 1238 c 0,16,17
 1649 1172 1649 1172 1635 1112 c 8,18,19
 1519 619 1519 619 1141 619 c 0,20,21
 1037 619 1037 619 1007 490 c 9,22,-1
 643 427 l 17,23,24
 746 866 746 866 1055 866 c 0,25,26
 1226 866 1226 866 1281 1095 c 16,27,28
 1286 1116 1286 1116 1286 1134 c 0,29,30
 1284 1256 1284 1256 1066 1256 c 0,31,32
 800 1256 800 1256 727 942 c 9,33,-1
 355 846 l 17,12,13
EndSplineSet
Validated: 1
EndChar

StartChar: at
Encoding: 64 64 35
Width: 1616
GlyphClass: 2
Flags: W
HStem: -430 273<565.159 916.699> -20 295<709 1015.5> 0 21G<1113.5 1486> 863 257<923.274 1450>
VStem: 162 364<-282.5 113.312> 622 335<81.875 326.427> 1240 369<699.974 1003.5>
DStem2: 80.2662 -430 430.572 -430 0.224951 0.97437<486.638 1209.35>
LayerCount: 2
Fore
SplineSet
1486 0 m 1,0,-1
 1116 0 l 1,1,2
 1111 35 1111 35 1111 108 c 1,3,4
 944 -20 944 -20 794 -20 c 0,5,6
 624 -20 624 -20 622 143 c 0,7,8
 622 189 622 189 636 248 c 0,9,10
 722 610 722 610 1228 700 c 1,11,12
 1240 752 1240 752 1240 787 c 0,13,14
 1240 863 1240 863 1185 863 c 0,15,16
 730 863 730 863 643 489 c 2,17,-1
 531 5 l 2,18,19
 526 -17 526 -17 526 -34 c 0,20,21
 526 -157 526 -157 746 -157 c 0,22,23
 847 -157 847 -157 911 -113 c 9,24,-1
 1313 -114 l 17,25,26
 1094 -430 1094 -430 581 -430 c 0,27,28
 162 -430 162 -430 162 -135 c 0,29,30
 162 -75 162 -75 177 -11 c 2,31,-1
 295 496 l 2,32,33
 440 1120 440 1120 1291 1120 c 0,34,35
 1609 1120 1609 1120 1609 887 c 0,36,37
 1609 837 1609 837 1596 781 c 2,38,-1
 1485 300 l 2,39,40
 1467 222 1467 222 1467 148 c 0,41,42
 1467 72 1467 72 1486 0 c 1,0,-1
1138 460 m 1,43,44
 957 398 957 398 957 312 c 0,45,46
 957 275 957 275 995 275 c 0,47,48
 1036 275 1036 275 1088 347 c 0,49,50
 1117 387 1117 387 1138 460 c 1,43,44
EndSplineSet
Validated: 1
EndChar

StartChar: B
Encoding: 66 66 36
Width: 1486
GlyphClass: 2
Flags: W
HStem: 0 277<614 967.981> 690 277<773 1093.62> 1233 277<835 1166.38>
VStem: 1127 367<480.094 688> 1175 357<1093.83 1390.5>
DStem2: 200 0 550.049 0 0.224951 0.97437<363.03 786.815 1071.11 1344.24>
LayerCount: 2
Fore
SplineSet
200 0 m 1,0,-1
 479 1210 l 2,1,2
 500 1300 500 1300 500 1375 c 128,-1,3
 500 1450 500 1450 479 1510 c 1,4,-1
 1116 1510 l 2,5,6
 1532 1510 1532 1510 1532 1271 c 0,7,8
 1532 1234 1532 1234 1522 1192 c 0,9,10
 1478 1006 1478 1006 1319 894 c 1,11,12
 1494 859 1494 859 1494 688 c 0,13,14
 1494 641 1494 641 1481 584 c 0,15,16
 1348 0 1348 0 628 0 c 2,17,-1
 200 0 l 1,0,-1
614 277 m 1,18,-1
 794 277 l 2,19,20
 1054 277 1054 277 1123 552 c 0,21,22
 1127 568 1127 568 1127 581 c 0,23,24
 1123 690 1123 690 903 690 c 2,25,-1
 709 690 l 1,26,-1
 614 277 l 1,18,-1
773 967 m 1,27,-1
 939 967 l 2,28,29
 1133 967 1133 967 1173 1146 c 0,30,31
 1175 1155 1175 1155 1175 1163 c 0,32,33
 1175 1233 1175 1233 1027 1233 c 2,34,-1
 835 1233 l 25,35,-1
 773 967 l 1,27,-1
EndSplineSet
Validated: 1
EndChar

StartChar: C
Encoding: 67 67 37
Width: 1538
GlyphClass: 2
Flags: W
HStem: -20 274<639.659 996.506> 1256 274<906.371 1438.5>
VStem: 236 365<127 519.742> 1268 378<1080.35 1376.5>
DStem2: 155.266 -20 505.341 -20 0.224951 0.97437<487.642 1237.65>
LayerCount: 2
Fore
SplineSet
1517 604 m 1,0,1
 1373 -20 1373 -20 655 -20 c 0,2,3
 236 -20 236 -20 236 274 c 0,4,5
 236 331 236 331 252 399 c 2,6,-1
 369 906 l 2,7,8
 513 1530 513 1530 1231 1530 c 0,9,10
 1646 1530 1646 1530 1646 1223 c 0,11,12
 1646 1160 1646 1160 1628 1084 c 1,13,-1
 1256 988 l 1,14,15
 1268 1041 1268 1041 1268 1083 c 0,16,17
 1268 1256 1268 1256 1066 1256 c 0,18,19
 800 1256 800 1256 718 899 c 2,20,-1
 606 416 l 2,21,22
 601 395 601 395 601 377 c 0,23,24
 601 254 601 254 821 254 c 0,25,26
 1087 254 1087 254 1145 507 c 1,27,-1
 1517 604 l 1,0,1
EndSplineSet
Validated: 1
EndChar

StartChar: D
Encoding: 68 68 38
Width: 1538
GlyphClass: 2
Flags: W
HStem: 0 277<614 983.688> 1233 277<835 1239.99>
VStem: 1281 365<968.812 1363.5>
DStem2: 200 0 550.049 0 0.224951 0.97437<363.03 1344.24> 1027.78 0 1378.4 0 0.224951 0.97437<427.83 1140.89>
LayerCount: 2
Fore
SplineSet
200 0 m 1,0,-1
 479 1210 l 2,1,2
 500 1300 500 1300 500 1375 c 128,-1,3
 500 1450 500 1450 479 1510 c 1,4,-1
 1227 1510 l 2,5,6
 1646 1510 1646 1510 1646 1217 c 0,7,8
 1646 1160 1646 1160 1630 1092 c 2,9,-1
 1522 622 l 2,10,11
 1378 0 1378 0 661 0 c 2,12,-1
 200 0 l 1,0,-1
614 277 m 1,13,-1
 827 277 l 2,14,15
 1092 277 1092 277 1173 629 c 2,16,-1
 1276 1075 l 2,17,18
 1281 1095 1281 1095 1281 1113 c 0,19,20
 1281 1233 1281 1233 1060 1233 c 2,21,-1
 835 1233 l 9,22,-1
 614 277 l 1,13,-1
EndSplineSet
Validated: 1
EndChar

StartChar: E
Encoding: 69 69 39
Width: 1334
GlyphClass: 2
Flags: W
HStem: 0 277<614 1249.66> 621 277<757 1258> 1233 277<835 1400>
DStem2: 200 0 550.049 0 0.224951 0.97437<363.03 715.985 1000.28 1344.24>
LayerCount: 2
Fore
SplineSet
200 0 m 1,0,-1
 479 1210 l 2,1,2
 500 1300 500 1300 500 1375 c 128,-1,3
 500 1450 500 1450 479 1510 c 1,4,-1
 1464 1510 l 1,5,-1
 1400 1233 l 1,6,-1
 835 1233 l 25,7,-1
 757 898 l 1,8,-1
 1322 898 l 1,9,-1
 1258 621 l 1,10,-1
 693 621 l 1,11,-1
 614 277 l 1,12,-1
 1018 277 l 2,13,14
 1201 277 1201 277 1334 347 c 1,15,-1
 1266 50 l 1,16,17
 1137 0 1137 0 954 0 c 2,18,-1
 200 0 l 1,0,-1
EndSplineSet
Validated: 1
EndChar

StartChar: F
Encoding: 70 70 40
Width: 1237
GlyphClass: 2
Flags: W
HStem: 0 21G<200 554.605> 621 277<757 1260> 1233 277<835 1402>
VStem: 200 350<0 350>
DStem2: 200 0 550 0 0.224951 0.97437<78.7329 715.985 1000.28 1344.24>
LayerCount: 2
Fore
SplineSet
200 0 m 1,0,-1
 479 1210 l 2,1,2
 500 1300 500 1300 500 1375 c 128,-1,3
 500 1450 500 1450 479 1510 c 1,4,-1
 1466 1510 l 1,5,-1
 1402 1233 l 1,6,-1
 835 1233 l 9,7,-1
 757 898 l 1,8,-1
 1324 898 l 1,9,-1
 1260 621 l 1,10,-1
 693 621 l 1,11,-1
 550 0 l 1,12,-1
 200 0 l 1,0,-1
EndSplineSet
Validated: 1
EndChar

StartChar: G
Encoding: 71 71 41
Width: 1538
GlyphClass: 2
Flags: W
HStem: -20 274<639.659 996.506> 621 277<914.449 1171> 1256 274<906.371 1438.5>
VStem: 236 365<127 519.742> 1268 378<1080.35 1376.5>
DStem2: 155.266 -20 505.341 -20 0.224951 0.97437<487.642 1237.65>
LayerCount: 2
Fore
SplineSet
1585 898 m 1,0,-1
 1517 604 l 18,1,2
 1373 -20 1373 -20 655 -20 c 0,3,4
 236 -20 236 -20 236 274 c 0,5,6
 236 331 236 331 252 399 c 2,7,-1
 369 906 l 2,8,9
 513 1530 513 1530 1231 1530 c 0,10,11
 1646 1530 1646 1530 1646 1223 c 0,12,13
 1646 1160 1646 1160 1628 1084 c 1,14,-1
 1256 988 l 1,15,16
 1268 1041 1268 1041 1268 1083 c 0,17,18
 1268 1256 1268 1256 1066 1256 c 0,19,20
 800 1256 800 1256 718 899 c 2,21,-1
 606 416 l 2,22,23
 601 395 601 395 601 377 c 0,24,25
 601 254 601 254 821 254 c 0,26,27
 1087 254 1087 254 1145 507 c 10,28,-1
 1171 621 l 1,29,-1
 1145 621 l 2,30,31
 953 621 953 621 829 551 c 1,32,-1
 898 848 l 1,33,34
 1028 898 1028 898 1209 898 c 2,35,-1
 1585 898 l 1,0,-1
EndSplineSet
Validated: 1
EndChar

StartChar: H
Encoding: 72 72 42
Width: 1556
GlyphClass: 2
Flags: W
HStem: 0 21G<200 554.605 1051 1426> 621 277<757 1149> 1490 20G<479 853.5 1350.36 1705>
VStem: 200 350<0 350> 500 358<1147.52 1508.5> 1046 358<1.50391 360.961> 1355 350<1160 1510>
DStem2: 200 0 550 0 0.224951 0.97437<78.7329 715.985 1000.28 1404.96> 1005.74 0 1355.74 0 0.224951 0.97437<224.392 637.31 921.608 1549.87>
LayerCount: 2
Fore
SplineSet
200 0 m 1,0,-1
 479 1210 l 2,1,2
 500 1300 500 1300 500 1375 c 128,-1,3
 500 1450 500 1450 479 1510 c 1,4,-1
 849 1510 l 1,5,6
 858 1474 858 1474 858 1424 c 0,7,8
 858 1336 858 1336 829 1210 c 2,9,-1
 757 898 l 1,10,-1
 1213 898 l 1,11,-1
 1355 1510 l 1,12,-1
 1705 1510 l 1,13,-1
 1425 300 l 2,14,15
 1404 211 1404 211 1404 136 c 0,16,17
 1405 59 1405 59 1426 0 c 1,18,-1
 1056 0 l 1,19,20
 1046 37 1046 37 1046 88 c 0,21,22
 1046 175 1046 175 1075 300 c 2,23,-1
 1149 621 l 1,24,-1
 693 621 l 1,25,-1
 550 0 l 1,26,-1
 200 0 l 1,0,-1
EndSplineSet
Validated: 1
EndChar

StartChar: I
Encoding: 73 73 43
Width: 750
GlyphClass: 2
Flags: W
HStem: 0 21G<200 554.612> 1490 20G<479 853.5>
VStem: 200 350<0 350> 500 358<1153.28 1508.5>
DStem2: 200 0 550 0 0.224951 0.97437<78.7329 1404.96>
LayerCount: 2
Fore
SplineSet
200 0 m 1,0,-1
 479 1210 l 2,1,2
 500 1300 500 1300 500 1375 c 128,-1,3
 500 1450 500 1450 479 1510 c 1,4,-1
 849 1510 l 1,5,6
 858 1474 858 1474 858 1424 c 0,7,8
 858 1336 858 1336 829 1210 c 2,9,-1
 550 0 l 1,10,-1
 200 0 l 1,0,-1
EndSplineSet
Validated: 1
EndChar

StartChar: J
Encoding: 74 74 44
Width: 1278
GlyphClass: 2
Flags: W
HStem: -20 278<284 738.151> 1233 277<632.156 1013>
VStem: 134 378<115 411.94>
DStem2: 723.793 -20 1073.64 -20 0.224951 0.97437<369.036 1285.94>
LayerCount: 2
Fore
SplineSet
155 411 m 9,0,-1
 527 507 l 17,1,2
 512 439 512 439 512 390 c 0,3,4
 512 258 512 258 621 258 c 0,5,6
 788 258 788 258 848 518 c 2,7,-1
 1013 1233 l 1,8,-1
 863 1233 l 2,9,10
 671 1233 671 1233 546 1163 c 1,11,-1
 615 1460 l 1,12,13
 751 1510 751 1510 927 1510 c 2,14,-1
 1427 1510 l 1,15,-1
 1199 523 l 2,16,17
 1073 -20 1073 -20 434 -20 c 0,18,19
 134 -20 134 -20 134 250 c 0,20,21
 134 321 134 321 155 411 c 9,0,-1
EndSplineSet
Validated: 1
EndChar

StartChar: K
Encoding: 75 75 45
Width: 1428
GlyphClass: 2
Flags: W
HStem: 0 21G<200 554.605 923 1298> 621 277<757 927.844> 1490 20G<479 853.5 1204.34 1559>
VStem: 200 350<0 350> 500 358<1147.52 1508.48> 918 358<1.54993 391.818> 966 352<150.206 585.513>
DStem2: 200 0 550 0 0.224951 0.97437<78.7329 715.985 1000.28 1404.96> 877.74 0 1227.74 0 0.224951 0.97437<224.422 454.388 1124.37 1491.02>
LayerCount: 2
Fore
SplineSet
200 0 m 1,0,-1
 479 1210 l 2,1,2
 500 1300 500 1300 500 1375 c 128,-1,3
 500 1450 500 1450 479 1510 c 1,4,-1
 849 1510 l 1,5,6
 858 1473 858 1473 858 1424 c 0,7,8
 858 1336 858 1336 829 1210 c 2,9,-1
 757 898 l 1,10,-1
 884 898 l 2,11,12
 1067 898 1067 898 1128 1162 c 2,13,-1
 1209 1510 l 1,14,-1
 1559 1510 l 1,15,-1
 1499 1250 l 2,16,17
 1423 922 1423 922 1194 765 c 1,18,19
 1318 659 1318 659 1318 471 c 0,20,21
 1318 392 1318 392 1297 300 c 0,22,23
 1276 212 1276 212 1276 136 c 0,24,25
 1276 59 1276 59 1298 0 c 1,26,-1
 928 0 l 1,27,28
 918 40 918 40 918 87 c 0,29,30
 918 178 918 178 947 300 c 0,31,32
 966 383 966 383 966 448 c 0,33,34
 966 621 966 621 820 621 c 2,35,-1
 693 621 l 1,36,-1
 550 0 l 1,37,-1
 200 0 l 1,0,-1
EndSplineSet
Validated: 1
EndChar

StartChar: L
Encoding: 76 76 46
Width: 1191
GlyphClass: 2
Flags: W
HStem: 0 277<614 1176.66> 1490 20G<479 853>
VStem: 500 357<1145.2 1508.45>
DStem2: 200 0 550.049 0 0.224951 0.97437<363.03 1404.96>
LayerCount: 2
Fore
SplineSet
200 0 m 1,0,-1
 479 1210 l 2,1,2
 500 1300 500 1300 500 1375 c 128,-1,3
 500 1450 500 1450 479 1510 c 1,4,-1
 849 1510 l 1,5,6
 857 1471 857 1471 857 1422 c 0,7,8
 857 1332 857 1332 829 1210 c 2,9,-1
 614 277 l 1,10,-1
 945 277 l 2,11,12
 1128 277 1128 277 1261 347 c 1,13,-1
 1193 50 l 1,14,15
 1064 0 1064 0 881 0 c 2,16,-1
 200 0 l 1,0,-1
EndSplineSet
Validated: 1
EndChar

StartChar: O
Encoding: 79 79 47
Width: 1538
GlyphClass: 2
Flags: W
HStem: -20 274<640.156 980.129> 1256 274<906.371 1246.36>
VStem: 236 365<126 519.742> 1286 364<990.258 1383>
DStem2: 155.266 -20 505.341 -20 0.224951 0.97437<487.642 1237.65> 1023.32 -20 1372.94 -20 0.224951 0.97437<431.982 1181.99>
LayerCount: 2
Fore
SplineSet
606 416 m 2,0,1
 601 395 601 395 601 377 c 0,2,3
 603 254 603 254 821 254 c 0,4,5
 1087 254 1087 254 1169 611 c 2,6,-1
 1281 1094 l 2,7,8
 1286 1115 1286 1115 1286 1133 c 0,9,10
 1284 1256 1284 1256 1066 1256 c 0,11,12
 800 1256 800 1256 718 899 c 2,13,-1
 606 416 l 2,0,1
252 399 m 2,14,-1
 369 906 l 2,15,16
 513 1530 513 1530 1231 1530 c 0,17,18
 1650 1530 1650 1530 1650 1236 c 0,19,20
 1650 1180 1650 1180 1634 1111 c 2,21,-1
 1517 604 l 2,22,23
 1373 -20 1373 -20 655 -20 c 0,24,25
 237 -20 237 -20 236 272 c 0,26,27
 236 330 236 330 252 399 c 2,14,-1
EndSplineSet
Validated: 1
EndChar

StartChar: P
Encoding: 80 80 48
Width: 1424
GlyphClass: 2
Flags: W
HStem: 0 21G<200 554.619> 433 277<714 1009.12> 1233 277<835 1165.87>
VStem: 200 350<0 350> 1205 363<974.486 1358>
DStem2: 200 0 550 0 0.224951 0.97437<78.7329 523.13 807.428 1344.24>
LayerCount: 2
Fore
SplineSet
200 0 m 1,0,-1
 479 1210 l 2,1,2
 500 1300 500 1300 500 1375 c 128,-1,3
 500 1450 500 1450 479 1510 c 1,4,-1
 1153 1510 l 2,5,6
 1568 1510 1568 1510 1568 1206 c 0,7,8
 1568 1145 1568 1145 1551 1072 c 0,9,10
 1402 433 1402 433 687 433 c 2,11,-1
 650 433 l 1,12,-1
 550 0 l 1,13,-1
 200 0 l 1,0,-1
714 710 m 1,14,-1
 853 710 l 2,15,16
 1119 710 1119 710 1200 1066 c 0,17,18
 1205 1088 1205 1088 1205 1108 c 0,19,20
 1205 1233 1205 1233 986 1233 c 2,21,-1
 835 1233 l 9,22,-1
 714 710 l 1,14,-1
EndSplineSet
Validated: 1
EndChar

StartChar: Q
Encoding: 81 81 49
Width: 1538
GlyphClass: 2
Flags: W
HStem: -20 274<640.141 884.851> 0 21G<1025.39 1458> 1256 274<906.371 1246.36>
VStem: 236 365<127 519.742> 1286 364<990.258 1383>
DStem2: 155.266 -20 505.341 -20 0.224951 0.97437<487.642 1237.65> 1023.32 -20 1372.94 -20 0.224951 0.97437<568.197 1181.99>
LayerCount: 2
Fore
SplineSet
1458 0 m 1,0,-1
 1037 0 l 1,1,-1
 1019 31 l 1,2,3
 861 -20 861 -20 655 -20 c 0,4,5
 236 -20 236 -20 236 274 c 0,6,7
 236 331 236 331 252 399 c 2,8,-1
 369 906 l 2,9,10
 513 1530 513 1530 1231 1530 c 0,11,12
 1650 1530 1650 1530 1650 1236 c 0,13,14
 1650 1179 1650 1179 1634 1111 c 2,15,-1
 1517 604 l 2,16,17
 1463 369 1463 369 1328 223 c 1,18,-1
 1458 0 l 1,0,-1
606 416 m 2,19,20
 601 395 601 395 601 377 c 0,21,22
 603 254 603 254 821 254 c 0,23,24
 856 254 856 254 888 260 c 1,25,-1
 680 623 l 1,26,-1
 1095 623 l 1,27,-1
 1147 533 l 1,28,29
 1159 569 1159 569 1169 611 c 2,30,-1
 1281 1094 l 2,31,32
 1286 1115 1286 1115 1286 1133 c 0,33,34
 1284 1256 1284 1256 1066 1256 c 0,35,36
 800 1256 800 1256 718 899 c 2,37,-1
 606 416 l 2,19,20
EndSplineSet
Validated: 1
EndChar

StartChar: R
Encoding: 82 82 50
Width: 1490
GlyphClass: 2
Flags: W
HStem: 0 21G<200 554.619 955 1330> 433 277<714 960.076> 1233 277<835 1165.84>
VStem: 200 350<0 350> 950 358<1.53479 368.968> 983 360<138.409 409> 1205 362<974.435 1357.5>
DStem2: 200 0 550 0 0.224951 0.97437<78.7329 523.13 807.428 1344.24>
LayerCount: 2
Fore
SplineSet
200 0 m 1,0,-1
 479 1210 l 2,1,2
 500 1300 500 1300 500 1375 c 128,-1,3
 500 1450 500 1450 479 1510 c 1,4,-1
 1153 1510 l 2,5,6
 1567 1510 1567 1510 1567 1205 c 0,7,8
 1567 1145 1567 1145 1551 1072 c 0,9,10
 1477 752 1477 752 1263 594 c 1,11,12
 1343 528 1343 528 1343 409 c 0,13,14
 1343 358 1343 358 1329 300 c 0,15,16
 1308 213 1308 213 1308 136 c 0,17,18
 1308 60 1308 60 1330 0 c 1,19,-1
 960 0 l 1,20,21
 950 38 950 38 950 89 c 0,22,23
 950 184 950 184 979 300 c 0,24,25
 983 316 983 316 983 331 c 0,26,27
 983 433 983 433 789 433 c 2,28,-1
 650 433 l 1,29,-1
 550 0 l 1,30,-1
 200 0 l 1,0,-1
714 710 m 1,31,-1
 853 710 l 2,32,33
 1119 710 1119 710 1200 1066 c 0,34,35
 1205 1088 1205 1088 1205 1108 c 0,36,37
 1205 1233 1205 1233 986 1233 c 2,38,-1
 835 1233 l 1,39,-1
 714 710 l 1,31,-1
EndSplineSet
Validated: 1
EndChar

StartChar: S
Encoding: 83 83 51
Width: 1538
GlyphClass: 2
Flags: W
HStem: -20 274<449.5 995.407> 1256 274<888.525 1419.5>
VStem: 243 378<135.5 441.55> 1154 367<466.203 663> 1232 376<1102.2 1383>
LayerCount: 2
Fore
SplineSet
262 440 m 9,0,-1
 634 536 l 17,1,2
 621 480 621 480 621 432 c 0,3,4
 621 254 621 254 821 254 c 0,5,6
 1081 254 1081 254 1150 530 c 16,7,8
 1154 546 1154 546 1154 559 c 0,9,10
 1154 667 1154 667 931 670 c 0,11,12
 427 677 427 677 427 946 c 0,13,14
 427 984 427 984 437 1027 c 8,15,16
 554 1530 554 1530 1231 1530 c 0,17,18
 1608 1530 1608 1530 1608 1236 c 0,19,20
 1608 1177 1608 1177 1593 1108 c 9,21,-1
 1221 1012 l 17,22,23
 1232 1066 1232 1066 1232 1104 c 0,24,25
 1232 1256 1232 1256 1074 1256 c 0,26,27
 835 1256 835 1256 803 1094 c 16,28,29
 801 1084 801 1084 801 1074 c 0,30,31
 801 983 801 983 1023 971 c 0,32,33
 1521 945 1521 945 1521 663 c 0,34,35
 1521 620 1521 620 1510 572 c 0,36,37
 1374 -20 1374 -20 655 -20 c 0,38,39
 244 -20 244 -20 243 291 c 0,40,41
 243 358 243 358 262 440 c 9,0,-1
EndSplineSet
Validated: 1
EndChar

StartChar: T
Encoding: 84 84 52
Width: 1190
GlyphClass: 2
Flags: W
HStem: 0 21G<420 774.623> 1233 277<361.578 705 1055 1465>
VStem: 420 350<0 350>
DStem2: 420 0 770 0 0.224951 0.97437<78.7329 1265.51>
LayerCount: 2
Fore
SplineSet
420 0 m 1,0,-1
 705 1233 l 1,1,-1
 595 1233 l 2,2,3
 407 1233 407 1233 278 1163 c 1,4,-1
 347 1460 l 1,5,6
 461 1510 461 1510 659 1510 c 2,7,-1
 1529 1510 l 1,8,-1
 1465 1233 l 1,9,-1
 1055 1233 l 1,10,-1
 770 0 l 1,11,-1
 420 0 l 1,0,-1
EndSplineSet
Validated: 1
EndChar

StartChar: U
Encoding: 85 85 53
Width: 1556
GlyphClass: 2
Flags: W
HStem: -20 270<666.407 961.487> 1490 20G<479 854 1350.37 1705>
VStem: 278 361<129 532.047> 500 359<1147.23 1508.53> 1355 350<1160 1510>
DStem2: 195.419 -20 545.65 -20 0.224951 0.97437<473.578 1425.47> 1001.4 -20 1351.17 -20 0.224951 0.97437<429.097 1570.33>
LayerCount: 2
Fore
SplineSet
479 1510 m 1,0,1
 849 1510 l 1,2,3
 859 1476 859 1476 859 1426 c 0,4,5
 859 1340 859 1340 829 1210 c 2,6,-1
 644 406 l 2,7,8
 639 383 639 383 639 363 c 0,9,10
 639 250 639 250 813 250 c 0,11,12
 1064 250 1064 250 1145 602 c 2,13,-1
 1355 1510 l 1,14,-1
 1705 1510 l 1,15,-1
 1495 603 l 2,16,17
 1351 -20 1351 -20 695 -20 c 0,18,19
 278 -20 278 -20 278 278 c 0,20,21
 278 336 278 336 294 407 c 2,22,-1
 479 1210 l 2,23,24
 500 1300 500 1300 500 1375 c 128,-1,25
 500 1450 500 1450 479 1510 c 1,0,1
EndSplineSet
Validated: 1
EndChar

StartChar: V
Encoding: 86 86 54
Width: 1508
GlyphClass: 2
Flags: W
HStem: 0 21G<484.5 1176.5> 1490 20G<429 803.5 1272 1717>
VStem: 373 341<394.533 1113.12> 450 358<1140.98 1508.53>
LayerCount: 2
Fore
SplineSet
596 0 m 1,0,1
 373 324 373 324 373 753 c 0,2,3
 373 967 373 967 429 1210 c 0,4,5
 450 1301 450 1301 450 1376 c 0,6,7
 450 1450 450 1450 429 1510 c 1,8,-1
 799 1510 l 1,9,10
 808 1476 808 1476 808 1425 c 0,11,12
 808 1341 808 1341 779 1210 c 0,13,14
 714 926 714 926 714 689 c 0,15,16
 714 434 714 434 789 233 c 1,17,18
 1177 689 1177 689 1367 1510 c 1,19,-1
 1717 1510 l 1,20,21
 1484 505 1484 505 869 0 c 9,22,-1
 596 0 l 1,0,1
EndSplineSet
Validated: 1
EndChar

StartChar: X
Encoding: 88 88 55
Width: 1424
GlyphClass: 2
Flags: W
HStem: 0 21G<138 529.5 929 1304> 1490 20G<469 843.5 1247.5 1635>
VStem: 454 357<1023.96 1399.98> 490 358<1120.38 1508.48> 924 359<1.55017 421.232> 964 358<115.13 534.123>
LayerCount: 2
Fore
SplineSet
138 0 m 1,0,1
 248 467 248 467 632 740 c 1,2,3
 454 875 454 875 454 1082 c 0,4,5
 454 1143 454 1143 469 1210 c 0,6,7
 490 1299 490 1299 490 1376 c 0,8,9
 490 1450 490 1450 469 1510 c 1,10,-1
 839 1510 l 1,11,12
 848 1473 848 1473 848 1429 c 0,13,14
 848 1345 848 1345 817 1210 c 0,15,16
 811 1183 811 1183 811 1156 c 0,17,18
 811 1045 811 1045 922 948 c 1,19,20
 1210 1185 1210 1185 1285 1510 c 1,21,-1
 1635 1510 l 1,22,23
 1537 1087 1537 1087 1147 813 c 1,24,25
 1322 684 1322 684 1322 459 c 0,26,27
 1322 387 1322 387 1302.5 300.5 c 128,-1,28
 1283 214 1283 214 1283 136 c 0,29,30
 1283 61 1283 61 1304 0 c 1,31,-1
 934 0 l 1,32,33
 924 38 924 38 924 89 c 0,34,35
 924 179 924 179 953 300 c 0,36,37
 964 346 964 346 964 387 c 0,38,39
 964 514 964 514 861 597 c 1,40,41
 571 354 571 354 488 0 c 1,42,-1
 138 0 l 1,0,1
EndSplineSet
Validated: 1
EndChar

StartChar: Y
Encoding: 89 89 56
Width: 1486
GlyphClass: 2
Flags: W
HStem: 0 21G<558 912.606> 1490 20G<449 821.5 1320.36 1675>
VStem: 361 361<639.5 1018.35> 466 358<1126.46 1508.05> 558 350<0 350> 1325 350<1160 1510>
DStem2: 975.892 0 1325.66 0 0.224951 0.97437<900.469 1549.83>
LayerCount: 2
Fore
SplineSet
558 0 m 1,0,-1
 668 476 l 1,1,2
 361 512 361 512 361 767 c 0,3,4
 361 825 361 825 377 896 c 2,5,-1
 449 1210 l 2,6,7
 466 1286 466 1286 466 1361 c 128,-1,8
 466 1436 466 1436 449 1510 c 1,9,-1
 819 1510 l 1,10,11
 824 1459 824 1459 824 1420 c 0,12,13
 824 1319 824 1319 799 1210 c 2,14,-1
 727 895 l 2,15,16
 722 872 722 872 722 852 c 0,17,18
 722 740 722 740 896 740 c 0,19,20
 1147 740 1147 740 1228 1092 c 2,21,-1
 1325 1510 l 1,22,-1
 1675 1510 l 1,23,-1
 1578 1093 l 2,24,25
 1463 595 1463 595 1022 495 c 1,26,-1
 908 0 l 1,27,-1
 558 0 l 1,0,-1
EndSplineSet
Validated: 1
EndChar

StartChar: Z
Encoding: 90 90 57
Width: 1297
GlyphClass: 2
Flags: W
HStem: 0 277<582 1212.66> 1233 277<504.336 1071>
DStem2: 144 277 582 277 0.696134 0.717912<304.907 1331.64>
LayerCount: 2
Fore
SplineSet
80 0 m 1,0,-1
 144 277 l 1,1,-1
 1071 1233 l 1,2,-1
 736 1233 l 2,3,4
 552 1233 552 1233 420 1163 c 1,5,-1
 488 1460 l 1,6,7
 617 1510 617 1510 800 1510 c 2,8,-1
 1564 1510 l 1,9,-1
 1500 1233 l 1,10,-1
 582 277 l 1,11,-1
 981 277 l 2,12,13
 1163 277 1163 277 1297 347 c 1,14,-1
 1229 50 l 1,15,16
 1100 0 1100 0 917 0 c 2,17,-1
 80 0 l 1,0,-1
EndSplineSet
Validated: 1
EndChar

StartChar: bracketleft
Encoding: 91 91 58
Width: 1003
GlyphClass: 2
Flags: W
HStem: -289 300<553 886> 1518 300<900 1303>
DStem2: 133 -289 483.74 -289 0.224951 0.97437<386.79 1933.22>
LayerCount: 2
Fore
SplineSet
620 1818 m 1,0,-1
 1373 1818 l 1,1,-1
 1303 1518 l 1,2,-1
 900 1518 l 1,3,-1
 553 11 l 1,4,-1
 956 11 l 1,5,-1
 886 -289 l 1,6,-1
 133 -289 l 1,7,-1
 620 1818 l 1,0,-1
EndSplineSet
Validated: 1
EndChar

StartChar: backslash
Encoding: 92 92 59
Width: 1263
GlyphClass: 2
Flags: W
DStem2: 726 1705 413 1574 0.257629 -0.966244<45.9402 1834.49>
LayerCount: 2
Fore
SplineSet
726 1705 m 1,0,-1
 1197 -68 l 1,1,-1
 886 -200 l 1,2,-1
 413 1574 l 1,3,-1
 726 1705 l 1,0,-1
EndSplineSet
Validated: 1
EndChar

StartChar: bracketright
Encoding: 93 93 60
Width: 1003
GlyphClass: 2
Flags: W
HStem: -289 300<53 456> 1518 300<470 803>
DStem2: 386.74 -289 736 -289 0.224951 0.97437<307.891 1854.32>
LayerCount: 2
Fore
SplineSet
470 1818 m 1,0,-1
 1223 1818 l 1,1,-1
 736 -289 l 1,2,-1
 -17 -289 l 1,3,-1
 53 11 l 1,4,-1
 456 11 l 1,5,-1
 803 1518 l 1,6,-1
 400 1518 l 1,7,-1
 470 1818 l 1,0,-1
EndSplineSet
Validated: 1
EndChar

StartChar: asciicircum
Encoding: 94 94 61
Width: 1478
GlyphClass: 2
Flags: W
HStem: 837 673<862 960>
VStem: 293 394<837 1231>
DStem2: 293 837 687 837 0.703934 0.710266<277.35 684.665>
LayerCount: 2
Fore
SplineSet
960 1510 m 1,0,-1
 1216 1510 l 1,1,-1
 1571 837 l 1,2,-1
 1118 837 l 1,3,-1
 971 1129 l 1,4,-1
 687 837 l 1,5,-1
 293 837 l 1,6,-1
 960 1510 l 1,0,-1
EndSplineSet
Validated: 1
EndChar

StartChar: underscore
Encoding: 95 95 62
Width: 1333
GlyphClass: 2
Flags: W
HStem: -410 277<119 1088>
LayerCount: 2
Fore
SplineSet
55 -410 m 1,0,-1
 119 -133 l 1,1,-1
 1152 -133 l 1,2,-1
 1088 -410 l 1,3,-1
 55 -410 l 1,0,-1
EndSplineSet
Validated: 1
EndChar

StartChar: grave
Encoding: 96 96 63
Width: 1004
GlyphClass: 2
Flags: W
HStem: 1510 20G<738.385 776.186>
VStem: 443 649
LayerCount: 2
Fore
SplineSet
838 825 m 1,0,-1
 443 1270 l 1,1,-1
 763 1530 l 1,2,-1
 1092 1031 l 1,3,-1
 838 825 l 1,0,-1
EndSplineSet
Validated: 1
EndChar

StartChar: a
Encoding: 97 97 64
Width: 1318
GlyphClass: 2
Flags: W
HStem: -20 290<311.5 675.458> 0 21G<814 1188> 846 274<771.753 1122.88>
VStem: 149 372<79.5 329.459> 939 372<699.772 1003.5>
LayerCount: 2
Fore
SplineSet
1188 0 m 1,0,1
 818 0 l 1,2,3
 810 44 810 44 810 107 c 1,4,5
 646 -20 646 -20 474 -20 c 0,6,7
 149 -20 149 -20 149 179 c 0,8,9
 149 212 149 212 158 251 c 0,10,11
 241 611 241 611 930 700 c 1,12,13
 939 739 939 739 939 767 c 0,14,15
 939 846 939 846 871 846 c 0,16,17
 709 846 709 846 638 724 c 9,18,-1
 388 850 l 17,19,20
 609 1120 609 1120 993 1120 c 0,21,22
 1311 1120 1311 1120 1311 887 c 0,23,24
 1311 837 1311 837 1298 781 c 2,25,-1
 1187 300 l 2,26,27
 1169 221 1169 221 1169 146 c 0,28,29
 1169 70 1169 70 1188 0 c 1,0,1
840 460 m 1,30,31
 521 401 521 401 521 312 c 0,32,33
 521 270 521 270 603 270 c 0,34,35
 672 270 672 270 746 340 c 0,36,37
 810 401 810 401 840 460 c 1,30,31
EndSplineSet
Validated: 1
EndChar

StartChar: b
Encoding: 98 98 65
Width: 1378
GlyphClass: 2
Flags: W
HStem: -20 286<416.5 883.913> 820 300<885.743 1255.5> 1490 20G<479 853.5>
VStem: 259 374<94.5 443.29> 500 358<1148.39 1508.5> 1039 374<650.922 1005.5>
DStem2: 195.583 -20 544.884 -20 0.224951 0.97437<459.311 748.849 1140.84 1425.44>
LayerCount: 2
Fore
SplineSet
479 1510 m 1,0,-1
 849 1510 l 1,1,2
 858 1474 858 1474 858 1424 c 0,3,4
 858 1336 858 1336 829 1210 c 2,5,-1
 784 1015 l 1,6,7
 921 1120 921 1120 1098 1120 c 0,8,9
 1413 1120 1413 1120 1413 891 c 0,10,11
 1413 845 1413 845 1400 789 c 2,12,-1
 1333 496 l 2,13,14
 1213 -20 1213 -20 574 -20 c 0,15,16
 259 -20 259 -20 259 209 c 0,17,18
 259 255 259 255 272 311 c 2,19,-1
 479 1210 l 2,20,21
 500 1300 500 1300 500 1375 c 128,-1,22
 500 1450 500 1450 479 1510 c 1,0,-1
637 379 m 0,23,24
 633 363 633 363 633 350 c 0,25,26
 633 266 633 266 774 266 c 0,27,28
 930 266 930 266 984 501 c 2,29,-1
 1034 718 l 2,30,31
 1039 741 1039 741 1039 759 c 0,32,33
 1039 820 1039 820 977 820 c 0,34,35
 876 820 876 820 782 688 c 0,36,37
 678 541 678 541 637 379 c 0,23,24
EndSplineSet
Validated: 1
EndChar

StartChar: c
Encoding: 99 99 66
Width: 1338
GlyphClass: 2
Flags: W
HStem: -20 274<385 869.4> 846 274<749.215 1207>
VStem: 215 366<104.5 477.203>
LayerCount: 2
Fore
SplineSet
1303 496 m 1,0,1
 1183 -20 1183 -20 555 -20 c 0,2,3
 215 -20 215 -20 215 229 c 0,4,5
 215 280 215 280 229 342 c 2,6,-1
 289 604 l 2,7,8
 409 1120 409 1120 1037 1120 c 0,9,10
 1377 1120 1377 1120 1377 870 c 0,11,12
 1377 819 1377 819 1363 758 c 1,13,-1
 990 660 l 1,14,15
 999 699 999 699 999 730 c 0,16,17
 999 846 999 846 871 846 c 0,18,19
 695 846 695 846 638 599 c 2,20,-1
 584 363 l 2,21,22
 581 348 581 348 581 336 c 0,23,24
 581 255 581 255 721 254 c 0,25,26
 897 254 897 254 930 398 c 1,27,-1
 1303 496 l 1,0,1
EndSplineSet
Validated: 1
EndChar

StartChar: d
Encoding: 100 100 67
Width: 1378
GlyphClass: 2
Flags: W
HStem: -20 300<376.5 726.522> 0 21G<875.5 1248> 834 286<741.977 987.205> 1490 20G<1107 1481>
VStem: 219 374<94.5 449.078> 1128 357<1137.7 1508.4>
DStem2: 825.851 -20 1173.12 -20 0.224951 0.97437<499.987 787.315 1146.74 1425.87>
LayerCount: 2
Fore
SplineSet
993 704 m 0,0,1
 998 726 998 726 998 749 c 0,2,3
 998 834 998 834 858 834 c 0,4,5
 702 834 702 834 648 599 c 2,6,-1
 598 382 l 2,7,8
 593 360 593 360 593 342 c 0,9,10
 593 280 593 280 655 280 c 0,11,12
 740 280 740 280 847 412 c 0,13,14
 958 549 958 549 993 704 c 0,0,1
1248 0 m 1,15,-1
 878 0 l 1,16,17
 873 30 873 30 873 108 c 1,18,19
 694 -20 694 -20 534 -20 c 0,20,21
 219 -20 219 -20 219 209 c 0,22,23
 219 254 219 254 232 311 c 2,24,-1
 299 604 l 2,25,26
 417 1120 417 1120 917 1120 c 0,27,28
 1007 1120 1007 1120 1081 1098 c 1,29,-1
 1107 1210 l 2,30,31
 1128 1300 1128 1300 1128 1376 c 0,32,33
 1128 1450 1128 1450 1107 1510 c 1,34,-1
 1477 1510 l 1,35,36
 1485 1468 1485 1468 1485 1420 c 0,37,38
 1485 1331 1485 1331 1457 1210 c 2,39,-1
 1247 300 l 2,40,41
 1225 205 1225 205 1225 129 c 128,-1,42
 1225 53 1225 53 1248 0 c 1,15,-1
EndSplineSet
Validated: 1
EndChar

StartChar: e
Encoding: 101 101 68
Width: 1338
GlyphClass: 2
Flags: W
HStem: -20 274<385 870.752> 846 274<738.591 1197>
VStem: 215 366<104.5 415.016>
DStem2: 651 654 595 411 0.961376 0.275238<0 369.742>
LayerCount: 2
Fore
SplineSet
1303 496 m 1,0,1
 1183 -20 1183 -20 555 -20 c 0,2,3
 215 -20 215 -20 215 229 c 0,4,5
 215 280 215 280 229 342 c 2,6,-1
 289 604 l 2,7,8
 409 1120 409 1120 1037 1120 c 0,9,10
 1357 1120 1357 1120 1357 816 c 0,11,12
 1357 731 1357 731 1332 622 c 1,13,-1
 595 411 l 1,14,-1
 584 363 l 2,15,16
 581 348 581 348 581 336 c 0,17,18
 581 254 581 254 721 254 c 0,19,20
 897 254 897 254 929 393 c 1,21,-1
 1303 496 l 1,0,1
651 654 m 1,22,-1
 1006 756 l 1,23,24
 1001 846 1001 846 871 846 c 0,25,26
 708 846 708 846 651 654 c 1,22,-1
EndSplineSet
Validated: 1
EndChar

StartChar: f
Encoding: 102 102 69
Width: 1028
GlyphClass: 2
Flags: W
HStem: 0 21G<220 574.603> 630 277<779 1015> 1256 274<913.746 1230.56>
VStem: 220 350<0 350>
DStem2: 220 0 570 0 0.224951 0.97437<78.7329 594.304 1009.5 1294.57>
LayerCount: 2
Fore
SplineSet
220 0 m 1,0,-1
 354 579 l 9,1,2
 296 570 296 570 236 534 c 1,3,-1
 302 819 l 1,4,5
 360 848 360 848 417 855 c 1,6,-1
 454 1014 l 2,7,8
 573 1530 573 1530 1201 1530 c 0,9,10
 1288 1530 1288 1530 1367 1512 c 9,11,-1
 1209 1211 l 17,12,13
 1130 1256 1130 1256 1036 1256 c 0,14,15
 860 1256 860 1256 803 1009 c 2,16,-1
 779 907 l 1,17,-1
 1079 907 l 1,18,-1
 1015 630 l 1,19,-1
 715 630 l 1,20,-1
 570 0 l 1,21,-1
 220 0 l 1,0,-1
EndSplineSet
Validated: 1
EndChar

StartChar: g
Encoding: 103 103 70
Width: 1338
GlyphClass: 2
Flags: W
HStem: -430 257<333.704 660.384> -20 300<366.5 710.966> 834 286<737.929 1205.5>
VStem: 209 374<94.5 449.078> 988 375<654.074 1005.5>
LayerCount: 2
Fore
SplineSet
847 834 m 24,0,1
 692 834 692 834 638 599 c 2,2,-1
 588 382 l 2,3,4
 583 360 583 360 583 342 c 0,5,6
 583 280 583 280 645 280 c 0,7,8
 737 280 737 280 837 412 c 0,9,10
 944 554 944 554 984 714 c 16,11,12
 988 730 988 730 988 745 c 0,13,14
 988 834 988 834 847 834 c 24,0,1
122 -220 m 9,15,-1
 488 -122 l 17,16,17
 496 -173 496 -173 540 -173 c 0,18,19
 706 -173 706 -173 823 96 c 1,20,21
 681 -20 681 -20 524 -20 c 0,22,23
 209 -20 209 -20 209 209 c 0,24,25
 209 255 209 255 222 311 c 2,26,-1
 289 604 l 2,27,28
 409 1120 409 1120 1048 1120 c 0,29,30
 1363 1120 1363 1120 1363 891 c 0,31,32
 1363 845 1363 845 1350 789 c 2,33,-1
 1263 412 l 2,34,35
 1069 -430 1069 -430 430 -430 c 0,36,37
 169 -430 169 -430 122 -220 c 9,15,-1
EndSplineSet
Validated: 1
EndChar

StartChar: h
Encoding: 104 104 71
Width: 1418
GlyphClass: 2
Flags: W
HStem: 0 21G<200 554.651 915 1288> 820 300<904.574 1255> 1490 20G<479 853.5>
VStem: 500 358<1147.58 1508.5> 912 357<1.67383 382.297> 1037 375<649.906 1003>
DStem2: 200 0 550 0 0.224951 0.97437<78.7329 692.993 1096.82 1404.99> 867.74 0 1217.74 0 0.224951 0.97437<225.396 772.049>
LayerCount: 2
Fore
SplineSet
200 0 m 1,0,-1
 479 1210 l 2,1,2
 500 1301 500 1301 500 1375 c 0,3,4
 500 1450 500 1450 479 1510 c 1,5,-1
 849 1510 l 1,6,7
 858 1474 858 1474 858 1424 c 0,8,9
 858 1336 858 1336 829 1210 c 2,10,-1
 779 992 l 1,11,12
 919 1120 919 1120 1098 1120 c 0,13,14
 1412 1120 1412 1120 1412 886 c 0,15,16
 1412 839 1412 839 1398 779 c 2,17,-1
 1287 300 l 2,18,19
 1269 222 1269 222 1269 136 c 0,20,21
 1269 62 1269 62 1288 0 c 1,22,-1
 918 0 l 1,23,24
 912 45 912 45 912 94 c 0,25,26
 912 192 912 192 937 300 c 2,27,-1
 1031 705 l 2,28,29
 1037 731 1037 731 1037 754 c 0,30,31
 1037 820 1037 820 977 820 c 0,32,33
 741 820 741 820 580 129 c 2,34,-1
 550 0 l 1,35,-1
 200 0 l 1,0,-1
EndSplineSet
Validated: 1
EndChar

StartChar: i
Encoding: 105 105 72
Width: 750
GlyphClass: 2
Flags: W
HStem: 0 21G<247 620> 1080 20G<384 756.5> 1169 381<545.163 750.543>
VStem: 244 355<1.64343 385.938> 402 357<714.062 1098.23>
DStem2: 199.74 0 549.74 0 0.224951 0.97437<228.483 975.415>
LayerCount: 2
Fore
SplineSet
694 1550 m 0,0,1
 846 1550 846 1550 846 1427 c 0,2,3
 846 1399 846 1399 838 1363 c 0,4,5
 795 1169 795 1169 604 1169 c 0,6,7
 453 1169 453 1169 453 1295 c 0,8,9
 453 1325 453 1325 461 1361 c 0,10,11
 503 1550 503 1550 694 1550 c 0,0,1
250 0 m 1,12,13
 244 45 244 45 244 93 c 0,14,15
 244 192 244 192 269 300 c 2,16,-1
 385 800 l 2,17,18
 402 873 402 873 402 957 c 0,19,20
 402 1032 402 1032 384 1100 c 1,21,-1
 754 1100 l 1,22,23
 759 1055 759 1055 759 1008 c 0,24,25
 759 903 759 903 735 800 c 2,26,-1
 619 300 l 2,27,28
 599 214 599 214 599 140 c 0,29,30
 599 60 599 60 620 0 c 1,31,-1
 250 0 l 1,12,13
EndSplineSet
Validated: 1
EndChar

StartChar: j
Encoding: 106 106 73
Width: 750
GlyphClass: 2
Flags: W
HStem: -430 21G<-84.4135 195> 1080 20G<384 756.5> 1169 381<545.163 750.543>
VStem: 403 356<714.062 1098.2>
DStem2: 100.466 -430 450.466 -430 0.224951 0.97437<509.585 1413.32>
LayerCount: 2
Fore
SplineSet
694 1550 m 0,0,1
 846 1550 846 1550 846 1427 c 0,2,3
 846 1399 846 1399 838 1363 c 0,4,5
 795 1169 795 1169 604 1169 c 0,6,7
 453 1169 453 1169 453 1295 c 0,8,9
 453 1325 453 1325 461 1361 c 0,10,11
 503 1550 503 1550 694 1550 c 0,0,1
384 1100 m 1,12,-1
 754 1100 l 1,13,14
 759 1055 759 1055 759 1008 c 0,15,16
 759 903 759 903 735 800 c 2,17,-1
 619 300 l 2,18,19
 479 -301 479 -301 -89 -430 c 1,20,-1
 -28 -164 l 1,21,22
 193 -30 193 -30 269 300 c 2,23,-1
 385 800 l 2,24,25
 403 878 403 878 403 953 c 0,26,27
 403 1030 403 1030 384 1100 c 1,12,-1
EndSplineSet
Validated: 1
EndChar

StartChar: k
Encoding: 107 107 74
Width: 1402
GlyphClass: 2
Flags: W
HStem: 0 21G<200 561.165 863 1240> 853 267<1026.18 1340> 1490 20G<479 853.5>
VStem: 500 358<1146.84 1508.48> 856 360<1.19397 350.749> 892 357<126.381 386.984> 1104 346<794.319 1017>
DStem2: 199.649 0 549.929 0 0.224951 0.97437<78.8117 169.391 812.603 1405.03>
LayerCount: 2
Fore
SplineSet
200 0 m 1,0,-1
 479 1210 l 2,1,2
 500 1300 500 1300 500 1375 c 128,-1,3
 500 1450 500 1450 479 1510 c 1,4,-1
 849 1510 l 1,5,6
 858 1473 858 1473 858 1424 c 0,7,8
 858 1336 858 1336 829 1210 c 2,9,-1
 715 715 l 1,10,11
 773 841 773 841 882 965 c 0,12,13
 1018 1120 1018 1120 1230 1120 c 0,14,15
 1450 1120 1450 1120 1450 914 c 0,16,17
 1450 858 1450 858 1434 787 c 1,18,-1
 1087 696 l 1,19,20
 1104 770 1104 770 1104 809 c 0,21,22
 1104 853 1104 853 1083 853 c 0,23,24
 1012 853 1012 853 896 638 c 1,25,26
 1249 605 1249 605 1249 380 c 0,27,28
 1249 343 1249 343 1239 300 c 0,29,30
 1216 200 1216 200 1216 124 c 128,-1,31
 1216 48 1216 48 1240 0 c 1,32,-1
 870 0 l 1,33,34
 856 28 856 28 856 81 c 0,35,36
 856 164 856 164 889 300 c 0,37,38
 892 312 892 312 892 323 c 0,39,40
 892 391 892 391 780 412 c 1,41,-1
 550 0 l 1,42,-1
 200 0 l 1,0,-1
EndSplineSet
Validated: 1
EndChar

StartChar: l
Encoding: 108 108 75
Width: 750
GlyphClass: 2
Flags: W
HStem: 0 21G<244 620> 1490 20G<479 853.5>
VStem: 238 360<1.30212 356.875> 500 358<1153.12 1508.5>
DStem2: 199.74 0 549.74 0 0.224951 0.97437<215.834 1405.04>
LayerCount: 2
Fore
SplineSet
250 0 m 1,0,1
 238 31 238 31 238 82 c 0,2,3
 238 166 238 166 269 300 c 2,4,-1
 479 1210 l 2,5,6
 500 1301 500 1301 500 1375 c 0,7,8
 500 1450 500 1450 479 1510 c 1,9,-1
 849 1510 l 1,10,11
 858 1474 858 1474 858 1424 c 0,12,13
 858 1336 858 1336 829 1210 c 2,14,-1
 619 300 l 2,15,16
 598 209 598 209 598 127 c 0,17,18
 598 52 598 52 620 0 c 1,19,-1
 250 0 l 1,0,1
EndSplineSet
Validated: 1
EndChar

StartChar: m
Encoding: 109 109 76
Width: 2086
GlyphClass: 2
Flags: W
HStem: 0 21G<200 554.651 868 1222.65 1583 1956> 820 300<898.956 1218 1570.5 1922> 1080 20G<384 756.5>
VStem: 1580 356<1.72058 382.297> 1705 375<649.906 1003>
DStem2: 200 0 550 0 0.224951 0.97437<78.7329 692.993> 868 0 1218 0 0.224951 0.97437<78.7329 692.993> 1535.74 0 1885.74 0 0.224951 0.97437<229.772 772.049>
LayerCount: 2
Fore
SplineSet
200 0 m 1,0,-1
 385 800 l 2,1,2
 403 878 403 878 403 952 c 0,3,4
 403 1028 403 1028 384 1100 c 1,5,-1
 754 1100 l 1,6,7
 759 1064 759 1064 759 992 c 1,8,9
 924 1120 924 1120 1098 1120 c 0,10,11
 1338 1120 1338 1120 1402 972 c 1,12,13
 1586 1120 1586 1120 1766 1120 c 0,14,15
 2078 1120 2078 1120 2080 886 c 0,16,17
 2080 839 2080 839 2066 779 c 2,18,-1
 1955 300 l 2,19,20
 1936 218 1936 218 1936 141 c 0,21,22
 1936 65 1936 65 1956 0 c 1,23,-1
 1586 0 l 1,24,25
 1580 45 1580 45 1580 94 c 0,26,27
 1580 192 1580 192 1605 300 c 2,28,-1
 1699 705 l 2,29,30
 1705 731 1705 731 1705 754 c 0,31,32
 1705 820 1705 820 1645 820 c 0,33,34
 1409 820 1409 820 1248 129 c 2,35,-1
 1218 0 l 1,36,-1
 868 0 l 1,37,-1
 1031 705 l 2,38,39
 1037 731 1037 731 1037 754 c 0,40,41
 1037 820 1037 820 977 820 c 0,42,43
 741 820 741 820 580 129 c 2,44,-1
 550 0 l 1,45,-1
 200 0 l 1,0,-1
EndSplineSet
Validated: 1
EndChar

StartChar: n
Encoding: 110 110 77
Width: 1418
GlyphClass: 2
Flags: W
HStem: 0 21G<200 554.651 915 1288> 820 300<899.159 1255> 1080 20G<384 756.5>
VStem: 912 356<1.73596 382.297> 1037 375<649.906 1003>
DStem2: 200 0 550 0 0.224951 0.97437<78.7329 706.13> 867.74 0 1217.74 0 0.224951 0.97437<229.772 772.109>
LayerCount: 2
Fore
SplineSet
200 0 m 9,0,-1
 385 800 l 2,1,2
 403 878 403 878 403 952 c 0,3,4
 403 1028 403 1028 384 1100 c 1,5,-1
 754 1100 l 1,6,7
 759 1059 759 1059 759 992 c 1,8,9
 926 1120 926 1120 1098 1120 c 0,10,11
 1412 1120 1412 1120 1412 886 c 0,12,13
 1412 837 1412 837 1398 779 c 2,14,-1
 1287 300 l 2,15,16
 1268 218 1268 218 1268 141 c 0,17,18
 1268 66 1268 66 1288 0 c 1,19,-1
 918 0 l 1,20,21
 912 45 912 45 912 94 c 0,22,23
 912 192 912 192 937 300 c 2,24,-1
 1031 705 l 2,25,26
 1037 733 1037 733 1037 754 c 0,27,28
 1037 820 1037 820 977 820 c 0,29,30
 739 820 739 820 580 129 c 2,31,-1
 550 0 l 1,32,-1
 200 0 l 9,0,-1
EndSplineSet
Validated: 1
EndChar

StartChar: o
Encoding: 111 111 78
Width: 1338
GlyphClass: 2
Flags: W
HStem: -20 274<385 842.785> 846 274<749.215 1207>
VStem: 215 366<104.5 477.203> 1011 366<622.797 995.5>
LayerCount: 2
Fore
SplineSet
638 599 m 2,0,1
 584 363 l 2,2,3
 581 348 581 348 581 336 c 0,4,5
 581 254 581 254 721 254 c 0,6,7
 897 254 897 254 954 501 c 2,8,-1
 1008 737 l 2,9,10
 1011 752 1011 752 1011 764 c 0,11,12
 1011 846 1011 846 871 846 c 0,13,14
 695 846 695 846 638 599 c 2,0,1
289 604 m 2,15,16
 409 1120 409 1120 1037 1120 c 0,17,18
 1377 1120 1377 1120 1377 871 c 0,19,20
 1377 820 1377 820 1363 758 c 2,21,-1
 1303 496 l 2,22,23
 1183 -20 1183 -20 555 -20 c 0,24,25
 215 -20 215 -20 215 229 c 0,26,27
 215 280 215 280 229 342 c 2,28,-1
 289 604 l 2,15,16
EndSplineSet
Validated: 1
EndChar

StartChar: p
Encoding: 112 112 79
Width: 1378
GlyphClass: 2
Flags: W
HStem: -410 21G<105 459.623> -20 285<644.954 888.961> 819 301<901.635 1255.5> 1080 20G<384 756.5>
VStem: 105 350<-410 -60> 1039 374<651.617 1005.5>
DStem2: 105 -410 455 -410 0.224951 0.97437<78.7329 500.569 859.947 1152.52>
LayerCount: 2
Fore
SplineSet
638 380 m 0,0,1
 634 364 634 364 634 350 c 0,2,3
 634 265 634 265 774 265 c 0,4,5
 928 265 928 265 983 500 c 2,6,-1
 1034 717 l 2,7,8
 1039 740 1039 740 1039 758 c 0,9,10
 1039 819 1039 819 977 819 c 0,11,12
 890 819 890 819 783 687 c 0,13,14
 684 565 684 565 638 380 c 0,0,1
384 1100 m 1,15,-1
 754 1100 l 1,16,17
 759 1070 759 1070 759 992 c 1,18,19
 931 1120 931 1120 1098 1120 c 0,20,21
 1413 1120 1413 1120 1413 891 c 0,22,23
 1413 844 1413 844 1400 788 c 2,24,-1
 1332 495 l 2,25,26
 1212 -20 1212 -20 715 -20 c 0,27,28
 626 -20 626 -20 550 1 c 1,29,-1
 455 -410 l 25,30,-1
 105 -410 l 25,31,-1
 384 799 l 2,32,33
 408 903 408 903 408 975 c 0,34,35
 408 1050 408 1050 384 1100 c 1,15,-1
EndSplineSet
Validated: 1
EndChar

StartChar: q
Encoding: 113 113 80
Width: 1378
GlyphClass: 2
Flags: W
HStem: -410 21G<778.5 1153> -20 300<376.5 745.151> 834 286<748.333 1215.5>
VStem: 219 374<94.5 449.078> 774 358<-408.496 -48.3906> 998 375<656.222 1005.5>
DStem2: 733.74 -410 1083.74 -410 0.224951 0.97437<223.417 508.016 904.513 1190.26>
LayerCount: 2
Fore
SplineSet
1153 -410 m 1,0,-1
 783 -410 l 1,1,2
 774 -374 774 -374 774 -324 c 0,3,4
 774 -236 774 -236 803 -110 c 2,5,-1
 848 85 l 1,6,7
 711 -20 711 -20 534 -20 c 0,8,9
 219 -20 219 -20 219 209 c 0,10,11
 219 255 219 255 232 311 c 2,12,-1
 299 604 l 2,13,14
 419 1120 419 1120 1058 1120 c 0,15,16
 1373 1120 1373 1120 1373 891 c 0,17,18
 1373 845 1373 845 1360 789 c 2,19,-1
 1153 -110 l 2,20,21
 1132 -200 1132 -200 1132 -275 c 128,-1,22
 1132 -350 1132 -350 1153 -410 c 1,0,-1
994 721 m 0,23,24
 998 737 998 737 998 751 c 0,25,26
 998 834 998 834 858 834 c 0,27,28
 703 834 703 834 648 599 c 2,29,-1
 598 382 l 2,30,31
 593 359 593 359 593 342 c 0,32,33
 593 280 593 280 655 280 c 0,34,35
 752 280 752 280 849 413 c 0,36,37
 953 556 953 556 994 721 c 0,23,24
EndSplineSet
Validated: 1
EndChar

StartChar: r
Encoding: 114 114 81
Width: 1228
GlyphClass: 2
Flags: W
HStem: 0 21G<200 554.651> 820 300<899.159 1255> 1080 20G<384 756.5>
DStem2: 200 0 550 0 0.224951 0.97437<78.7329 706.13>
LayerCount: 2
Fore
SplineSet
200 0 m 9,0,-1
 385 800 l 2,1,2
 403 878 403 878 403 952 c 0,3,4
 402 1029 402 1029 384 1100 c 1,5,-1
 754 1100 l 1,6,7
 759 1059 759 1059 759 992 c 1,8,9
 926 1120 926 1120 1098 1120 c 0,10,11
 1412 1120 1412 1120 1412 886 c 0,12,13
 1412 837 1412 837 1398 779 c 9,14,-1
 1025 681 l 17,15,16
 1034 721 1034 721 1034 749 c 0,17,18
 1034 820 1034 820 977 820 c 0,19,20
 739 820 739 820 580 129 c 2,21,-1
 550 0 l 1,22,-1
 200 0 l 9,0,-1
EndSplineSet
Validated: 1
EndChar

StartChar: t
Encoding: 116 116 82
Width: 969
GlyphClass: 2
Flags: W
HStem: 0 21G<354 730> 823 277<268.21 500 914 1149> 1490 20G<589 963.5>
VStem: 348 359<1.33313 357.203> 610 358<1139.53 1508.5>
DStem2: 309.74 0 659.74 0 0.224951 0.97437<217.348 844.706 1207.74 1405.01>
LayerCount: 2
Fore
SplineSet
360 0 m 1,0,1
 348 31 348 31 348 82 c 0,2,3
 348 166 348 166 379 300 c 2,4,-1
 500 823 l 1,5,6
 319 823 319 823 184 753 c 1,7,-1
 252 1050 l 1,8,9
 365 1100 365 1100 564 1100 c 1,10,-1
 589 1210 l 2,11,12
 610 1300 610 1300 610 1375 c 128,-1,13
 610 1450 610 1450 589 1510 c 1,14,-1
 959 1510 l 1,15,16
 968 1474 968 1474 968 1424 c 0,17,18
 968 1338 968 1338 939 1210 c 2,19,-1
 914 1100 l 1,20,-1
 1213 1100 l 1,21,-1
 1149 823 l 1,22,-1
 850 823 l 1,23,-1
 729 300 l 2,24,25
 707 204 707 204 707 129 c 128,-1,26
 707 54 707 54 730 0 c 1,27,-1
 360 0 l 1,0,1
EndSplineSet
Validated: 1
EndChar

StartChar: u
Encoding: 117 117 83
Width: 1418
GlyphClass: 2
Flags: W
HStem: -20 300<418 772.557> 0 21G<915.5 1288> 1080 20G<384 757 1117.35 1472>
VStem: 260 375<97 450.094> 404 356<717.703 1098.28>
DStem2: 195.274 -20 545.19 -20 0.224951 0.97437<456.238 998.515> 863.21 -20 1213.43 -20 0.224951 0.97437<521.891 1149.51>
LayerCount: 2
Fore
SplineSet
1288 0 m 1,0,-1
 918 0 l 1,1,2
 913 35 913 35 913 108 c 1,3,4
 746 -20 746 -20 574 -20 c 0,5,6
 262 -20 262 -20 260 214 c 0,7,8
 260 261 260 261 274 321 c 2,9,-1
 385 800 l 2,10,11
 404 882 404 882 404 959 c 0,12,13
 404 1035 404 1035 384 1100 c 1,14,-1
 754 1100 l 1,15,16
 760 1055 760 1055 760 1006 c 0,17,18
 760 908 760 908 735 800 c 2,19,-1
 641 395 l 2,20,21
 635 369 635 369 635 346 c 0,22,23
 635 280 635 280 695 280 c 0,24,25
 931 280 931 280 1092 971 c 2,26,-1
 1122 1100 l 1,27,-1
 1472 1100 l 9,28,-1
 1287 300 l 2,29,30
 1269 222 1269 222 1269 148 c 0,31,32
 1269 72 1269 72 1288 0 c 1,0,-1
EndSplineSet
Validated: 1
EndChar

StartChar: v
Encoding: 118 118 84
Width: 1232
GlyphClass: 2
Flags: W
HStem: 0 21G<358 989> 1080 20G<284 656.5 999.5 1406>
VStem: 262 343<311.656 885.928> 303 356<692.243 1098.28>
LayerCount: 2
Fore
SplineSet
454 0 m 1,0,1
 262 304 262 304 262 597 c 0,2,3
 262 700 262 700 285 800 c 0,4,5
 303 878 303 878 303 951 c 0,6,7
 303 1029 303 1029 284 1100 c 1,8,-1
 654 1100 l 1,9,10
 659 1061 659 1061 659 1009 c 0,11,12
 659 913 659 913 634 800 c 0,13,14
 605 675 605 675 605 555 c 0,15,16
 605 401 605 401 652 252 c 1,17,18
 943 621 943 621 1056 1100 c 1,19,-1
 1406 1100 l 1,20,21
 1249 430 1249 430 729 0 c 9,22,-1
 454 0 l 1,0,1
EndSplineSet
Validated: 1
EndChar

StartChar: w
Encoding: 119 119 85
Width: 2046
GlyphClass: 2
Flags: W
HStem: -20 300<417 775.116 1127.5 1485.71> 1080 20G<384 757 1117.35 1472 1720 2093>
VStem: 260 374<97 450.094> 405 355<717.703 1098.28> 1740 356<723.425 1098.23>
DStem2: 195.274 -20 545.19 -20 0.224951 0.97437<454.949 1000.75> 863.21 -20 1213.19 -20 0.224951 0.97437<521.891 1149.51>
LayerCount: 2
Fore
SplineSet
384 1100 m 1,0,-1
 754 1100 l 1,1,2
 760 1055 760 1055 760 1006 c 0,3,4
 760 908 760 908 735 800 c 2,5,-1
 641 395 l 2,6,7
 634 365 634 365 634 345 c 0,8,9
 634 280 634 280 695 280 c 0,10,11
 931 280 931 280 1092 971 c 2,12,-1
 1122 1100 l 1,13,-1
 1472 1100 l 1,14,-1
 1309 395 l 2,15,16
 1302 365 1302 365 1302 345 c 0,17,18
 1302 280 1302 280 1363 280 c 0,19,20
 1603 280 1603 280 1721 800 c 0,21,22
 1740 884 1740 884 1740 959 c 0,23,24
 1740 1033 1740 1033 1720 1100 c 1,25,-1
 2090 1100 l 1,26,27
 2096 1054 2096 1054 2096 1006 c 0,28,29
 2096 910 2096 910 2071 800 c 0,30,31
 1881 -20 1881 -20 1242 -20 c 0,32,33
 1013 -20 1013 -20 945 136 c 1,34,35
 770 -20 770 -20 574 -20 c 0,36,37
 260 -20 260 -20 260 214 c 0,38,39
 260 261 260 261 274 321 c 2,40,-1
 385 800 l 2,41,42
 405 886 405 886 405 961 c 0,43,44
 405 1035 405 1035 384 1100 c 1,0,-1
EndSplineSet
Validated: 1
EndChar

StartChar: x
Encoding: 120 120 86
Width: 1229
GlyphClass: 2
Flags: W
HStem: 0 21G<100 476 766 1139> 1080 20G<344 716.5 1005.5 1382>
VStem: 337 357<727.855 948.718> 363 356<761.109 1098.25> 763 357<1.89099 354.671> 790 359<151.252 394.992> 1032 350<750 1100>
LayerCount: 2
Fore
SplineSet
100 0 m 17,0,1
 173 316 173 316 472 513 c 1,2,3
 337 599 337 599 337 732 c 0,4,5
 337 765 337 765 345 800 c 0,6,7
 363 878 363 878 363 951 c 0,8,9
 363 1028 363 1028 344 1100 c 1,10,-1
 714 1100 l 1,11,12
 719 1060 719 1060 719 1007 c 0,13,14
 719 924 719 924 695 800 c 0,15,16
 694 795 694 795 694 789 c 0,17,18
 694 752 694 752 757 712 c 1,19,20
 979 871 979 871 1032 1100 c 9,21,-1
 1382 1100 l 17,22,23
 1313 802 1313 802 1024 604 c 1,24,25
 1149 531 1149 531 1149 391 c 0,26,27
 1149 348 1149 348 1138 300 c 0,28,29
 1120 221 1120 221 1120 149 c 0,30,31
 1120 73 1120 73 1139 0 c 1,32,-1
 769 0 l 1,33,34
 763 48 763 48 763 96 c 0,35,36
 763 175 763 175 788 300 c 0,37,38
 790 310 790 310 790 320 c 0,39,40
 790 365 790 365 736 402 c 1,41,42
 502 225 502 225 450 0 c 9,43,-1
 100 0 l 17,0,1
EndSplineSet
Validated: 1
EndChar

StartChar: y
Encoding: 121 121 87
Width: 1418
GlyphClass: 2
Flags: W
HStem: -430 257<383.952 709.508> -20 300<417 759.833> 1080 20G<384 757 1117.35 1472>
VStem: 260 375<97 450.094> 405 355<717.703 1098.26>
DStem2: 100.618 -430 450.534 -430 0.224951 0.97437<877.022 1421.53> 768.554 -430 1118.61 -430 0.224951 0.97437<942.676 1570.29>
LayerCount: 2
Fore
SplineSet
384 1100 m 1,0,-1
 754 1100 l 1,1,2
 760 1055 760 1055 760 1006 c 0,3,4
 760 908 760 908 735 800 c 2,5,-1
 641 395 l 2,6,7
 635 369 635 369 635 346 c 0,8,9
 635 280 635 280 695 280 c 0,10,11
 931 280 931 280 1092 971 c 2,12,-1
 1122 1100 l 1,13,-1
 1472 1100 l 1,14,-1
 1313 412 l 2,15,16
 1118 -430 1118 -430 480 -430 c 0,17,18
 220 -430 220 -430 172 -220 c 9,19,-1
 538 -122 l 17,20,21
 546 -173 546 -173 590 -173 c 0,22,23
 753 -173 753 -173 873 96 c 1,24,25
 731 -20 731 -20 574 -20 c 0,26,27
 260 -20 260 -20 260 214 c 0,28,29
 260 261 260 261 274 321 c 2,30,-1
 385 800 l 2,31,32
 405 886 405 886 405 961 c 0,33,34
 405 1034 405 1034 384 1100 c 1,0,-1
EndSplineSet
Validated: 1
EndChar

StartChar: z
Encoding: 122 122 88
Width: 1118
GlyphClass: 2
Flags: W
HStem: 0 277<567 1033.66> 823 277<388.742 783>
DStem2: 144 277 567 277 0.760264 0.649615<321.591 840.498>
LayerCount: 2
Fore
SplineSet
80 0 m 1,0,-1
 144 277 l 1,1,-1
 783 823 l 1,2,-1
 619 823 l 2,3,4
 440 823 440 823 303 753 c 1,5,-1
 371 1050 l 1,6,7
 512 1100 512 1100 683 1100 c 2,8,-1
 1267 1100 l 1,9,-1
 1203 823 l 1,10,-1
 567 277 l 1,11,-1
 802 277 l 2,12,13
 985 277 985 277 1118 347 c 1,14,-1
 1050 50 l 1,15,16
 921 0 921 0 738 0 c 2,17,-1
 80 0 l 1,0,-1
EndSplineSet
Validated: 1
EndChar

StartChar: braceleft
Encoding: 123 123 89
Width: 988
GlyphClass: 2
Flags: W
HStem: -288 257<744.266 872> 1561 257<1101.86 1298>
VStem: 327 354<28.9038 332> 413 348<332 686.191>
DStem2: 228.642 -288 573.642 -288 0.224951 0.97437<522.719 855.891 1258.35 1891.23>
LayerCount: 2
Fore
SplineSet
1358 1818 m 9,0,1
 1298 1561 l 17,2,3
 1000 1561 1000 1561 943 1314 c 2,4,-1
 884 1058 l 2,5,6
 841 869 841 869 680 767 c 1,7,8
 761 692 761 692 761 572 c 0,9,10
 761 526 761 526 749 472 c 2,11,-1
 690 216 l 2,12,13
 681 176 681 176 681 143 c 0,14,15
 681 -30 681 -30 931 -31 c 9,16,-1
 872 -288 l 17,17,18
 327 -288 327 -288 327 74 c 0,19,20
 327 139 327 139 345 216 c 2,21,-1
 404 472 l 2,22,23
 413 512 413 512 413 549 c 0,24,25
 413 687 413 687 277 766 c 1,26,27
 495 868 495 868 539 1058 c 2,28,-1
 598 1314 l 2,29,30
 715 1818 715 1818 1358 1818 c 9,0,1
EndSplineSet
Validated: 1
EndChar

StartChar: bar
Encoding: 124 124 90
Width: 810
GlyphClass: 2
Flags: W
VStem: 207 310<-186 124> 641 310<1385 1695>
DStem2: 207 -186 517 -186 0.224951 0.97437<69.7348 1930.42>
LayerCount: 2
Fore
SplineSet
207 -186 m 1,0,-1
 641 1695 l 1,1,-1
 951 1695 l 1,2,-1
 517 -186 l 1,3,-1
 207 -186 l 1,0,-1
EndSplineSet
Validated: 1
EndChar

StartChar: braceright
Encoding: 125 125 91
Width: 988
GlyphClass: 2
Flags: W
HStem: -288 257<43 240.095> 1561 257<470 597.5>
VStem: 580 348<846.928 1198> 660 354<1198 1501.78>
DStem2: 281.642 -288 626.642 -288 0.224951 0.97437<359.56 983.027 1385.86 1716.17>
LayerCount: 2
Fore
SplineSet
470 1818 m 17,0,1
 1014 1818 1014 1818 1014 1457 c 0,2,3
 1014 1392 1014 1392 996 1314 c 2,4,-1
 937 1058 l 2,5,6
 928 1019 928 1019 928 984 c 0,7,8
 928 847 928 847 1065 766 c 1,9,10
 847 667 847 667 802 472 c 2,11,-1
 743 216 l 2,12,13
 627 -288 627 -288 -16 -288 c 9,14,-1
 43 -31 l 17,15,16
 341 -31 341 -31 398 216 c 2,17,-1
 457 472 l 2,18,19
 501 663 501 663 662 767 c 1,20,21
 580 841 580 841 580 960 c 0,22,23
 580 1006 580 1006 592 1058 c 2,24,-1
 651 1314 l 2,25,26
 660 1354 660 1354 660 1387 c 0,27,28
 660 1561 660 1561 410 1561 c 9,29,-1
 470 1818 l 17,0,1
EndSplineSet
Validated: 1
EndChar

StartChar: asciitilde
Encoding: 126 126 92
Width: 1378
GlyphClass: 2
Flags: W
HStem: 514 296<933.905 1216> 723 296<516 798.024>
LayerCount: 2
Fore
SplineSet
301 612 m 1,0,1
 395 1019 395 1019 637 1019 c 0,2,3
 765 1019 765 1019 853 931 c 0,4,5
 974 810 974 810 1002 810 c 0,6,7
 1055 810 1055 810 1103 1019 c 1,8,-1
 1431 921 l 1,9,10
 1337 514 1337 514 1095 514 c 0,11,12
 959 514 959 514 879 602 c 0,13,14
 769 723 769 723 730 723 c 0,15,16
 677 723 677 723 629 514 c 1,17,-1
 301 612 l 1,0,1
EndSplineSet
Validated: 1
EndChar

StartChar: exclamdown
Encoding: 161 161 94
Width: 892
GlyphClass: 2
Flags: W
HStem: 0 21G<269 627.743> 1124 406<646.507 859.493>
LayerCount: 2
Fore
SplineSet
954 1328 m 0,0,1
 907 1124 907 1124 706 1124 c 0,2,3
 543 1124 543 1124 543 1257 c 0,4,5
 543 1289 543 1289 552 1327 c 0,6,7
 600 1530 600 1530 800 1530 c 0,8,9
 963 1530 963 1530 963 1398 c 0,10,11
 963 1368 963 1368 954 1328 c 0,0,1
813 1010 m 1,12,-1
 624 0 l 1,13,-1
 269 0 l 1,14,-1
 548 1010 l 1,15,-1
 813 1010 l 1,12,-1
EndSplineSet
Validated: 1
EndChar

StartChar: cent
Encoding: 162 162 95
Width: 1338
GlyphClass: 2
Flags: W
VStem: 215 365<105.5 477.203>
DStem2: 527 -188 725 -188 0.224951 0.97437<44.5403 172.242 518.544 1026.11 1386.95 1508.58>
LayerCount: 2
Fore
SplineSet
1303 496 m 1,0,1
 1205 74 1205 74 767 -3 c 1,2,-1
 725 -188 l 1,3,-1
 527 -188 l 1,4,-1
 565 -20 l 17,5,6
 215 -20 215 -20 215 231 c 0,7,8
 215 282 215 282 229 342 c 2,9,-1
 289 604 l 2,10,11
 387 1026 387 1026 825 1103 c 1,12,-1
 866 1282 l 1,13,-1
 1064 1282 l 1,14,-1
 1027 1120 l 17,15,16
 1377 1120 1377 1120 1377 868 c 0,17,18
 1377 818 1377 818 1363 758 c 1,19,-1
 990 660 l 1,20,21
 999 699 999 699 999 730 c 0,22,23
 999 795 999 795 958 824 c 1,24,-1
 831 274 l 1,25,26
 909 307 909 307 930 398 c 1,27,-1
 1303 496 l 1,0,1
632 267 m 1,28,-1
 757 812 l 1,29,30
 674 755 674 755 638 599 c 2,31,-1
 584 363 l 2,32,33
 580 346 580 346 580 334 c 0,34,35
 580 286 580 286 632 267 c 1,28,-1
EndSplineSet
Validated: 1
EndChar

StartChar: sterling
Encoding: 163 163 96
Width: 1429
GlyphClass: 2
Flags: W
HStem: 0 277<634 1273.84> 578 277<767 997.844> 1252 278<908.385 1362.5>
VStem: 1135 378<1098.04 1394.5>
DStem2: 219.74 0 570.049 0 0.224951 0.97437<363.089 594.362 956.193 1279.89>
LayerCount: 2
Fore
SplineSet
150 0 m 1,0,1
 247 115 247 115 289 300 c 2,2,-1
 354 579 l 17,3,4
 296 570 296 570 236 534 c 1,5,-1
 302 819 l 1,6,7
 360 848 360 848 417 855 c 1,8,-1
 448 987 l 2,9,10
 573 1530 573 1530 1212 1530 c 0,11,12
 1513 1530 1513 1530 1513 1259 c 0,13,14
 1512 1188 1512 1188 1492 1099 c 1,15,-1
 1120 1003 l 1,16,17
 1135 1071 1135 1071 1135 1120 c 0,18,19
 1135 1252 1135 1252 1026 1252 c 0,20,21
 859 1252 859 1252 799 992 c 2,22,-1
 767 855 l 1,23,24
 959 855 959 855 1084 925 c 1,25,-1
 1015 628 l 1,26,27
 879 578 879 578 703 578 c 1,28,-1
 634 277 l 1,29,-1
 1043 277 l 2,30,31
 1235 277 1235 277 1359 347 c 1,32,-1
 1291 50 l 1,33,34
 1155 0 1155 0 979 0 c 2,35,-1
 150 0 l 1,0,1
EndSplineSet
Validated: 1
EndChar

StartChar: currency
Encoding: 164 164 97
Width: 1647
GlyphClass: 2
Flags: W
HStem: 302 286<738 1081.56> 934 286<929.552 1270>
VStem: 457 358<539.5 775.813> 1182 362<751.585 984.5>
DStem2: 213 274 364 78 0.776785 0.629766<0 352.556 1476.65 1816.76> 674 1422 433 1226 0.610976 -0.791649<7.91788 324.178 1121.22 1450.14>
LayerCount: 2
Fore
SplineSet
820 733 m 0,0,1
 815 710 815 710 815 691 c 0,2,3
 815 588 815 588 965 588 c 0,4,5
 1126 588 1126 588 1176 788 c 16,6,7
 1182 812 1182 812 1182 832 c 0,8,9
 1182 934 1182 934 1037 934 c 0,10,11
 864 934 864 934 820 733 c 0,0,1
674 1422 m 1,12,-1
 876 1160 l 1,13,14
 1069 1220 1069 1220 1237 1220 c 0,15,16
 1303 1220 1303 1220 1360 1204 c 1,17,-1
 1629 1422 l 1,18,-1
 1780 1226 l 1,19,-1
 1538 1030 l 1,20,21
 1544 1002 1544 1002 1544 967 c 0,22,23
 1544 916 1544 916 1529 846 c 8,24,25
 1492 686 1492 686 1366 525 c 1,26,-1
 1560 274 l 1,27,-1
 1319 78 l 1,28,-1
 1105 355 l 1,29,30
 960 302 960 302 765 302 c 0,31,32
 711 302 711 302 656 315 c 1,33,-1
 364 78 l 1,34,-1
 213 274 l 1,35,-1
 469 482 l 1,36,37
 457 517 457 517 457 562 c 0,38,39
 457 614 457 614 471 672 c 0,40,41
 512 858 512 858 620 983 c 1,42,-1
 433 1226 l 1,43,-1
 674 1422 l 1,12,-1
EndSplineSet
Validated: 1
EndChar

StartChar: yen
Encoding: 165 165 98
Width: 1723
GlyphClass: 2
Flags: W
HStem: 0 21G<687 1041.62> 394 277<402 714 1320 1568> 1490 20G<460 856.558 1555.35 1961>
VStem: 460 391<1119 1510> 687 350<0 350> 1570 391<1119 1510>
LayerCount: 2
Fore
SplineSet
687 0 m 1,0,-1
 778 394 l 1,1,-1
 338 394 l 1,2,-1
 402 671 l 1,3,-1
 714 671 l 1,4,-1
 661 848 l 1,5,-1
 443 848 l 1,6,-1
 507 1125 l 1,7,-1
 577 1125 l 1,8,-1
 460 1510 l 1,9,-1
 851 1510 l 1,10,-1
 958 1125 l 1,11,-1
 1288 1125 l 1,12,-1
 1570 1510 l 1,13,-1
 1961 1510 l 1,14,-1
 1667 1125 l 1,15,-1
 1737 1125 l 1,16,-1
 1673 848 l 1,17,-1
 1455 848 l 1,18,-1
 1320 671 l 1,19,-1
 1632 671 l 1,20,-1
 1568 394 l 1,21,-1
 1128 394 l 1,22,-1
 1037 0 l 1,23,-1
 687 0 l 1,0,-1
1084 848 m 1,24,-1
 1036 848 l 1,25,-1
 1049 800 l 1,26,-1
 1084 848 l 1,24,-1
EndSplineSet
Validated: 1
EndChar

StartChar: brokenbar
Encoding: 166 166 99
Width: 810
GlyphClass: 2
Flags: W
VStem: 207 310<-186 124> 409 310<377 687> 440 310<822 1132> 641 310<1385 1695>
DStem2: 207 -186 517 -186 0.224951 0.97437<69.7348 896.065 1104.31 1930.42>
LayerCount: 2
Fore
SplineSet
207 -186 m 1,0,-1
 409 687 l 1,1,-1
 719 687 l 1,2,-1
 517 -186 l 1,3,-1
 207 -186 l 1,0,-1
440 822 m 1,4,-1
 641 1695 l 1,5,-1
 951 1695 l 1,6,-1
 750 822 l 1,7,-1
 440 822 l 1,4,-1
EndSplineSet
Validated: 1
EndChar

StartChar: section
Encoding: 167 167 100
Width: 1318
GlyphClass: 2
Flags: W
HStem: -20 274<252 300.482 434.329 852.047> 1256 274<814.953 1232.67 1366.52 1415>
VStem: 305 360<533.5 795.182> 449 357<1007 1237.48> 861 357<272.518 503> 1002 360<714.818 976.5>
LayerCount: 2
Fore
SplineSet
252 266 m 1,0,1
 311 281 311 281 624 364 c 1,2,3
 620 346 620 346 620 330 c 0,4,5
 620 254 620 254 723 254 c 0,6,7
 861 254 861 254 861 331 c 0,8,9
 861 379 861 379 740 389 c 0,10,11
 305 424 305 424 305 643 c 0,12,13
 305 673 305 673 313 705 c 8,14,15
 341 816 341 816 410 906 c 9,16,-1
 738 820 l 17,17,18
 665 763 665 763 665 714 c 0,19,20
 665 664 665 664 803 647 c 0,21,22
 1218 596 1218 596 1218 410 c 0,23,24
 1218 390 1218 390 1213 367 c 8,25,26
 1129 -20 1129 -20 525 -20 c 0,27,28
 243 -20 243 -20 243 180 c 0,29,30
 243 217 243 217 252 266 c 1,0,1
1415 1244 m 1,31,32
 1356 1229 1356 1229 1043 1146 c 1,33,34
 1047 1164 1047 1164 1047 1180 c 0,35,36
 1047 1256 1047 1256 944 1256 c 0,37,38
 806 1256 806 1256 806 1179 c 0,39,40
 806 1131 806 1131 927 1121 c 0,41,42
 1362 1086 1362 1086 1362 867 c 0,43,44
 1362 837 1362 837 1354 805 c 8,45,46
 1326 694 1326 694 1257 604 c 9,47,-1
 929 690 l 17,48,49
 1002 747 1002 747 1002 796 c 0,50,51
 1002 846 1002 846 864 863 c 0,52,53
 449 914 449 914 449 1100 c 0,54,55
 449 1120 449 1120 454 1143 c 8,56,57
 538 1530 538 1530 1142 1530 c 0,58,59
 1424 1530 1424 1530 1424 1330 c 0,60,61
 1424 1293 1424 1293 1415 1244 c 1,31,32
EndSplineSet
Validated: 1
EndChar

StartChar: dieresis
Encoding: 168 168 101
Width: 1021
GlyphClass: 2
Flags: W
HStem: 1195 335<532.608 723.038 923.61 1112.43>
VStem: 457 344<1276.24 1450.24> 850 336<1269.09 1451.54>
LayerCount: 2
Fore
SplineSet
1061 1530 m 0,0,1
 1193 1530 1193 1530 1193 1423 c 0,2,3
 1194 1398 1194 1398 1186 1366 c 0,4,5
 1143 1196 1143 1196 982 1195 c 0,6,7
 980 1195 l 0,8,9
 850 1195 850 1195 850 1305 c 0,10,11
 851 1332 851 1332 858 1364 c 0,12,13
 894 1530 894 1530 1061 1530 c 0,0,1
668 1530 m 0,14,15
 801 1530 801 1530 801 1422 c 0,16,17
 801 1397 801 1397 794 1366 c 0,18,19
 755 1195 755 1195 589 1195 c 0,20,21
 457 1195 457 1195 457 1305 c 0,22,23
 457 1332 457 1332 465 1365 c 0,24,25
 505 1530 505 1530 668 1530 c 0,14,15
EndSplineSet
Validated: 1
EndChar

StartChar: copyright
Encoding: 169 169 102
Width: 1598
GlyphClass: 2
Flags: W
HStem: 77 122<653.382 1065.82> 306 263<681 990.223> 962 262<957.304 1258> 1309 122<885.491 1308.12>
VStem: 304 131<421.25 838.332> 1509 127<653.995 1087.13>
DStem2: 444.487 77 744.487 77 0.224951 0.97437<582.95 979.935>
LayerCount: 2
Fore
SplineSet
1100 1309 m 0,0,1
 886 1309 886 1309 695 1145 c 24,2,3
 505 982 505 982 452 754 c 0,4,5
 435 681 435 681 435 615 c 0,6,7
 435 473 435 473 515 363 c 8,8,9
 634 199 634 199 844 199 c 0,10,11
 1071 199 1071 199 1258 366 c 0,12,13
 1450 538 1450 538 1495 752 c 0,14,15
 1509 819 1509 819 1509 878 c 0,16,17
 1509 1023 1509 1023 1433 1149 c 0,18,19
 1338 1309 1338 1309 1100 1309 c 0,0,1
1325 701 m 17,20,21
 1234 306 1234 306 809 306 c 0,22,23
 553 306 553 306 553 504 c 0,24,25
 553 547 553 547 565 599 c 2,26,-1
 616 820 l 2,27,28
 710 1224 710 1224 1131 1224 c 0,29,30
 1385 1224 1385 1224 1385 1013 c 0,31,32
 1385 968 1385 968 1374 914 c 9,33,-1
 1062 872 l 17,34,35
 1067 894 1067 894 1067 911 c 0,36,37
 1067 962 1067 962 1020 962 c 0,38,39
 949 962 949 962 916 820 c 2,40,-1
 865 599 l 2,41,42
 858 569 858 569 915 569 c 0,43,44
 990 569 990 569 1015 675 c 9,45,-1
 1325 701 l 17,20,21
1128 1431 m 0,46,47
 1418 1431 1418 1431 1551 1226 c 0,48,49
 1636 1095 1636 1095 1636 913 c 0,50,51
 1636 839 1636 839 1622 754 c 0,52,53
 1574 468 1574 468 1332 267 c 0,54,55
 1103 77 1103 77 816 77 c 0,56,57
 552 77 552 77 403 278 c 0,58,59
 304 412 304 412 304 588 c 0,60,61
 304 666 304 666 324 754 c 0,62,63
 388 1034 388 1034 623 1230 c 0,64,65
 864 1431 864 1431 1128 1431 c 0,46,47
EndSplineSet
Validated: 1
EndChar

StartChar: ordfeminine
Encoding: 170 170 103
Width: 1333
GlyphClass: 2
Flags: W
HStem: 621 277<357 1326> 918 142<683.503 879.458> 1358 172<898.403 1093.02>
VStem: 569 229<964.5 1098.85>
LayerCount: 2
Fore
SplineSet
907 1156 m 1,0,1
 863 1149 863 1149 833 1130 c 0,2,3
 798 1108 798 1108 798 1077 c 0,4,5
 798 1060 798 1060 821 1060 c 0,6,7
 847 1060 847 1060 888 1115 c 0,8,9
 903 1135 903 1135 907 1156 c 1,0,1
1172 927 m 1,10,-1
 927 927 l 1,11,-1
 918 962 l 1,12,13
 854 918 854 918 761 918 c 0,14,15
 569 918 569 918 569 1011 c 0,16,17
 569 1023 569 1023 572 1036 c 0,18,19
 613 1213 613 1213 969 1299 c 1,20,21
 983 1358 983 1358 952 1358 c 0,22,23
 909 1358 909 1358 863 1311 c 9,24,-1
 705 1363 l 17,25,26
 846 1530 846 1530 1032 1530 c 0,27,28
 1214 1530 1214 1530 1214 1393 c 0,29,30
 1214 1364 1214 1364 1206 1330 c 2,31,-1
 1147 1076 l 2,32,33
 1139 1042 1139 1042 1139 1013 c 0,34,35
 1139 955 1139 955 1172 927 c 1,10,-1
1326 621 m 1,36,-1
 293 621 l 1,37,-1
 357 898 l 1,38,-1
 1390 898 l 1,39,-1
 1326 621 l 1,36,-1
EndSplineSet
Validated: 1
EndChar

StartChar: guillemotleft
Encoding: 171 171 104
Width: 1609
GlyphClass: 2
Flags: W
DStem2: 349 864 657 783 0.788214 0.615402<192.922 736.534> 935 864 1243 783 0.788214 0.615402<192.922 736.534>
LayerCount: 2
Fore
SplineSet
1756 1505 m 1,0,-1
 1668 1122 l 1,1,-1
 1243 783 l 1,2,-1
 1514 456 l 1,3,-1
 1410 5 l 1,4,-1
 885 645 l 1,5,-1
 935 864 l 1,6,-1
 1756 1505 l 1,0,-1
1170 1505 m 1,7,-1
 1082 1122 l 1,8,-1
 657 783 l 1,9,-1
 928 456 l 1,10,-1
 824 5 l 1,11,-1
 299 645 l 1,12,-1
 349 864 l 1,13,-1
 1170 1505 l 1,7,-1
EndSplineSet
Validated: 1
EndChar

StartChar: logicalnot
Encoding: 172 172 105
Width: 1333
GlyphClass: 2
Flags: W
HStem: 621 277<357 1026>
LayerCount: 2
Fore
SplineSet
357 898 m 1,0,-1
 1390 898 l 1,1,-1
 1266 361 l 1,2,-1
 966 361 l 1,3,-1
 1026 621 l 1,4,-1
 293 621 l 1,5,-1
 357 898 l 1,0,-1
EndSplineSet
Validated: 1
EndChar

StartChar: uni00AD
Encoding: 173 173 106
Width: 1333
GlyphClass: 2
Flags: W
HStem: 621 277<357 1326>
LayerCount: 2
Fore
SplineSet
357 898 m 1,0,-1
 1390 898 l 1,1,-1
 1326 621 l 1,2,-1
 293 621 l 1,3,-1
 357 898 l 1,0,-1
EndSplineSet
Validated: 1
EndChar

StartChar: registered
Encoding: 174 174 107
Width: 1601
GlyphClass: 2
Flags: W
HStem: 77 122<652.994 1065.77> 1309 122<886.639 1307.87>
VStem: 304 131<421.438 839.674> 933 305<362.491 557.625> 1060 311<828.502 1111.5> 1509 127<651.926 1087.13>
DStem2: 484.821 77 787.363 77 0.224951 0.97437<288.713 561.842 781.38 959.918>
LayerCount: 2
Fore
SplineSet
1054 888 m 0,0,1
 1060 903 1060 903 1060 921 c 0,2,3
 1060 946 1060 946 1001 946 c 2,4,-1
 988 946 l 1,5,-1
 948 772 l 1,6,-1
 955 772 l 2,7,8
 1007 772 1007 772 1054 888 c 0,0,1
1128 1431 m 0,9,10
 1418 1431 1418 1431 1551 1226 c 0,11,12
 1636 1095 1636 1095 1636 913 c 0,13,14
 1636 839 1636 839 1622 754 c 0,15,16
 1574 468 1574 468 1332 267 c 0,17,18
 1103 77 1103 77 816 77 c 0,19,20
 552 77 552 77 403 278 c 0,21,22
 304 412 304 412 304 588 c 0,23,24
 304 666 304 666 324 754 c 0,25,26
 388 1034 388 1034 623 1230 c 0,27,28
 864 1431 864 1431 1128 1431 c 0,9,10
1162 293 m 1,29,-1
 947 292 l 1,30,31
 933 339 933 339 933 398 c 0,32,33
 933 474 933 474 953 554 c 2,34,-1
 954 558 l 1,35,-1
 899 558 l 1,36,-1
 837 292 l 1,37,-1
 579 292 l 1,38,39
 686 199 686 199 844 199 c 0,40,41
 1014 199 1014 199 1162 293 c 1,29,-1
1253 361 m 1,42,43
 1449 533 1449 533 1495 752 c 0,44,45
 1509 819 1509 819 1509 878 c 0,46,47
 1509 1022 1509 1022 1433 1149 c 0,48,49
 1337 1309 1337 1309 1100 1309 c 0,50,51
 934 1309 934 1309 781 1210 c 1,52,-1
 1114 1210 l 2,53,54
 1371 1210 1371 1210 1371 1013 c 0,55,56
 1371 969 1371 969 1359 917 c 0,57,58
 1324 776 1324 776 1212 688 c 1,59,60
 1254 663 1254 663 1254 591 c 0,61,62
 1254 556 1254 556 1243 505 c 0,63,64
 1238 482 1238 482 1238 458 c 0,65,66
 1238 415 1238 415 1253 361 c 1,42,43
703 1152 m 1,67,68
 506 990 506 990 452 754 c 0,69,70
 435 680 435 680 435 615 c 0,71,72
 435 474 435 474 515 363 c 0,73,74
 528 345 528 345 543 329 c 1,75,-1
 692 960 l 2,76,77
 709 1032 709 1032 709 1101 c 0,78,79
 709 1129 709 1129 703 1152 c 1,67,68
EndSplineSet
Validated: 1
EndChar

StartChar: macron
Encoding: 175 175 108
Width: 1333
GlyphClass: 2
Flags: W
HStem: 1233 277<499 1468>
LayerCount: 2
Fore
SplineSet
499 1510 m 1,0,-1
 1532 1510 l 1,1,-1
 1468 1233 l 1,2,-1
 435 1233 l 1,3,-1
 499 1510 l 1,0,-1
EndSplineSet
Validated: 1
EndChar

StartChar: degree
Encoding: 176 176 109
Width: 1045
GlyphClass: 2
Flags: W
HStem: 785 234<664.628 866.273> 1286 244<704.47 906.336>
VStem: 401 252<907.14 1234.98> 918 260<1069.67 1407>
LayerCount: 2
Fore
SplineSet
659 1153 m 0,0,1
 653 1127 653 1127 653 1106 c 0,2,3
 653 1019 653 1019 755 1019 c 0,4,5
 881 1019 881 1019 912 1153 c 0,6,7
 918 1178 918 1178 918 1200 c 0,8,9
 918 1286 918 1286 816 1286 c 0,10,11
 690 1286 690 1286 659 1153 c 0,0,1
417 1156 m 0,12,13
 503 1530 503 1530 875 1530 c 0,14,15
 1178 1530 1178 1530 1178 1284 c 0,16,17
 1178 1228 1178 1228 1162 1158 c 0,18,19
 1077 785 1077 785 705 785 c 0,20,21
 401 785 401 785 401 1031 c 0,22,23
 401 1085 401 1085 417 1156 c 0,12,13
EndSplineSet
Validated: 1
EndChar

StartChar: plusminus
Encoding: 177 177 110
Width: 1333
GlyphClass: 2
Flags: W
HStem: 94 277<236 1205> 812 277<401 715 1056 1370>
VStem: 628 277<434 711> 867 277<1190 1467>
DStem2: 549.505 94 826.505 94 0.224951 0.97437<411.255 736.826 1083.43 1409.23>
LayerCount: 2
Fore
SplineSet
337 812 m 1,0,-1
 401 1089 l 1,1,-1
 779 1089 l 1,2,-1
 867 1467 l 1,3,-1
 1144 1467 l 1,4,-1
 1056 1089 l 1,5,-1
 1434 1089 l 1,6,-1
 1370 812 l 1,7,-1
 992 812 l 1,8,-1
 905 434 l 1,9,-1
 628 434 l 1,10,-1
 715 812 l 1,11,-1
 337 812 l 1,0,-1
1205 94 m 1,12,-1
 172 94 l 1,13,-1
 236 371 l 1,14,-1
 1269 371 l 1,15,-1
 1205 94 l 1,12,-1
EndSplineSet
Validated: 1
EndChar

StartChar: uni00B2
Encoding: 178 178 111
Width: 1004
GlyphClass: 2
Flags: W
HStem: 715 225<678 1011.2> 1298 232<567.793 835.987>
VStem: 836 317<1234.43 1447.5>
LayerCount: 2
Fore
SplineSet
315 715 m 17,0,1
 417 1161 417 1161 736 1187 c 0,2,3
 836 1195 836 1195 836 1266 c 0,4,5
 836 1298 836 1298 781 1298 c 2,6,-1
 764 1298 l 2,7,8
 639 1298 639 1298 490 1228 c 1,9,-1
 549 1480 l 1,10,11
 699 1530 699 1530 860 1530 c 2,12,-1
 884 1530 l 2,13,14
 1153 1530 1153 1530 1153 1365 c 0,15,16
 1153 1338 1153 1338 1146 1306 c 8,17,18
 1086 1030 1086 1030 731 1020 c 0,19,20
 696 1019 696 1019 678 940 c 9,21,-1
 771 940 l 2,22,23
 954 940 954 940 1087 1010 c 1,24,-1
 1030 765 l 1,25,26
 880 715 880 715 718 715 c 2,27,-1
 315 715 l 17,0,1
EndSplineSet
Validated: 1
EndChar

StartChar: uni00B3
Encoding: 179 179 112
Width: 1020
GlyphClass: 2
Flags: W
HStem: 705 221<414.758 427.256 526.594 804.875> 1046 163<567 817.62> 1310 220<601.676 836.987>
VStem: 361 752<705 901> 818 295<943.488 1101> 837 300<1268.48 1458.5>
LayerCount: 2
Fore
SplineSet
367 940 m 9,0,-1
 636 990 l 17,1,2
 638 926 638 926 699 926 c 0,3,4
 818 926 818 926 818 1018 c 0,5,6
 818 1046 818 1046 726 1046 c 2,7,-1
 529 1046 l 1,8,-1
 567 1209 l 1,9,-1
 592 1209 l 2,10,11
 837 1209 837 1209 837 1284 c 0,12,13
 837 1310 837 1310 784 1310 c 2,14,-1
 769 1310 l 2,15,16
 663 1310 663 1310 544 1261 c 1,17,-1
 599 1497 l 1,18,19
 684 1530 684 1530 850 1530 c 2,20,-1
 872 1530 l 2,21,22
 1137 1530 1137 1530 1137 1387 c 0,23,24
 1137 1365 1137 1365 1131 1342 c 8,25,26
 1115 1280 1115 1280 1046 1179 c 1,27,28
 1113 1136 1113 1136 1113 1066 c 0,29,30
 1113 1046 1113 1046 1108 1021 c 0,31,32
 1046 705 1046 705 588 705 c 0,33,34
 362 705 362 705 361 869 c 0,35,36
 361 901 361 901 367 940 c 9,0,-1
EndSplineSet
Validated: 1
EndChar

StartChar: acute
Encoding: 180 180 113
Width: 1004
GlyphClass: 2
Flags: W
HStem: 1510 20G<924.595 962.385>
LayerCount: 2
Fore
SplineSet
546 825 m 1,0,-1
 388 1031 l 1,1,-1
 947 1530 l 1,2,-1
 1147 1270 l 1,3,-1
 546 825 l 1,0,-1
EndSplineSet
Validated: 1
EndChar

StartChar: uni00B5
Encoding: 181 181 114
Width: 1418
GlyphClass: 2
Flags: W
HStem: -410 21G<105 459.615> -20 300<637.109 766.042> 0 21G<915.5 1288> 1080 20G<384 757 1117.35 1472>
VStem: 105 350<-410 -60> 404 356<717.703 1098.28>
DStem2: 105 -410 455 -410 0.224951 0.97437<78.7329 490.274 856.549 1398.83> 773.171 -410 1123.39 -410 0.224951 0.97437<922.15 1549.77>
LayerCount: 2
Fore
SplineSet
1288 0 m 1,0,-1
 918 0 l 1,1,2
 913 35 913 35 913 108 c 1,3,4
 746 -20 746 -20 545 -20 c 1,5,-1
 455 -410 l 1,6,-1
 105 -410 l 1,7,-1
 274 321 l 1,8,-1
 385 800 l 2,9,10
 404 882 404 882 404 959 c 0,11,12
 404 1035 404 1035 384 1100 c 1,13,-1
 754 1100 l 1,14,15
 760 1055 760 1055 760 1006 c 0,16,17
 760 908 760 908 735 800 c 2,18,-1
 641 395 l 2,19,20
 635 369 635 369 635 346 c 0,21,22
 635 280 635 280 695 280 c 0,23,24
 931 280 931 280 1092 971 c 2,25,-1
 1122 1100 l 1,26,-1
 1472 1100 l 1,27,-1
 1287 300 l 2,28,29
 1269 222 1269 222 1269 148 c 0,30,31
 1269 72 1269 72 1288 0 c 1,0,-1
EndSplineSet
Validated: 1
EndChar

StartChar: paragraph
Encoding: 182 182 115
Width: 1333
GlyphClass: 2
Flags: W
HStem: 0 21G<726 901.617 960 1137.61> 1490 20G<729 1552>
VStem: 726 171<0 171> 960 173<0 173>
DStem2: 726 0 897 0 0.224951 0.97437<38.4666 476.177> 960 0 1133 0 0.224951 0.97437<38.9165 1309.41>
LayerCount: 2
Fore
SplineSet
726 0 m 1,0,-1
 833 464 l 1,1,2
 353 475 353 475 353 873 c 0,3,4
 353 968 353 968 380 1084 c 0,5,6
 479 1510 479 1510 979 1510 c 2,7,-1
 1552 1510 l 1,8,9
 1454 1391 1454 1391 1412 1210 c 2,10,-1
 1133 0 l 1,11,-1
 960 0 l 1,12,-1
 1255 1278 l 1,13,-1
 1192 1278 l 1,14,-1
 897 0 l 1,15,-1
 726 0 l 1,0,-1
EndSplineSet
Validated: 1
EndChar

StartChar: periodcentered
Encoding: 183 183 116
Width: 702
GlyphClass: 2
Flags: W
HStem: 558 406<421.507 634.493>
VStem: 318 420<672.188 850.969>
LayerCount: 2
Fore
SplineSet
327 760 m 4,0,1
 374 964 374 964 575 964 c 4,2,3
 738 964 738 964 738 831 c 4,4,5
 738 799 738 799 729 761 c 4,6,7
 681 558 681 558 481 558 c 4,8,9
 318 558 318 558 318 692 c 4,10,11
 318 722 318 722 327 760 c 4,0,1
EndSplineSet
Validated: 1
EndChar

StartChar: cedilla
Encoding: 184 184 117
Width: 778
GlyphClass: 2
Flags: W
HStem: -430 21G<273.302 425>
VStem: 311 309<-134.688 66.3352>
LayerCount: 2
Fore
SplineSet
377 260 m 17,0,1
 620 194 620 194 620 5 c 0,2,3
 620 -34 620 -34 610 -78 c 0,4,5
 557 -312 557 -312 293 -430 c 1,6,-1
 97 -231 l 17,7,8
 280 -178 280 -178 305 -65 c 0,9,10
 311 -40 311 -40 311 -19 c 0,11,12
 311 65 311 65 200 100 c 9,13,-1
 377 260 l 17,0,1
EndSplineSet
Validated: 1
EndChar

StartChar: uni00B9
Encoding: 185 185 118
Width: 818
GlyphClass: 2
Flags: W
HStem: 1490 20G<494.379 865>
VStem: 431 300<705 1005>
DStem2: 431 705 731 705 0.224951 0.97437<67.4853 555.253>
LayerCount: 2
Fore
SplineSet
431 705 m 1,0,-1
 556 1246 l 1,1,-1
 438 1246 l 1,2,-1
 499 1510 l 1,3,-1
 849 1510 l 1,4,5
 881 1473 881 1473 881 1402 c 0,6,7
 881 1356 881 1356 867 1295 c 2,8,-1
 731 705 l 1,9,-1
 431 705 l 1,0,-1
EndSplineSet
Validated: 1
EndChar

StartChar: ordmasculine
Encoding: 186 186 119
Width: 1333
GlyphClass: 2
Flags: W
HStem: 621 277<357 1326> 936 192<732.5 983.039> 1338 192<920.055 1171.5>
LayerCount: 2
Fore
SplineSet
1326 621 m 1,0,-1
 293 621 l 1,1,-1
 357 898 l 1,2,-1
 1390 898 l 1,3,-1
 1326 621 l 1,0,-1
878 1164 m 2,4,5
 869 1128 869 1128 922 1128 c 0,6,7
 983 1128 983 1128 1009 1239 c 2,8,-1
 1024 1303 l 2,9,10
 1032 1338 1032 1338 982 1338 c 0,11,12
 918 1338 918 1338 893 1228 c 2,13,-1
 878 1164 l 2,4,5
646 1156 m 2,14,-1
 663 1230 l 2,15,16
 732 1530 732 1530 1079 1530 c 0,17,18
 1264 1530 1264 1530 1264 1384 c 0,19,20
 1264 1346 1264 1346 1255 1309 c 2,21,-1
 1238 1235 l 2,22,23
 1169 936 1169 936 828 936 c 0,24,25
 637 936 637 936 637 1084 c 0,26,27
 637 1117 637 1117 646 1156 c 2,14,-1
EndSplineSet
Validated: 1
EndChar

StartChar: guillemotright
Encoding: 187 187 120
Width: 1609
GlyphClass: 2
Flags: W
DStem2: 290 388 201 5 0.788214 0.615402<0 543.612> 876 388 787 5 0.788214 0.615402<0 543.612>
LayerCount: 2
Fore
SplineSet
547 1505 m 1,0,-1
 1073 865 l 1,1,-1
 1022 646 l 1,2,-1
 201 5 l 1,3,-1
 290 388 l 1,4,-1
 715 727 l 1,5,-1
 443 1054 l 1,6,-1
 547 1505 l 1,0,-1
1133 1505 m 1,7,-1
 1659 865 l 1,8,-1
 1608 646 l 1,9,-1
 787 5 l 1,10,-1
 876 388 l 1,11,-1
 1301 727 l 1,12,-1
 1029 1054 l 1,13,-1
 1133 1505 l 1,7,-1
EndSplineSet
Validated: 1
EndChar

StartChar: questiondown
Encoding: 191 191 121
Width: 1538
GlyphClass: 2
Flags: W
HStem: -20 274<640.656 980.16> 644 247<711.138 841.517> 1124 406<1019.51 1232.49>
VStem: 238 363<272 499.946>
LayerCount: 2
Fore
SplineSet
1327 1328 m 0,0,1
 1280 1124 1280 1124 1079 1124 c 0,2,3
 916 1124 916 1124 916 1257 c 0,4,5
 916 1289 916 1289 925 1327 c 0,6,7
 973 1530 973 1530 1173 1530 c 0,8,9
 1336 1530 1336 1530 1336 1396 c 0,10,11
 1336 1366 1336 1366 1327 1328 c 0,0,1
1532 664 m 17,12,13
 1372 -20 1372 -20 656 -20 c 0,14,15
 238 -20 238 -20 238 272 c 0,16,17
 238 338 238 338 252 398 c 8,18,19
 368 891 368 891 746 891 c 0,20,21
 850 891 850 891 880 1020 c 9,22,-1
 1244 1083 l 17,23,24
 1141 644 1141 644 832 644 c 0,25,26
 661 644 661 644 606 415 c 16,27,28
 601 394 601 394 601 376 c 0,29,30
 603 254 603 254 821 254 c 0,31,32
 1087 254 1087 254 1160 568 c 9,33,-1
 1532 664 l 17,12,13
EndSplineSet
Validated: 1
EndChar

StartChar: multiply
Encoding: 215 215 122
Width: 1226
GlyphClass: 2
Flags: W
DStem2: 264 492 414 296 0.775876 0.630885<0 417.068 733.573 1151.42> 628 1223 387 1027 0.609501 -0.792785<8.49615 337.414 592.538 922.066>
LayerCount: 2
Fore
SplineSet
628 1223 m 1,0,-1
 833 955 l 1,1,-1
 1162 1223 l 1,2,-1
 1313 1027 l 1,3,-1
 984 760 l 1,4,-1
 1190 492 l 1,5,-1
 948 296 l 1,6,-1
 743 564 l 1,7,-1
 414 296 l 1,8,-1
 264 492 l 1,9,-1
 592 760 l 1,10,-1
 387 1027 l 1,11,-1
 628 1223 l 1,0,-1
EndSplineSet
Validated: 1
EndChar

StartChar: divide
Encoding: 247 247 123
Width: 1333
GlyphClass: 2
Flags: W
HStem: 107 406<631.465 843.493> 621 277<357 1326> 994 406<835.507 1048.49>
LayerCount: 2
Fore
SplineSet
1326 621 m 1,0,-1
 293 621 l 1,1,-1
 357 898 l 1,2,-1
 1390 898 l 1,3,-1
 1326 621 l 1,0,-1
741 1196 m 0,4,5
 788 1400 788 1400 989 1400 c 0,6,7
 1152 1400 1152 1400 1152 1267 c 0,8,9
 1152 1235 1152 1235 1143 1197 c 0,10,11
 1095 994 1095 994 895 994 c 0,12,13
 732 994 732 994 732 1125 c 0,14,15
 732 1157 732 1157 741 1196 c 0,4,5
536 309 m 0,16,17
 583 513 583 513 784 513 c 0,18,19
 947 513 947 513 947 379 c 0,20,21
 947 348 947 348 938 310 c 0,22,23
 890 107 890 107 691 107 c 0,24,25
 528 107 528 107 527 239 c 0,26,27
 527 269 527 269 536 309 c 0,16,17
EndSplineSet
Validated: 1
EndChar

StartChar: florin
Encoding: 402 402 124
Width: 1028
GlyphClass: 2
Flags: W
HStem: -430 21G<-64.4135 216> 630 277<779 1015> 1256 274<913.746 1230.56>
DStem2: 120.466 -430 470.466 -430 0.224951 0.97437<509.767 1035.67 1450.87 1735.94>
LayerCount: 2
Fore
SplineSet
-8 -164 m 1,0,1
 213 -30 213 -30 289 300 c 2,2,-1
 354 579 l 9,3,4
 296 570 296 570 236 534 c 1,5,-1
 302 819 l 1,6,7
 360 848 360 848 417 855 c 1,8,-1
 454 1014 l 2,9,10
 573 1530 573 1530 1201 1530 c 0,11,12
 1288 1530 1288 1530 1367 1512 c 9,13,-1
 1209 1211 l 17,14,15
 1130 1256 1130 1256 1036 1256 c 0,16,17
 860 1256 860 1256 803 1009 c 2,18,-1
 779 907 l 1,19,-1
 1079 907 l 1,20,-1
 1015 630 l 1,21,-1
 715 630 l 1,22,-1
 639 300 l 2,23,24
 501 -301 501 -301 -69 -430 c 1,25,-1
 -8 -164 l 1,0,1
EndSplineSet
Validated: 1
EndChar

StartChar: Delta
Encoding: 916 916 125
Width: 1446
GlyphClass: 2
Flags: W
HStem: 0 267<479 1019> 1490 20G<908.934 1225.82>
DStem2: 10 0 479 267 0.516579 0.85624<470.892 1348.78>
LayerCount: 2
Fore
SplineSet
10 0 m 1,0,-1
 921 1510 l 1,1,-1
 1223 1510 l 1,2,-1
 1436 0 l 1,3,-1
 10 0 l 1,0,-1
479 267 m 1,4,-1
 1019 267 l 1,5,-1
 927 1022 l 1,6,-1
 479 267 l 1,4,-1
EndSplineSet
Validated: 1
EndChar

StartChar: Pi
Encoding: 928 928 126
Width: 1556
GlyphClass: 2
Flags: W
HStem: 0 21G<200 554.623 1051 1426> 1233 277<835 1291>
VStem: 200 350<0 350> 1046 358<1.48828 357.516>
DStem2: 200 0 550 0 0.224951 0.97437<78.7329 1344.24> 1005.74 0 1355.74 0 0.224951 0.97437<223.417 1265.57>
LayerCount: 2
Fore
SplineSet
200 0 m 1,0,-1
 479 1210 l 2,1,2
 500 1300 500 1300 500 1375 c 128,-1,3
 500 1450 500 1450 479 1510 c 1,4,-1
 1705 1510 l 1,5,-1
 1425 300 l 2,6,7
 1404 210 1404 210 1404 135 c 0,8,9
 1405 58 1405 58 1426 0 c 1,10,-1
 1056 0 l 1,11,12
 1046 37 1046 37 1046 87 c 0,13,14
 1046 173 1046 173 1075 300 c 2,15,-1
 1291 1233 l 1,16,-1
 835 1233 l 1,17,-1
 550 0 l 1,18,-1
 200 0 l 1,0,-1
EndSplineSet
Validated: 1
EndChar

StartChar: Sigma
Encoding: 931 931 127
Width: 1561
GlyphClass: 2
Flags: W
HStem: 0 277<854 1406.66> 1233 277<1074 1646>
LayerCount: 2
Fore
SplineSet
153 0 m 1,0,-1
 931 763 l 1,1,-1
 499 1510 l 1,2,-1
 1710 1510 l 1,3,-1
 1646 1233 l 1,4,-1
 1074 1233 l 1,5,-1
 1361 760 l 1,6,-1
 854 277 l 1,7,-1
 1175 277 l 2,8,9
 1358 277 1358 277 1491 347 c 1,10,-1
 1423 50 l 1,11,12
 1294 0 1294 0 1111 0 c 2,13,-1
 153 0 l 1,0,-1
EndSplineSet
Validated: 1
EndChar

StartChar: Omega
Encoding: 937 937 128
Width: 1700
GlyphClass: 2
Flags: W
HStem: 0 269<305.576 560 1264 1535.66> 1256 274<987.225 1327.42>
VStem: 376 351<477.473 671.344> 1366 365<985.047 1383.5>
DStem2: 240.553 0 591.247 0 0.224951 0.97437<665.428 1221.4> 1109.08 0 1458.69 0 0.224951 0.97437<620.809 1159.23>
LayerCount: 2
Fore
SplineSet
240 347 m 1,0,1
 366 269 366 269 520 269 c 10,2,-1
 560 269 l 17,3,-1
 565 289 l 17,4,5
 376 371 376 371 376 544 c 0,6,7
 376 587 376 587 386 630 c 2,8,-1
 451 910 l 2,9,10
 594 1530 594 1530 1312 1530 c 0,11,12
 1731 1530 1731 1530 1731 1237 c 0,13,14
 1731 1178 1731 1178 1716 1113 c 2,15,-1
 1645 807 l 2,16,17
 1561 442 1561 442 1269 289 c 1,18,-1
 1264 269 l 9,19,-1
 1304 269 l 18,20,21
 1468 269 1468 269 1620 347 c 1,22,-1
 1552 50 l 1,23,24
 1423 0 1423 0 1240 0 c 2,25,-1
 925 0 l 1,26,-1
 1023 424 l 1,27,28
 1222 488 1222 488 1291 788 c 2,29,-1
 1361 1090 l 2,30,31
 1366 1112 1366 1112 1366 1131 c 0,32,33
 1366 1256 1366 1256 1147 1256 c 0,34,35
 881 1256 881 1256 796 890 c 2,36,-1
 733 614 l 2,37,38
 727 590 727 590 727 570 c 0,39,40
 727 463 727 463 875 432 c 9,41,-1
 775 0 l 1,42,-1
 460 0 l 2,43,44
 277 0 277 0 172 50 c 1,45,-1
 240 347 l 1,0,1
EndSplineSet
Validated: 1
EndChar

StartChar: mu
Encoding: 956 956 129
Width: 1418
GlyphClass: 2
Flags: W
HStem: -410 21G<105 459.615> -20 300<637.109 766.042> 0 21G<915.5 1288> 1080 20G<384 757 1117.35 1472>
VStem: 105 350<-410 -60> 404 356<717.703 1098.28>
DStem2: 105 -410 455 -410 0.224951 0.97437<78.7329 490.274 856.549 1398.83> 773.171 -410 1123.39 -410 0.224951 0.97437<922.15 1549.77>
LayerCount: 2
Fore
SplineSet
1288 0 m 1,0,-1
 918 0 l 1,1,2
 913 35 913 35 913 108 c 1,3,4
 746 -20 746 -20 545 -20 c 1,5,-1
 455 -410 l 1,6,-1
 105 -410 l 1,7,-1
 274 321 l 1,8,-1
 385 800 l 2,9,10
 404 882 404 882 404 959 c 0,11,12
 404 1035 404 1035 384 1100 c 1,13,-1
 754 1100 l 1,14,15
 760 1055 760 1055 760 1006 c 0,16,17
 760 908 760 908 735 800 c 2,18,-1
 641 395 l 2,19,20
 635 369 635 369 635 346 c 0,21,22
 635 280 635 280 695 280 c 0,23,24
 931 280 931 280 1092 971 c 2,25,-1
 1122 1100 l 1,26,-1
 1472 1100 l 1,27,-1
 1287 300 l 2,28,29
 1269 222 1269 222 1269 148 c 0,30,31
 1269 72 1269 72 1288 0 c 1,0,-1
EndSplineSet
Validated: 1
EndChar

StartChar: pi
Encoding: 960 960 130
Width: 1418
GlyphClass: 2
Flags: W
HStem: 0 21G<200 554.617 915 1288> 823 277<740 1058>
VStem: 200 350<0 350> 912 356<1.73584 378.359>
DStem2: 200 0 550 0 0.224951 0.97437<78.7329 923.38> 867.74 0 1217.74 0 0.224951 0.97437<229.772 844.706>
LayerCount: 2
Fore
SplineSet
200 0 m 9,0,-1
 385 800 l 2,1,2
 403 878 403 878 403 953 c 128,-1,3
 403 1028 403 1028 384 1100 c 1,4,-1
 1472 1100 l 9,5,-1
 1287 300 l 2,6,7
 1268 218 1268 218 1268 141 c 0,8,9
 1268 66 1268 66 1288 0 c 1,10,-1
 918 0 l 1,11,12
 912 45 912 45 912 93 c 0,13,14
 912 192 912 192 937 300 c 2,15,-1
 1058 823 l 25,16,-1
 740 823 l 25,17,-1
 550 0 l 1,18,-1
 200 0 l 9,0,-1
EndSplineSet
Validated: 1
EndChar

StartChar: uni2010
Encoding: 8208 8208 131
Width: 1283
GlyphClass: 2
Flags: W
HStem: 621 277<392 1241>
LayerCount: 2
Fore
SplineSet
392 898 m 1,0,-1
 1305 898 l 1,1,-1
 1241 621 l 1,2,-1
 328 621 l 1,3,-1
 392 898 l 1,0,-1
EndSplineSet
Validated: 1
EndChar

StartChar: uni2011
Encoding: 8209 8209 132
Width: 1283
GlyphClass: 2
Flags: W
HStem: 621 277<392 1241>
LayerCount: 2
Fore
SplineSet
392 898 m 1,0,-1
 1305 898 l 1,1,-1
 1241 621 l 1,2,-1
 328 621 l 1,3,-1
 392 898 l 1,0,-1
EndSplineSet
Validated: 1
EndChar

StartChar: figuredash
Encoding: 8210 8210 133
Width: 1333
GlyphClass: 2
Flags: W
HStem: 621 277<357 1326>
LayerCount: 2
Fore
SplineSet
1326 621 m 1,0,-1
 293 621 l 1,1,-1
 357 898 l 1,2,-1
 1390 898 l 1,3,-1
 1326 621 l 1,0,-1
EndSplineSet
Validated: 1
EndChar

StartChar: endash
Encoding: 8211 8211 134
Width: 1333
GlyphClass: 2
Flags: W
HStem: 621 277<357 1326>
LayerCount: 2
Fore
SplineSet
1326 621 m 1,0,-1
 293 621 l 1,1,-1
 357 898 l 1,2,-1
 1390 898 l 1,3,-1
 1326 621 l 1,0,-1
EndSplineSet
Validated: 1
EndChar

StartChar: emdash
Encoding: 8212 8212 135
Width: 1283
GlyphClass: 2
Flags: W
HStem: 621 277<232 1401>
LayerCount: 2
Fore
SplineSet
232 898 m 1,0,-1
 1465 898 l 1,1,-1
 1401 621 l 1,2,-1
 168 621 l 1,3,-1
 232 898 l 1,0,-1
EndSplineSet
Validated: 1
EndChar

StartChar: afii00208
Encoding: 8213 8213 136
Width: 1283
GlyphClass: 2
Flags: W
HStem: 621 277<232 1401>
LayerCount: 2
Fore
SplineSet
232 898 m 1,0,-1
 1465 898 l 1,1,-1
 1401 621 l 1,2,-1
 168 621 l 1,3,-1
 232 898 l 1,0,-1
EndSplineSet
Validated: 1
EndChar

StartChar: underscoredbl
Encoding: 8215 8215 137
Width: 1333
GlyphClass: 2
Flags: W
HStem: -410 179<97 1088> -199 179<145 1137>
LayerCount: 2
Fore
SplineSet
55 -410 m 1,0,-1
 97 -231 l 1,1,-1
 1130 -231 l 1,2,-1
 1088 -410 l 1,3,-1
 55 -410 l 1,0,-1
104 -199 m 1,4,-1
 145 -20 l 1,5,-1
 1178 -20 l 1,6,-1
 1137 -199 l 1,7,-1
 104 -199 l 1,4,-1
EndSplineSet
Validated: 1
EndChar

StartChar: quoteleft
Encoding: 8216 8216 138
Width: 790
GlyphClass: 2
Flags: W
HStem: 1510 20G<635 825.709>
VStem: 391 349<882.259 1188.9>
LayerCount: 2
Fore
SplineSet
811 1530 m 1,0,-1
 950 1341 l 1,1,2
 777 1264 777 1264 745 1119 c 0,3,4
 740 1097 740 1097 740 1075 c 0,5,6
 740 979 740 979 848 907 c 1,7,-1
 534 683 l 1,8,9
 391 801 391 801 391 981 c 0,10,11
 391 1038 391 1038 406 1106 c 0,12,13
 459 1345 459 1345 811 1530 c 1,0,-1
EndSplineSet
Validated: 1
EndChar

StartChar: quoteright
Encoding: 8217 8217 139
Width: 790
GlyphClass: 2
Flags: W
HStem: 1510 20G<738.964 838.5>
VStem: 561 349<1024.1 1330.74>
LayerCount: 2
Fore
SplineSet
767 1530 m 1,0,1
 910 1412 910 1412 910 1232 c 0,2,3
 910 1175 910 1175 895 1107 c 0,4,5
 842 868 842 868 490 683 c 1,6,-1
 351 872 l 1,7,8
 524 949 524 949 556 1094 c 0,9,10
 561 1116 561 1116 561 1138 c 0,11,12
 561 1234 561 1234 453 1306 c 1,13,-1
 767 1530 l 1,0,1
EndSplineSet
Validated: 1
EndChar

StartChar: quotesinglbase
Encoding: 8218 8218 140
Width: 790
GlyphClass: 2
Flags: W
HStem: -410 21G<223.291 413>
VStem: 309 349<-69.0396 237.972>
LayerCount: 2
Fore
SplineSet
515 437 m 1,0,1
 658 319 658 319 658 139 c 0,2,3
 658 80 658 80 643 14 c 0,4,5
 588 -226 588 -226 238 -410 c 1,6,-1
 99 -221 l 1,7,8
 273 -144 273 -144 304 1 c 0,9,10
 309 24 309 24 309 45 c 0,11,12
 309 142 309 142 201 213 c 1,13,-1
 515 437 l 1,0,1
EndSplineSet
Validated: 1
EndChar

StartChar: quotereversed
Encoding: 8219 8219 141
Width: 794
GlyphClass: 2
Flags: W
HStem: 1510 20G<600.5 752.839>
VStem: 400 302<879.014 1140>
LayerCount: 2
Fore
SplineSet
734 1530 m 1,0,1
 945 1306 l 1,2,3
 779 1225 779 1225 728 1108 c 0,4,5
 702 1048 702 1048 702 1000 c 0,6,7
 702 885 702 885 803 838 c 1,8,-1
 620 683 l 1,9,10
 400 832 400 832 400 1037 c 0,11,12
 400 1081 400 1081 410 1128 c 0,13,14
 467 1395 467 1395 734 1530 c 1,0,1
EndSplineSet
Validated: 1
EndChar

StartChar: quotedblleft
Encoding: 8220 8220 142
Width: 1306
GlyphClass: 2
Flags: W
HStem: 1510 20G<635 825.709 1150 1340.71>
VStem: 391 349<882.259 1188.9> 906 349<882.259 1188.9>
LayerCount: 2
Fore
SplineSet
1326 1530 m 1,0,-1
 1465 1341 l 1,1,2
 1292 1264 1292 1264 1260 1119 c 0,3,4
 1255 1097 1255 1097 1255 1075 c 0,5,6
 1255 979 1255 979 1363 907 c 1,7,-1
 1049 683 l 1,8,9
 906 801 906 801 906 981 c 0,10,11
 906 1038 906 1038 921 1106 c 0,12,13
 974 1345 974 1345 1326 1530 c 1,0,-1
811 1530 m 1,14,-1
 950 1341 l 1,15,16
 777 1264 777 1264 745 1119 c 0,17,18
 740 1097 740 1097 740 1075 c 0,19,20
 740 979 740 979 848 907 c 1,21,-1
 534 683 l 1,22,23
 391 801 391 801 391 981 c 0,24,25
 391 1038 391 1038 406 1106 c 0,26,27
 459 1345 459 1345 811 1530 c 1,14,-1
EndSplineSet
Validated: 1
EndChar

StartChar: quotedblright
Encoding: 8221 8221 143
Width: 1305
GlyphClass: 2
Flags: W
HStem: 1510 20G<738.964 838.5 1253.96 1353.5>
VStem: 561 349<1024.1 1330.74> 1076 349<1024.1 1330.74>
LayerCount: 2
Fore
SplineSet
767 1530 m 1,0,1
 910 1412 910 1412 910 1232 c 0,2,3
 910 1175 910 1175 895 1107 c 0,4,5
 842 868 842 868 490 683 c 1,6,-1
 351 872 l 1,7,8
 524 949 524 949 556 1094 c 0,9,10
 561 1116 561 1116 561 1138 c 0,11,12
 561 1234 561 1234 453 1306 c 1,13,-1
 767 1530 l 1,0,1
1282 1530 m 1,14,15
 1425 1412 1425 1412 1425 1232 c 0,16,17
 1425 1175 1425 1175 1410 1107 c 0,18,19
 1357 868 1357 868 1005 683 c 1,20,-1
 866 872 l 1,21,22
 1039 949 1039 949 1071 1094 c 0,23,24
 1076 1116 1076 1116 1076 1138 c 0,25,26
 1076 1234 1076 1234 968 1306 c 1,27,-1
 1282 1530 l 1,14,15
EndSplineSet
Validated: 1
EndChar

StartChar: quotedblbase
Encoding: 8222 8222 144
Width: 1305
GlyphClass: 2
Flags: W
HStem: -410 21G<223.291 414 738.291 929>
VStem: 309 349<-68.8972 237.741> 824 349<-68.8972 237.741>
LayerCount: 2
Fore
SplineSet
515 437 m 1,0,1
 658 319 658 319 658 139 c 0,2,3
 658 82 658 82 643 14 c 0,4,5
 590 -225 590 -225 238 -410 c 1,6,-1
 99 -221 l 1,7,8
 272 -144 272 -144 304 1 c 0,9,10
 309 23 309 23 309 45 c 0,11,12
 309 141 309 141 201 213 c 1,13,-1
 515 437 l 1,0,1
1030 437 m 1,14,15
 1173 319 1173 319 1173 139 c 0,16,17
 1173 82 1173 82 1158 14 c 0,18,19
 1105 -225 1105 -225 753 -410 c 1,20,-1
 614 -221 l 1,21,22
 787 -144 787 -144 819 1 c 0,23,24
 824 23 824 23 824 45 c 0,25,26
 824 141 824 141 716 213 c 1,27,-1
 1030 437 l 1,14,15
EndSplineSet
Validated: 1
EndChar

StartChar: uni201F
Encoding: 8223 8223 145
Width: 1292
GlyphClass: 2
Flags: W
HStem: 1510 20G<600.5 752.839 1098.5 1250.84>
VStem: 400 302<879.014 1140> 898 302<879.014 1140>
LayerCount: 2
Fore
SplineSet
1232 1530 m 1,0,1
 1443 1306 l 1,2,3
 1277 1225 1277 1225 1226 1108 c 0,4,5
 1200 1048 1200 1048 1200 1000 c 0,6,7
 1200 885 1200 885 1301 838 c 1,8,-1
 1118 683 l 1,9,10
 898 832 898 832 898 1037 c 0,11,12
 898 1081 898 1081 908 1128 c 0,13,14
 965 1395 965 1395 1232 1530 c 1,0,1
734 1530 m 1,15,-1
 945 1306 l 1,16,17
 779 1225 779 1225 728 1108 c 0,18,19
 702 1048 702 1048 702 1000 c 0,20,21
 702 885 702 885 803 838 c 1,22,-1
 620 683 l 1,23,24
 400 832 400 832 400 1037 c 0,25,26
 400 1081 400 1081 410 1128 c 0,27,28
 467 1395 467 1395 734 1530 c 1,15,-1
EndSplineSet
Validated: 1
EndChar

StartChar: dagger
Encoding: 8224 8224 146
Width: 1333
GlyphClass: 2
Flags: W
HStem: 0 21G<511 825.608> 855 277<411 708 1082 1380> 1490 20G<855.344 1170>
VStem: 511 310<0 310> 860 310<1200 1510>
DStem2: 511 0 821 0 0.224951 0.97437<69.7348 877.402 1231.43 1549.81>
LayerCount: 2
Fore
SplineSet
511 0 m 1,0,-1
 708 855 l 1,1,-1
 347 855 l 1,2,-1
 411 1132 l 1,3,-1
 772 1132 l 1,4,-1
 860 1510 l 1,5,-1
 1170 1510 l 1,6,-1
 1082 1132 l 1,7,-1
 1444 1132 l 1,8,-1
 1380 855 l 1,9,-1
 1018 855 l 1,10,-1
 821 0 l 1,11,-1
 511 0 l 1,0,-1
EndSplineSet
Validated: 1
EndChar

StartChar: daggerdbl
Encoding: 8225 8225 147
Width: 1334
GlyphClass: 2
Flags: W
HStem: 0 21G<512 826.634> 328 277<290 588 962 1259> 905 277<424 721 1095 1393> 1490 20G<856.366 1171>
VStem: 512 310<0 310> 861 310<1200 1510>
DStem2: 512 0 822 0 0.224951 0.97437<69.7348 336.69 690.722 928.82 1282.85 1549.81>
LayerCount: 2
Fore
SplineSet
512 0 m 1,0,-1
 588 328 l 1,1,-1
 226 328 l 1,2,-1
 290 605 l 1,3,-1
 652 605 l 1,4,-1
 721 905 l 1,5,-1
 360 905 l 1,6,-1
 424 1182 l 1,7,-1
 785 1182 l 1,8,-1
 861 1510 l 1,9,-1
 1171 1510 l 1,10,-1
 1095 1182 l 1,11,-1
 1457 1182 l 1,12,-1
 1393 905 l 1,13,-1
 1031 905 l 1,14,-1
 962 605 l 1,15,-1
 1323 605 l 1,16,-1
 1259 328 l 1,17,-1
 898 328 l 1,18,-1
 822 0 l 1,19,-1
 512 0 l 1,0,-1
EndSplineSet
Validated: 1
EndChar

StartChar: bullet
Encoding: 8226 8226 148
Width: 1144
GlyphClass: 2
Flags: W
HStem: 394 745<618.355 879.494>
LayerCount: 2
Fore
SplineSet
376 765 m 0,0,1
 462 1139 462 1139 834 1139 c 0,2,3
 1137 1139 1137 1139 1137 893 c 0,4,5
 1137 837 1137 837 1121 767 c 0,6,7
 1036 394 1036 394 664 394 c 0,8,9
 360 394 360 394 360 640 c 0,10,11
 360 694 360 694 376 765 c 0,0,1
EndSplineSet
Validated: 1
EndChar

StartChar: uni2023
Encoding: 8227 8227 149
Width: 1107
GlyphClass: 2
Flags: W
LayerCount: 2
Fore
SplineSet
204 236 m 1,0,-1
 432 1222 l 1,1,-1
 1183 764 l 1,2,-1
 204 236 l 1,0,-1
EndSplineSet
Validated: 1
EndChar

StartChar: onedotenleader
Encoding: 8228 8228 150
Width: 702
GlyphClass: 2
Flags: W
HStem: -20 406<286.507 499.493>
VStem: 183 420<94.1875 272.969>
LayerCount: 2
Fore
SplineSet
192 182 m 0,0,1
 239 386 239 386 440 386 c 0,2,3
 603 386 603 386 603 253 c 0,4,5
 603 221 603 221 594 183 c 0,6,7
 546 -20 546 -20 346 -20 c 0,8,9
 183 -20 183 -20 183 114 c 0,10,11
 183 144 183 144 192 182 c 0,0,1
EndSplineSet
Validated: 1
EndChar

StartChar: twodotenleader
Encoding: 8229 8229 151
Width: 1193
GlyphClass: 2
Flags: W
HStem: -20 406<286.507 499.493 778.507 991.493>
LayerCount: 2
Fore
SplineSet
684 182 m 0,0,1
 731 386 731 386 932 386 c 0,2,3
 1095 386 1095 386 1095 253 c 0,4,5
 1095 221 1095 221 1086 183 c 0,6,7
 1038 -20 1038 -20 838 -20 c 0,8,9
 675 -20 675 -20 675 114 c 0,10,11
 675 144 675 144 684 182 c 0,0,1
192 182 m 0,12,13
 239 386 239 386 440 386 c 0,14,15
 603 386 603 386 603 253 c 0,16,17
 603 221 603 221 594 183 c 0,18,19
 546 -20 546 -20 346 -20 c 0,20,21
 183 -20 183 -20 183 114 c 0,22,23
 183 144 183 144 192 182 c 0,12,13
EndSplineSet
Validated: 1
EndChar

StartChar: ellipsis
Encoding: 8230 8230 152
Width: 1685
GlyphClass: 2
Flags: W
HStem: -20 406<286.507 499.493 778.507 991.493 1270.51 1483.49>
LayerCount: 2
Fore
SplineSet
1176 182 m 0,0,1
 1223 386 1223 386 1424 386 c 0,2,3
 1587 386 1587 386 1587 253 c 0,4,5
 1587 221 1587 221 1578 183 c 0,6,7
 1530 -20 1530 -20 1330 -20 c 0,8,9
 1167 -20 1167 -20 1167 114 c 0,10,11
 1167 144 1167 144 1176 182 c 0,0,1
684 182 m 0,12,13
 731 386 731 386 932 386 c 0,14,15
 1095 386 1095 386 1095 253 c 0,16,17
 1095 221 1095 221 1086 183 c 0,18,19
 1038 -20 1038 -20 838 -20 c 0,20,21
 675 -20 675 -20 675 114 c 0,22,23
 675 144 675 144 684 182 c 0,12,13
192 182 m 0,24,25
 239 386 239 386 440 386 c 0,26,27
 603 386 603 386 603 253 c 0,28,29
 603 221 603 221 594 183 c 0,30,31
 546 -20 546 -20 346 -20 c 0,32,33
 183 -20 183 -20 183 114 c 0,34,35
 183 144 183 144 192 182 c 0,24,25
EndSplineSet
Validated: 1
EndChar

StartChar: uni2027
Encoding: 8231 8231 153
Width: 702
GlyphClass: 2
Flags: W
HStem: 558 406<421.507 634.493>
VStem: 318 420<672.188 850.969>
LayerCount: 2
Fore
SplineSet
327 760 m 4,0,1
 374 964 374 964 575 964 c 4,2,3
 738 964 738 964 738 831 c 4,4,5
 738 799 738 799 729 761 c 4,6,7
 681 558 681 558 481 558 c 4,8,9
 318 558 318 558 318 692 c 4,10,11
 318 722 318 722 327 760 c 4,0,1
EndSplineSet
Validated: 1
EndChar

StartChar: perthousand
Encoding: 8240 8240 154
Width: 2795
GlyphClass: 2
Flags: W
HStem: -20 234<1432.63 1634.27 2229.63 2431.27> 0 21G<447 802.821> 481 244<1472.47 1674.34 2269.47 2471.34> 785 234<664.628 866.273> 1286 244<704.47 906.336> 1490 20G<1548.22 1907>
VStem: 401 252<907.14 1234.98> 447 341<0 341> 918 260<1069.67 1407> 1169 252<102.14 429.975> 1563 344<1166 1510> 1686 260<264.669 602> 1966 252<102.14 429.975> 2483 260<264.669 602>
DStem2: 447 0 788 0 0.595393 0.803435<203.029 1877.64>
LayerCount: 2
Fore
SplineSet
2224 348 m 0,0,1
 2218 322 2218 322 2218 301 c 0,2,3
 2218 214 2218 214 2320 214 c 0,4,5
 2446 214 2446 214 2477 348 c 0,6,7
 2483 373 2483 373 2483 395 c 0,8,9
 2483 481 2483 481 2381 481 c 0,10,11
 2255 481 2255 481 2224 348 c 0,0,1
1982 351 m 0,12,13
 2068 725 2068 725 2440 725 c 0,14,15
 2743 725 2743 725 2743 479 c 0,16,17
 2743 423 2743 423 2727 353 c 0,18,19
 2642 -20 2642 -20 2270 -20 c 0,20,21
 1966 -20 1966 -20 1966 226 c 0,22,23
 1966 280 1966 280 1982 351 c 0,12,13
659 1153 m 0,24,25
 653 1127 653 1127 653 1106 c 0,26,27
 653 1019 653 1019 755 1019 c 0,28,29
 881 1019 881 1019 912 1153 c 0,30,31
 918 1178 918 1178 918 1200 c 0,32,33
 918 1286 918 1286 816 1286 c 0,34,35
 690 1286 690 1286 659 1153 c 0,24,25
417 1156 m 0,36,37
 503 1530 503 1530 875 1530 c 0,38,39
 1178 1530 1178 1530 1178 1284 c 0,40,41
 1178 1228 1178 1228 1162 1158 c 0,42,43
 1077 785 1077 785 705 785 c 0,44,45
 401 785 401 785 401 1031 c 0,46,47
 401 1085 401 1085 417 1156 c 0,36,37
1427 348 m 0,48,49
 1421 322 1421 322 1421 301 c 0,50,51
 1421 214 1421 214 1523 214 c 0,52,53
 1649 214 1649 214 1680 348 c 0,54,55
 1686 373 1686 373 1686 395 c 0,56,57
 1686 481 1686 481 1584 481 c 0,58,59
 1458 481 1458 481 1427 348 c 0,48,49
1185 351 m 0,60,61
 1271 725 1271 725 1643 725 c 0,62,63
 1946 725 1946 725 1946 479 c 0,64,65
 1946 423 1946 423 1930 353 c 0,66,67
 1845 -20 1845 -20 1473 -20 c 0,68,69
 1169 -20 1169 -20 1169 226 c 0,70,71
 1169 280 1169 280 1185 351 c 0,60,61
447 0 m 1,72,-1
 1563 1510 l 1,73,-1
 1907 1510 l 9,74,-1
 788 0 l 17,75,-1
 447 0 l 1,72,-1
EndSplineSet
Validated: 1
EndChar

StartChar: minute
Encoding: 8242 8242 155
Width: 977
GlyphClass: 2
Flags: W
HStem: 899 611
LayerCount: 2
Fore
SplineSet
792 1510 m 1,0,-1
 1176 1510 l 1,1,-1
 677 899 l 1,2,-1
 358 899 l 1,3,-1
 792 1510 l 1,0,-1
EndSplineSet
Validated: 1
EndChar

StartChar: second
Encoding: 8243 8243 156
Width: 1442
GlyphClass: 2
Flags: W
HStem: 899 611
LayerCount: 2
Fore
SplineSet
1641 1510 m 1,0,-1
 1142 899 l 1,1,-1
 823 899 l 1,2,-1
 1257 1510 l 1,3,-1
 1641 1510 l 1,0,-1
792 1510 m 1,4,-1
 1176 1510 l 1,5,-1
 677 899 l 1,6,-1
 358 899 l 1,7,-1
 792 1510 l 1,4,-1
EndSplineSet
Validated: 1
EndChar

StartChar: uni2034
Encoding: 8244 8244 157
Width: 1907
GlyphClass: 2
Flags: W
HStem: 899 611
LayerCount: 2
Fore
SplineSet
2106 1510 m 1,0,-1
 1607 899 l 1,1,-1
 1288 899 l 1,2,-1
 1722 1510 l 1,3,-1
 2106 1510 l 1,0,-1
1641 1510 m 1,4,-1
 1142 899 l 1,5,-1
 823 899 l 1,6,-1
 1257 1510 l 1,7,-1
 1641 1510 l 1,4,-1
1176 1510 m 1,8,-1
 677 899 l 1,9,-1
 358 899 l 1,10,-1
 792 1510 l 1,11,-1
 1176 1510 l 1,8,-1
EndSplineSet
Validated: 1
EndChar

StartChar: uni2035
Encoding: 8245 8245 158
Width: 977
GlyphClass: 2
Flags: W
HStem: 899 611<716 883>
VStem: 499 536
LayerCount: 2
Fore
SplineSet
499 1510 m 1,0,-1
 883 1510 l 1,1,-1
 1035 899 l 1,2,-1
 716 899 l 1,3,-1
 499 1510 l 1,0,-1
EndSplineSet
Validated: 1
EndChar

StartChar: uni2036
Encoding: 8246 8246 159
Width: 1442
GlyphClass: 2
Flags: W
HStem: 899 611<716 883 1181 1348>
LayerCount: 2
Fore
SplineSet
499 1510 m 1,0,-1
 883 1510 l 1,1,-1
 1035 899 l 1,2,-1
 716 899 l 1,3,-1
 499 1510 l 1,0,-1
964 1510 m 1,4,-1
 1348 1510 l 1,5,-1
 1500 899 l 1,6,-1
 1181 899 l 1,7,-1
 964 1510 l 1,4,-1
EndSplineSet
Validated: 1
EndChar

StartChar: uni2037
Encoding: 8247 8247 160
Width: 1907
GlyphClass: 2
Flags: W
HStem: 899 611<716 883 1181 1348 1646 1813>
LayerCount: 2
Fore
SplineSet
499 1510 m 1,0,-1
 883 1510 l 1,1,-1
 1035 899 l 1,2,-1
 716 899 l 1,3,-1
 499 1510 l 1,0,-1
964 1510 m 1,4,-1
 1348 1510 l 1,5,-1
 1500 899 l 1,6,-1
 1181 899 l 1,7,-1
 964 1510 l 1,4,-1
1429 1510 m 1,8,-1
 1813 1510 l 1,9,-1
 1965 899 l 1,10,-1
 1646 899 l 1,11,-1
 1429 1510 l 1,8,-1
EndSplineSet
Validated: 1
EndChar

StartChar: guilsinglleft
Encoding: 8249 8249 161
Width: 1023
GlyphClass: 2
Flags: W
DStem2: 349 864 657 783 0.788214 0.615402<192.922 736.534>
LayerCount: 2
Fore
SplineSet
1170 1505 m 1,0,-1
 1082 1122 l 1,1,-1
 657 783 l 1,2,-1
 928 456 l 1,3,-1
 824 5 l 1,4,-1
 299 645 l 1,5,-1
 349 864 l 1,6,-1
 1170 1505 l 1,0,-1
EndSplineSet
Validated: 1
EndChar

StartChar: guilsinglright
Encoding: 8250 8250 162
Width: 1023
GlyphClass: 2
Flags: W
DStem2: 290 388 201 5 0.788214 0.615402<0 543.612>
LayerCount: 2
Fore
SplineSet
547 1505 m 1,0,-1
 1073 865 l 1,1,-1
 1022 646 l 1,2,-1
 201 5 l 1,3,-1
 290 388 l 1,4,-1
 715 727 l 1,5,-1
 443 1054 l 1,6,-1
 547 1505 l 1,0,-1
EndSplineSet
Validated: 1
EndChar

StartChar: uni2043
Encoding: 8259 8259 163
Width: 1333
GlyphClass: 2
Flags: W
VStem: 584 277<243 520> 823 277<999 1276>
DStem2: 293 621 376 381 0.891066 0.453873<0 270.487 833.626 1103.22> 551 1138 357 898 0.832215 -0.554453<0 221.234 682.281 904.07> 584 243 861 243 0.224951 0.97437<62.3114 284.297 838.302 1060.29>
LayerCount: 2
Fore
SplineSet
823 1276 m 1,0,-1
 1100 1276 l 1,1,-1
 1036 999 l 1,2,-1
 1308 1138 l 1,3,-1
 1390 898 l 1,4,-1
 1119 760 l 1,5,-1
 1326 621 l 1,6,-1
 1133 381 l 1,7,-1
 925 520 l 1,8,-1
 861 243 l 1,9,-1
 584 243 l 1,10,-1
 648 520 l 1,11,-1
 376 381 l 1,12,-1
 293 621 l 1,13,-1
 565 760 l 1,14,-1
 357 898 l 1,15,-1
 551 1138 l 1,16,-1
 759 999 l 1,17,-1
 823 1276 l 1,0,-1
EndSplineSet
Validated: 1
EndChar

StartChar: fraction
Encoding: 8260 8260 164
Width: 1263
GlyphClass: 2
Flags: W
DStem2: 34 -68 285 -200 0.588416 0.808559<40.9626 2193.22>
LayerCount: 2
Fore
SplineSet
1325 1705 m 1,0,-1
 1576 1574 l 1,1,-1
 285 -200 l 1,2,-1
 34 -68 l 1,3,-1
 1325 1705 l 1,0,-1
EndSplineSet
Validated: 1
EndChar

StartChar: Euro
Encoding: 8364 8364 165
Width: 1678
GlyphClass: 2
Flags: W
HStem: -20 274<742.392 1096.51> 430 277<263 359 773 1138> 779 277<344 440 871 1219> 1256 274<1007.76 1538.5>
VStem: 341 363<134 428.424> 1368 378<1080.35 1376.5>
LayerCount: 2
Fore
SplineSet
1617 604 m 1,0,1
 1473 -20 1473 -20 755 -20 c 0,2,3
 341 -20 341 -20 341 288 c 0,4,5
 341 353 341 353 359 430 c 1,6,-1
 199 430 l 1,7,-1
 263 707 l 1,8,-1
 423 707 l 1,9,-1
 440 779 l 1,10,-1
 280 779 l 1,11,-1
 344 1056 l 1,12,-1
 516 1056 l 1,13,14
 705 1530 705 1530 1331 1530 c 0,15,16
 1746 1530 1746 1530 1746 1223 c 0,17,18
 1746 1160 1746 1160 1728 1084 c 1,19,-1
 1356 988 l 1,20,21
 1368 1041 1368 1041 1368 1083 c 0,22,23
 1368 1256 1368 1256 1166 1256 c 0,24,25
 967 1256 967 1256 871 1056 c 1,26,-1
 1283 1056 l 1,27,-1
 1219 779 l 1,28,-1
 790 779 l 1,29,-1
 773 707 l 1,30,-1
 1202 707 l 1,31,-1
 1138 430 l 1,32,-1
 709 430 l 1,33,34
 704 406 704 406 704 385 c 0,35,36
 704 254 704 254 921 254 c 0,37,38
 1187 254 1187 254 1245 507 c 1,39,-1
 1617 604 l 1,0,1
EndSplineSet
Validated: 1
EndChar

StartChar: afii61248
Encoding: 8453 8453 166
Width: 2155
GlyphClass: 2
Flags: W
HStem: -20 263<1451.5 1750.87> 0 21G<524 879.821> 612 263<474.5 783.517> 636 262<1727.83 2029> 1268 262<750.828 1051.5> 1490 20G<1625.22 1984>
VStem: 524 341<0 341> 1640 344<1166 1510>
DStem2: 145.447 -20 445.447 -20 0.224951 0.97437<996.55 1393.54> 524 0 865 0 0.595393 0.803435<203.029 1877.64> 1268.36 -20 1568.36 -20 0.224951 0.97437<347.926 744.912> 1696.5 -20 2000.73 -20 0.224951 0.97437<265.742 662.728>
LayerCount: 2
Fore
SplineSet
1336 273 m 2,0,-1
 1387 494 l 2,1,2
 1480 898 1480 898 1901 898 c 0,3,4
 2157 898 2157 898 2157 700 c 0,5,6
 2157 657 2157 657 2145 605 c 2,7,-1
 2094 384 l 2,8,9
 2001 -20 2001 -20 1579 -20 c 0,10,11
 1324 -20 1324 -20 1324 183 c 0,12,13
 1324 221 1324 221 1336 273 c 2,0,-1
1636 273 m 2,14,15
 1629 243 1629 243 1686 243 c 0,16,17
 1757 243 1757 243 1790 385 c 2,18,-1
 1841 606 l 2,19,20
 1848 636 1848 636 1791 636 c 0,21,22
 1720 636 1720 636 1687 494 c 2,23,-1
 1636 273 l 2,14,15
524 0 m 1,24,-1
 1640 1510 l 1,25,-1
 1984 1510 l 9,26,-1
 865 0 l 17,27,-1
 524 0 l 1,24,-1
1118 1007 m 17,28,29
 1027 612 1027 612 602 612 c 0,30,31
 347 612 347 612 347 809 c 0,32,33
 347 852 347 852 359 905 c 2,34,-1
 410 1126 l 2,35,36
 503 1530 503 1530 924 1530 c 0,37,38
 1179 1530 1179 1530 1179 1317 c 0,39,40
 1179 1273 1179 1273 1168 1220 c 9,41,-1
 856 1178 l 17,42,43
 861 1200 861 1200 861 1217 c 0,44,45
 860 1268 860 1268 814 1268 c 0,46,47
 743 1268 743 1268 710 1126 c 2,48,-1
 659 905 l 2,49,50
 652 875 652 875 709 875 c 0,51,52
 784 875 784 875 808 981 c 9,53,-1
 1118 1007 l 17,28,29
EndSplineSet
Validated: 1
EndChar

StartChar: afii61289
Encoding: 8467 8467 167
Width: 1420
GlyphClass: 2
Flags: W
HStem: 0 21G<150 564.838 698.5 806.5> 1510 20G<1188 1361.5>
LayerCount: 2
Fore
SplineSet
150 0 m 1,0,1
 335 171 335 171 498 348 c 1,2,3
 507 412 507 412 521 473 c 0,4,5
 554 615 554 615 718 946 c 0,6,7
 887 1285 887 1285 992 1407 c 0,8,9
 1098 1530 1098 1530 1278 1530 c 0,10,11
 1445 1530 1445 1530 1445 1372 c 0,12,13
 1444 1326 1444 1326 1431 1269 c 0,14,15
 1409 1174 1409 1174 1345 1031 c 0,16,17
 1204 718 1204 718 827 303 c 1,18,19
 828 279 828 279 832 263 c 1,20,-1
 910 342 l 1,21,-1
 1249 342 l 1,22,23
 1104 147 1104 147 963 50 c 0,24,25
 861 -20 861 -20 752 -20 c 0,26,27
 645 -20 645 -20 580 37 c 1,28,-1
 547 0 l 1,29,-1
 150 0 l 1,0,1
EndSplineSet
Validated: 1
EndChar

StartChar: trademark
Encoding: 8482 8482 168
Width: 1967
GlyphClass: 2
Flags: W
HStem: 1292 218<491.848 653 908 1113>
VStem: 520 255<715 970> 1065 255<715 970> 1405 254<1000 1160.27> 1641 259<716.16 1032.05>
DStem2: 520 715 775 715 0.224951 0.97437<57.3625 592.13> 1065 715 1320 715 0.224951 0.97437<57.3625 576.713> 1612.14 715 1867.21 715 0.224951 0.97437<169.076 520.294>
LayerCount: 2
Fore
SplineSet
520 715 m 1,0,-1
 653 1292 l 1,1,-1
 638 1292 l 2,2,3
 550 1291 550 1291 434 1232 c 1,4,-1
 489 1470 l 1,5,6
 580 1510 580 1510 689 1510 c 2,7,-1
 1164 1510 l 1,8,-1
 1113 1292 l 1,9,-1
 908 1292 l 1,10,-1
 775 715 l 1,11,-1
 520 715 l 1,0,-1
1065 715 m 1,12,-1
 1207 1329 l 2,13,14
 1216 1370 1216 1370 1216 1405 c 0,15,16
 1216 1467 1216 1467 1184 1510 c 1,17,-1
 1401 1510 l 2,18,19
 1605 1510 1605 1510 1617 1367 c 1,20,21
 1707 1510 1707 1510 1873 1510 c 2,22,-1
 2051 1510 l 1,23,-1
 1909 896 l 2,24,25
 1900 855 1900 855 1900 821 c 0,26,27
 1900 758 1900 758 1932 715 c 1,28,-1
 1652 715 l 1,29,30
 1641 746 1641 746 1641 789 c 0,31,32
 1641 838 1641 838 1656 905 c 2,33,-1
 1729 1222 l 1,34,35
 1694 1154 1694 1154 1659 1000 c 1,36,-1
 1405 1000 l 1,37,38
 1437 1142 1437 1142 1437 1210 c 0,39,40
 1437 1215 1437 1215 1437 1221 c 1,41,-1
 1320 715 l 1,42,-1
 1065 715 l 1,12,-1
EndSplineSet
Validated: 1
EndChar

StartChar: uni2126
Encoding: 8486 8486 169
Width: 1700
GlyphClass: 2
Flags: W
HStem: 0 269<305.576 560 1264 1535.66> 1256 274<987.225 1327.42>
VStem: 376 351<477.473 671.344> 1366 365<985.047 1383.5>
DStem2: 240.553 0 591.247 0 0.224951 0.97437<665.428 1221.4> 1109.08 0 1458.69 0 0.224951 0.97437<620.809 1159.23>
LayerCount: 2
Fore
SplineSet
240 347 m 1,0,1
 366 269 366 269 520 269 c 10,2,-1
 560 269 l 17,3,-1
 565 289 l 17,4,5
 376 371 376 371 376 544 c 0,6,7
 376 587 376 587 386 630 c 2,8,-1
 451 910 l 2,9,10
 594 1530 594 1530 1312 1530 c 0,11,12
 1731 1530 1731 1530 1731 1237 c 0,13,14
 1731 1178 1731 1178 1716 1113 c 2,15,-1
 1645 807 l 2,16,17
 1561 442 1561 442 1269 289 c 1,18,-1
 1264 269 l 9,19,-1
 1304 269 l 18,20,21
 1468 269 1468 269 1620 347 c 1,22,-1
 1552 50 l 1,23,24
 1423 0 1423 0 1240 0 c 2,25,-1
 925 0 l 1,26,-1
 1023 424 l 1,27,28
 1222 488 1222 488 1291 788 c 2,29,-1
 1361 1090 l 2,30,31
 1366 1112 1366 1112 1366 1131 c 0,32,33
 1366 1256 1366 1256 1147 1256 c 0,34,35
 881 1256 881 1256 796 890 c 2,36,-1
 733 614 l 2,37,38
 727 590 727 590 727 570 c 0,39,40
 727 463 727 463 875 432 c 9,41,-1
 775 0 l 1,42,-1
 460 0 l 2,43,44
 277 0 277 0 172 50 c 1,45,-1
 240 347 l 1,0,1
EndSplineSet
Validated: 1
EndChar

StartChar: estimated
Encoding: 8494 8494 170
Width: 1483
GlyphClass: 2
Flags: W
HStem: -20 238<659.037 969.859> 454 230<706 1094> 894 234<795.637 1081.29>
LayerCount: 2
Fore
SplineSet
1384 357 m 1,0,1
 1276 179 1276 179 1100 76 c 0,2,3
 937 -20 937 -20 743 -20 c 0,4,5
 466 -20 466 -20 351 134 c 0,6,7
 261 255 261 255 261 411 c 0,8,9
 261 482 261 482 278 554 c 0,10,11
 330 783 330 783 543 966 c 0,12,13
 732 1128 732 1128 1009 1128 c 0,14,15
 1268 1128 1268 1128 1390 960 c 0,16,17
 1474 844 1474 844 1474 688 c 0,18,19
 1474 613 1474 613 1455 529 c 2,20,-1
 1438 454 l 1,21,-1
 653 454 l 1,22,-1
 617 299 l 1,23,24
 688 218 688 218 801 218 c 0,25,26
 907 218 907 218 984 270 c 0,27,28
 1039 307 1039 307 1060 357 c 1,29,-1
 1384 357 l 1,0,1
706 684 m 1,30,-1
 1094 684 l 1,31,-1
 1124 815 l 1,32,33
 1044 894 1044 894 955 894 c 0,34,35
 851 894 851 894 736 815 c 1,36,-1
 706 684 l 1,30,-1
EndSplineSet
Validated: 1
EndChar

StartChar: partialdiff
Encoding: 8706 8706 171
Width: 1332
GlyphClass: 2
Flags: W
HStem: -20 328<467.5 692.318> 678 261<700.635 835.06> 1116 349<697.463 1124.5>
VStem: 229 361<223.5 504.353> 978 376<898.655 1086.76>
LayerCount: 2
Fore
SplineSet
598 410 m 16,0,1
 590 376 590 376 590 353 c 0,2,3
 590 308 590 308 621 308 c 0,4,5
 640 308 640 308 661 324 c 0,6,7
 715 366 715 366 780 452 c 0,8,9
 823 509 823 509 851 564 c 1,10,11
 844 678 844 678 764 678 c 24,12,13
 718 678 718 678 664 582 c 0,14,15
 620 505 620 505 598 410 c 16,0,1
668 1412 m 1,16,17
 844 1465 844 1465 978 1465 c 0,18,19
 1271 1465 1271 1465 1343 1158 c 0,20,21
 1354 1111 1354 1111 1354 1052 c 0,22,23
 1354 961 1354 961 1326 839 c 0,24,25
 1298 722 1298 722 1247 602 c 0,26,27
 1110 279 1110 279 905 118 c 0,28,29
 730 -20 730 -20 552 -20 c 0,30,31
 383 -20 383 -20 296 84 c 0,32,33
 229 164 229 164 229 283 c 0,34,35
 229 339 229 339 244 405 c 0,36,37
 288 599 288 599 425 757 c 0,38,39
 583 939 583 939 802 939 c 0,40,41
 899 939 899 939 972 898 c 1,42,43
 978 938 978 938 978 969 c 0,44,45
 978 986 978 986 976 1002 c 0,46,47
 969 1056 969 1056 939 1085 c 0,48,49
 907 1116 907 1116 843 1116 c 0,50,51
 751 1116 751 1116 575 1011 c 1,52,-1
 668 1412 l 1,16,17
EndSplineSet
Validated: 1
EndChar

StartChar: uni2206
Encoding: 8710 8710 172
Width: 1446
GlyphClass: 2
Flags: W
HStem: 0 267<479 1019> 1490 20G<908.934 1225.82>
DStem2: 10 0 479 267 0.516579 0.85624<470.892 1348.78>
LayerCount: 2
Fore
SplineSet
10 0 m 1,0,-1
 921 1510 l 1,1,-1
 1223 1510 l 1,2,-1
 1436 0 l 1,3,-1
 10 0 l 1,0,-1
479 267 m 1,4,-1
 1019 267 l 1,5,-1
 927 1022 l 1,6,-1
 479 267 l 1,4,-1
EndSplineSet
Validated: 1
EndChar

StartChar: product
Encoding: 8719 8719 173
Width: 1556
GlyphClass: 2
Flags: W
HStem: -410 20G<105 459.626 911 1265.62> 1233 277<835 1291>
VStem: 105 350<-410 -60> 549 1156<354 1510> 911 350<-411 -61>
DStem2: 104.769 -411 454.769 -411 0.224951 0.97437<79.7592 1766.13> 911 -411 1261 -411 0.224951 0.97437<78.7329 1687.35>
LayerCount: 2
Fore
SplineSet
549 1510 m 1,0,-1
 1705 1510 l 1,1,-1
 1261 -411 l 1,2,-1
 911 -411 l 1,3,-1
 1291 1233 l 1,4,-1
 835 1233 l 1,5,-1
 455 -410 l 1,6,-1
 105 -410 l 1,7,-1
 549 1510 l 1,0,-1
EndSplineSet
Validated: 1
EndChar

StartChar: summation
Encoding: 8721 8721 174
Width: 1646
GlyphClass: 2
Flags: W
HStem: -410 277<691 1396.66> 1233 277<1021 1663>
DStem2: 58 -410 691 -133 0.654402 0.756147<623.689 1297.37> 1021 1233 499 1510 0.398512 -0.917163<0 561.732>
LayerCount: 2
Fore
SplineSet
499 1510 m 1,0,-1
 1727 1510 l 1,1,-1
 1663 1233 l 1,2,-1
 1021 1233 l 1,3,-1
 1322 568 l 1,4,-1
 691 -133 l 1,5,-1
 1165 -133 l 2,6,7
 1348 -133 1348 -133 1481 -63 c 1,8,-1
 1413 -360 l 1,9,10
 1284 -410 1284 -410 1101 -410 c 2,11,-1
 58 -410 l 1,12,-1
 907 571 l 1,13,-1
 499 1510 l 1,0,-1
EndSplineSet
Validated: 1
EndChar

StartChar: minus
Encoding: 8722 8722 175
Width: 1333
GlyphClass: 2
Flags: W
HStem: 621 277<357 1326>
LayerCount: 2
Fore
SplineSet
1326 621 m 1,0,-1
 293 621 l 1,1,-1
 357 898 l 1,2,-1
 1390 898 l 1,3,-1
 1326 621 l 1,0,-1
EndSplineSet
Validated: 1
EndChar

StartChar: uni2215
Encoding: 8725 8725 176
Width: 1263
GlyphClass: 2
Flags: W
DStem2: 34 -68 285 -200 0.588416 0.808559<40.9626 2193.22>
LayerCount: 2
Fore
SplineSet
1325 1705 m 1,0,-1
 1576 1574 l 1,1,-1
 285 -200 l 1,2,-1
 34 -68 l 1,3,-1
 1325 1705 l 1,0,-1
EndSplineSet
Validated: 1
EndChar

StartChar: asteriskmath
Encoding: 8727 8727 177
Width: 1333
GlyphClass: 2
Flags: W
VStem: 584 277<243 520> 823 277<999 1276>
DStem2: 293 621 376 381 0.891066 0.453873<0 270.487 833.626 1103.22> 551 1138 357 898 0.832215 -0.554453<0 221.234 682.281 904.07> 584 243 861 243 0.224951 0.97437<62.3114 284.297 838.302 1060.29>
LayerCount: 2
Fore
SplineSet
823 1276 m 1,0,-1
 1100 1276 l 1,1,-1
 1036 999 l 1,2,-1
 1308 1138 l 1,3,-1
 1390 898 l 1,4,-1
 1119 760 l 1,5,-1
 1326 621 l 1,6,-1
 1133 381 l 1,7,-1
 925 520 l 1,8,-1
 861 243 l 1,9,-1
 584 243 l 1,10,-1
 648 520 l 1,11,-1
 376 381 l 1,12,-1
 293 621 l 1,13,-1
 565 760 l 1,14,-1
 357 898 l 1,15,-1
 551 1138 l 1,16,-1
 759 999 l 1,17,-1
 823 1276 l 1,0,-1
EndSplineSet
Validated: 1
EndChar

StartChar: uni2218
Encoding: 8728 8728 178
Width: 1144
GlyphClass: 2
Flags: W
HStem: 394 234<623.628 825.273> 895 244<663.47 865.336>
VStem: 360 252<516.14 843.975> 877 260<678.669 1016>
LayerCount: 2
Fore
SplineSet
618 762 m 0,0,1
 612 736 612 736 612 715 c 0,2,3
 612 628 612 628 714 628 c 0,4,5
 840 628 840 628 871 762 c 0,6,7
 877 787 877 787 877 809 c 0,8,9
 877 895 877 895 775 895 c 0,10,11
 649 895 649 895 618 762 c 0,0,1
376 765 m 0,12,13
 462 1139 462 1139 834 1139 c 0,14,15
 1137 1139 1137 1139 1137 893 c 0,16,17
 1137 837 1137 837 1121 767 c 0,18,19
 1036 394 1036 394 664 394 c 0,20,21
 360 394 360 394 360 640 c 0,22,23
 360 694 360 694 376 765 c 0,12,13
EndSplineSet
Validated: 1
EndChar

StartChar: uni2219
Encoding: 8729 8729 179
Width: 702
GlyphClass: 2
Flags: W
HStem: 558 406<421.507 634.493>
VStem: 318 420<672.188 850.969>
LayerCount: 2
Fore
SplineSet
327 760 m 4,0,1
 374 964 374 964 575 964 c 4,2,3
 738 964 738 964 738 831 c 4,4,5
 738 799 738 799 729 761 c 4,6,7
 681 558 681 558 481 558 c 4,8,9
 318 558 318 558 318 692 c 4,10,11
 318 722 318 722 327 760 c 4,0,1
EndSplineSet
Validated: 1
EndChar

StartChar: radical
Encoding: 8730 8730 180
Width: 1421
GlyphClass: 2
Flags: W
HStem: 0 21G<491.8 795.372> 1263 247<1440 1613>
DStem2: 774 524 785 0 0.460379 0.887723<0 962.639>
LayerCount: 2
Fore
SplineSet
495 0 m 1,0,-1
 399 600 l 1,1,-1
 239 600 l 1,2,-1
 297 855 l 1,3,-1
 727 855 l 1,4,-1
 774 524 l 1,5,-1
 1282 1510 l 1,6,-1
 1670 1510 l 1,7,-1
 1613 1263 l 1,8,-1
 1440 1263 l 1,9,-1
 785 0 l 1,10,-1
 495 0 l 1,0,-1
EndSplineSet
Validated: 1
EndChar

StartChar: uni221B
Encoding: 8731 8731 181
Width: 1421
GlyphClass: 2
Flags: W
HStem: 0 21G<491.8 795.372> 870 177<446.57 480.155 540.445 773.658> 1143 130<580 778.726> 1263 247<1440 1613> 1354 176<607.172 795.99>
VStem: 780 237<1054.92 1188.5> 796 241<1315.87 1473.5>
DStem2: 774 524 785 0 0.460379 0.887723<0 962.639>
LayerCount: 2
Fore
SplineSet
780 1119 m 0,0,1
 780 1143 780 1143 708 1143 c 2,2,-1
 550 1143 l 1,3,-1
 580 1273 l 1,4,-1
 600 1273 l 2,5,6
 796 1273 796 1273 796 1339 c 0,7,8
 796 1354 796 1354 754 1354 c 2,9,-1
 742 1354 l 2,10,11
 658 1354 658 1354 562 1315 c 1,12,-1
 605 1504 l 1,13,14
 674 1530 674 1530 806 1530 c 2,15,-1
 824 1530 l 2,16,17
 1037 1530 1037 1530 1037 1417 c 0,18,19
 1037 1400 1037 1400 1032 1380 c 0,20,21
 1019 1328 1019 1328 963 1249 c 1,22,23
 1017 1216 1017 1216 1017 1161 c 0,24,25
 1017 1147 1017 1147 1013 1131 c 0,26,27
 948 870 948 870 597 870 c 0,28,29
 414 870 414 870 414 1003 c 0,30,31
 414 1028 414 1028 420 1058 c 9,32,-1
 634 1098 l 17,33,34
 635 1047 635 1047 686 1047 c 0,35,36
 780 1047 780 1047 780 1119 c 0,0,1
495 0 m 1,37,-1
 399 600 l 1,38,-1
 239 600 l 1,39,-1
 297 855 l 1,40,-1
 727 855 l 1,41,-1
 774 524 l 1,42,-1
 1282 1510 l 1,43,-1
 1670 1510 l 1,44,-1
 1613 1263 l 1,45,-1
 1440 1263 l 1,46,-1
 785 0 l 1,47,-1
 495 0 l 1,37,-1
EndSplineSet
Validated: 1
EndChar

StartChar: infinity
Encoding: 8734 8734 182
Width: 1648
GlyphClass: 2
Flags: W
HStem: 394 234<623.628 827.339 1124.23 1329.03> 895 244<663.47 868.561 1165.7 1369.34>
VStem: 360 252<516.14 843.975> 877 239<680.344 844.588> 1381 260<679.961 1016>
LayerCount: 2
Fore
SplineSet
376 765 m 0,0,1
 462 1139 462 1139 834 1139 c 0,2,3
 995 1139 995 1139 1070 1070 c 1,4,5
 1178 1139 1178 1139 1338 1139 c 0,6,7
 1641 1139 1641 1139 1641 893 c 0,8,9
 1641 837 1641 837 1625 767 c 0,10,11
 1540 394 1540 394 1168 394 c 0,12,13
 1007 394 1007 394 931 463 c 1,14,15
 824 394 824 394 664 394 c 0,16,17
 360 394 360 394 360 640 c 0,18,19
 360 695 360 695 376 765 c 0,0,1
618 762 m 0,20,21
 612 736 612 736 612 715 c 0,22,23
 612 628 612 628 714 628 c 0,24,25
 839 628 839 628 871 762 c 0,26,27
 877 787 877 787 877 809 c 0,28,29
 877 895 877 895 775 895 c 0,30,31
 649 895 649 895 618 762 c 0,20,21
1122 762 m 0,32,33
 1116 736 1116 736 1116 715 c 0,34,35
 1116 628 1116 628 1218 628 c 0,36,37
 1343 628 1343 628 1375 762 c 0,38,39
 1381 787 1381 787 1381 809 c 0,40,41
 1381 895 1381 895 1279 895 c 0,42,43
 1153 895 1153 895 1122 762 c 0,32,33
EndSplineSet
Validated: 1
EndChar

StartChar: approxequal
Encoding: 8776 8776 183
Width: 1358
GlyphClass: 2
Flags: W
HStem: 248 296<861.905 1144> 457 296<444 726.024> 756 296<979.905 1262> 965 296<562 844.024>
LayerCount: 2
Fore
SplineSet
229 346 m 1,0,1
 323 753 323 753 565 753 c 0,2,3
 693 753 693 753 781 665 c 0,4,5
 902 544 902 544 930 544 c 0,6,7
 983 544 983 544 1031 753 c 1,8,-1
 1359 655 l 1,9,10
 1265 248 1265 248 1023 248 c 0,11,12
 887 248 887 248 807 336 c 0,13,14
 697 457 697 457 658 457 c 0,15,16
 605 457 605 457 557 248 c 1,17,-1
 229 346 l 1,0,1
347 854 m 1,18,19
 441 1261 441 1261 683 1261 c 0,20,21
 811 1261 811 1261 899 1173 c 0,22,23
 1020 1052 1020 1052 1048 1052 c 0,24,25
 1101 1052 1101 1052 1149 1261 c 1,26,-1
 1477 1163 l 1,27,28
 1383 756 1383 756 1141 756 c 0,29,30
 1005 756 1005 756 925 844 c 0,31,32
 815 965 815 965 776 965 c 0,33,34
 723 965 723 965 675 756 c 1,35,-1
 347 854 l 1,18,19
EndSplineSet
Validated: 1
EndChar

StartChar: notequal
Encoding: 8800 8800 184
Width: 1411
GlyphClass: 2
Flags: W
HStem: 0 21G<150 505.822> 394 277<344 441 988 1313> 848 277<449 777 1325 1418> 1490 20G<1251.19 1610>
VStem: 150 341<0 341> 1266 344<1166 1510>
DStem2: 150 0 491 0 0.595393 0.803435<203.029 489.813 1038.04 1054.62 1603.45 1877.64>
LayerCount: 2
Fore
SplineSet
150 0 m 1,0,-1
 441 394 l 1,1,-1
 280 394 l 1,2,-1
 344 671 l 1,3,-1
 646 671 l 1,4,-1
 777 848 l 1,5,-1
 385 848 l 1,6,-1
 449 1125 l 1,7,-1
 981 1125 l 1,8,-1
 1266 1510 l 1,9,-1
 1610 1510 l 1,10,-1
 1325 1125 l 1,11,-1
 1482 1125 l 1,12,-1
 1418 848 l 1,13,-1
 1119 848 l 1,14,-1
 988 671 l 1,15,-1
 1377 671 l 1,16,-1
 1313 394 l 1,17,-1
 783 394 l 1,18,-1
 491 0 l 1,19,-1
 150 0 l 1,0,-1
EndSplineSet
Validated: 1
EndChar

StartChar: equivalence
Encoding: 8801 8801 185
Width: 1333
GlyphClass: 2
Flags: W
HStem: 167 277<253 1222> 621 277<357 1326> 1075 277<462 1431>
CounterMasks: 1 e0
LayerCount: 2
Fore
SplineSet
1222 167 m 1,0,-1
 189 167 l 1,1,-1
 253 444 l 1,2,-1
 1286 444 l 1,3,-1
 1222 167 l 1,0,-1
1326 621 m 1,4,-1
 293 621 l 1,5,-1
 357 898 l 1,6,-1
 1390 898 l 1,7,-1
 1326 621 l 1,4,-1
1431 1075 m 1,8,-1
 398 1075 l 1,9,-1
 462 1352 l 1,10,-1
 1495 1352 l 1,11,-1
 1431 1075 l 1,8,-1
EndSplineSet
Validated: 1
EndChar

StartChar: lessequal
Encoding: 8804 8804 186
Width: 1406
GlyphClass: 2
Flags: W
HStem: -20 300<265 1201>
DStem2: 861 933 376 764 0.884554 -0.466437<0 560.559> 436 1023 861 933 0.905998 0.423281<346.954 1037.34>
LayerCount: 2
Fore
SplineSet
1564 1550 m 1,0,-1
 1488 1222 l 1,1,-1
 861 933 l 1,2,-1
 1365 687 l 1,3,-1
 1273 291 l 1,4,-1
 376 764 l 1,5,-1
 436 1023 l 1,6,-1
 1564 1550 l 1,0,-1
1201 -20 m 1,7,-1
 195 -20 l 1,8,-1
 265 280 l 1,9,-1
 1271 280 l 1,10,-1
 1201 -20 l 1,7,-1
EndSplineSet
Validated: 1
EndChar

StartChar: greaterequal
Encoding: 8805 8805 187
Width: 1406
GlyphClass: 2
Flags: W
HStem: -20 300<265 1201>
DStem2: 343 619 267 291 0.905998 0.423281<0 690.389>
LayerCount: 2
Fore
SplineSet
558 1550 m 1,0,-1
 1455 1077 l 1,1,-1
 1395 818 l 1,2,-1
 267 291 l 1,3,-1
 343 619 l 1,4,-1
 970 908 l 1,5,-1
 466 1154 l 1,6,-1
 558 1550 l 1,0,-1
195 -20 m 1,7,-1
 265 280 l 1,8,-1
 1271 280 l 1,9,-1
 1201 -20 l 1,10,-1
 195 -20 l 1,7,-1
EndSplineSet
Validated: 1
EndChar

StartChar: lozenge
Encoding: 9674 9674 188
Width: 1413
GlyphClass: 2
Flags: W
HStem: 0 21G<695.127 726.106> 1490 20G<1034.84 1065.98>
LayerCount: 2
Fore
SplineSet
854 493 m 1,0,-1
 1066 705 l 1,1,-1
 897 998 l 1,2,-1
 683 797 l 1,3,-1
 854 493 l 1,0,-1
706 0 m 1,4,-1
 295 756 l 1,5,-1
 1055 1510 l 1,6,-1
 1468 758 l 1,7,-1
 706 0 l 1,4,-1
EndSplineSet
Validated: 1
EndChar

StartChar: s
Encoding: 115 115 190
Width: 1318
Flags: W
HStem: -20 274<368 872.352> 846 274<731.193 1138.67 1272.39 1321>
VStem: 353 362<584.5 827.492> 908 358<294.228 564.5>
LayerCount: 2
Fore
SplineSet
226 330 m 9,0,-1
 599 428 l 17,1,2
 591 394 591 394 591 366 c 0,3,4
 591 254 591 254 721 254 c 0,5,6
 908 254 908 254 908 395 c 24,7,8
 908 442 908 442 770 453 c 0,9,10
 353 486 353 486 353 683 c 0,11,12
 353 708 353 708 359 734 c 8,13,14
 448 1120 448 1120 1048 1120 c 0,15,16
 1331 1120 1331 1120 1331 916 c 0,17,18
 1331 879 1331 879 1321 834 c 1,19,20
 1261 819 1261 819 948 736 c 1,21,22
 952 754 952 754 952 770 c 0,23,24
 952 846 952 846 849 846 c 0,25,26
 715 846 715 846 715 759 c 0,27,28
 715 721 715 721 832 711 c 0,29,30
 1266 674 1266 674 1266 455 c 0,31,32
 1266 426 1266 426 1259 394 c 8,33,34
 1168 -20 1168 -20 524 -20 c 0,35,36
 212 -20 212 -20 212 218 c 0,37,38
 212 268 212 268 226 330 c 9,0,-1
EndSplineSet
Validated: 1
EndChar

StartChar: M
Encoding: 77 77 191
Width: 1844
Flags: W
HStem: 0 21G<200 554.615 1339 1714> 1490 20G<479 967 1533 1993>
VStem: 200 350<0 350> 1334 358<1.51941 362.422>
DStem2: 200 0 550 0 0.224951 0.97437<78.7329 1278.5> 1293.74 0 1643.74 0 0.224951 0.97437<224.392 1202.98>
LayerCount: 2
Fore
SplineSet
200 0 m 1,0,-1
 479 1210 l 2,1,2
 500 1300 500 1300 500 1375 c 128,-1,3
 500 1450 500 1450 479 1510 c 1,4,-1
 774 1510 l 2,5,6
 1160 1510 1160 1510 1160 1131 c 0,7,8
 1160 1083 1160 1083 1154 1029 c 1,9,-1
 1163 1029 l 17,10,11
 1348 1510 1348 1510 1718 1510 c 2,12,-1
 1993 1510 l 1,13,-1
 1713 300 l 2,14,15
 1692 211 1692 211 1692 136 c 0,16,17
 1693 59 1693 59 1714 0 c 1,18,-1
 1344 0 l 1,19,20
 1334 38 1334 38 1334 89 c 0,21,22
 1335 180 1335 180 1363 300 c 2,23,-1
 1565 1172 l 1,24,25
 1351 1100 1351 1100 1229 570 c 1,26,-1
 879 570 l 1,27,28
 928 781 928 781 928 919 c 0,29,30
 927 1125 927 1125 820 1170 c 9,31,-1
 550 0 l 1,32,-1
 200 0 l 1,0,-1
EndSplineSet
Validated: 1
EndChar

StartChar: N
Encoding: 78 78 192
Width: 1556
Flags: W
HStem: 0 21G<200 554.615 1005 1359.64> 1490 20G<479 985 1350.35 1705>
VStem: 200 350<0 350> 1355 350<1160 1510>
DStem2: 200 0 550 0 0.224951 0.97437<78.7329 1278.5> 1005 0 1355 0 0.224951 0.97437<78.7329 522.502 1108.56 1550.03>
LayerCount: 2
Fore
SplineSet
200 0 m 1,0,-1
 479 1210 l 2,1,2
 500 1300 500 1300 500 1375 c 128,-1,3
 500 1450 500 1450 479 1510 c 1,4,-1
 807 1510 l 2,5,6
 1163 1510 1163 1510 1247 1080 c 9,7,-1
 1255 1080 l 17,8,-1
 1355 1510 l 1,9,-1
 1705 1510 l 1,10,-1
 1355 0 l 1,11,-1
 1005 0 l 1,12,13
 1080 324 1080 324 1080 565 c 0,14,15
 1079 1013 1079 1013 820 1170 c 9,16,-1
 550 0 l 1,17,-1
 200 0 l 1,0,-1
EndSplineSet
Validated: 1
EndChar

StartChar: W
Encoding: 87 87 193
Width: 2045
Flags: W
HStem: -20 300<416 767.514> -20 256<1134 1491.82> 1490 20G<479 853.5 1859.38 2214>
VStem: 259 375<97 446.117> 500 358<1144.36 1508.51> 1864 350<1160 1510>
DStem2: 194.274 -20 544.19 -20 0.224951 0.97437<456.178 1427.21> 862.12 -20 1212.73 -20 0.224951 0.97437<563.043 1303.56> 1510.79 -20 1860.01 -20 0.224951 0.97437<416.326 1570.24>
LayerCount: 2
Fore
SplineSet
479 1510 m 1,0,1
 849 1510 l 1,2,3
 858 1474 858 1474 858 1424 c 0,4,5
 858 1335 858 1335 829 1210 c 2,6,-1
 640 395 l 2,7,8
 634 367 634 367 634 346 c 0,9,10
 634 280 634 280 694 280 c 0,11,12
 932 280 932 280 1120 1097 c 2,13,-1
 1156 1250 l 1,14,-1
 1506 1250 l 1,15,-1
 1312 410 l 2,16,17
 1299 356 1299 356 1299 319 c 0,18,19
 1299 236 1299 236 1362 236 c 0,20,21
 1569 236 1569 236 1650 583 c 2,22,-1
 1864 1510 l 1,23,-1
 2214 1510 l 1,24,-1
 2005 608 l 2,25,26
 1860 -20 1860 -20 1241 -20 c 0,27,28
 1027 -20 1027 -20 949 140 c 1,29,30
 763 -20 763 -20 573 -20 c 0,31,32
 259 -20 259 -20 259 214 c 0,33,34
 259 263 259 263 273 321 c 2,35,-1
 479 1212 l 2,36,37
 500 1302 500 1302 500 1376.5 c 128,-1,38
 500 1451 500 1451 479 1510 c 1,0,1
EndSplineSet
Validated: 1
EndChar

StartChar: A
Encoding: 65 65 194
Width: 1536
Flags: W
HStem: 0 21G<180 534.605 1030.5 1406> 621 277<737 1129> 1260 270<922.835 1218.12>
VStem: 180 350<0 350> 1025 359<1.4574 363.969> 1246 361<984.273 1380.88>
DStem2: 180 0 530 0 0.224951 0.97437<78.7329 715.985 1000.28 1234.68> 985.74 0 1335.74 0 0.224951 0.97437<224.392 637.31 921.608 1175.54>
LayerCount: 2
Fore
SplineSet
737 898 m 9,0,-1
 1193 898 l 1,1,-1
 1241 1104 l 2,2,3
 1246 1127 1246 1127 1246 1147 c 0,4,5
 1246 1260 1246 1260 1072 1260 c 0,6,7
 821 1260 821 1260 737 898 c 9,0,-1
180 0 m 1,8,-1
 389 907 l 2,9,10
 533 1530 533 1530 1189 1530 c 0,11,12
 1607 1530 1607 1530 1607 1231 c 0,13,14
 1607 1173 1607 1173 1591 1103 c 2,15,-1
 1405 300 l 2,16,17
 1384 211 1384 211 1384 136 c 0,18,19
 1384 59 1384 59 1406 0 c 1,20,-1
 1036 0 l 1,21,22
 1025 34 1025 34 1025 85 c 0,23,24
 1025 170 1025 170 1055 300 c 2,25,-1
 1129 621 l 1,26,-1
 673 621 l 1,27,-1
 530 0 l 1,28,-1
 180 0 l 1,8,-1
EndSplineSet
Validated: 1
EndChar

StartChar: onequarter
Encoding: 188 188 195
Width: 1868
Flags: W
HStem: 0 21G<228 583.821 1368 1672.62> 1490 20G<498 865 1329.22 1688>
VStem: 228 341<0 341> 431 300<705 1005> 1194 300<505 805> 1344 344<1166 1510>
DStem2: 228 0 569 0 0.595393 0.803435<203.029 1877.64> 268.238 0 568.238 0 0.224951 0.97437<791.03 1278.8> 1368 0 1668 0 0.224951 0.97437<67.4853 227.783 452.642 751.256>
LayerCount: 2
Fore
SplineSet
228 0 m 1,0,-1
 1344 1510 l 1,1,-1
 1688 1510 l 9,2,-1
 569 0 l 17,3,-1
 228 0 l 1,0,-1
1368 0 m 1,4,-1
 1419 222 l 1,5,-1
 1059 222 l 1,6,-1
 1194 805 l 17,7,-1
 1494 805 l 9,8,-1
 1410 441 l 1,9,-1
 1470 441 l 1,10,-1
 1537 732 l 1,11,-1
 1837 732 l 1,12,-1
 1668 0 l 1,13,-1
 1368 0 l 1,4,-1
431 705 m 1,14,-1
 556 1246 l 1,15,-1
 438 1246 l 1,16,-1
 498 1509 l 1,17,-1
 849 1510 l 1,18,19
 881 1473 881 1473 881 1402 c 0,20,21
 881 1356 881 1356 867 1295 c 2,22,-1
 731 705 l 1,23,-1
 431 705 l 1,14,-1
EndSplineSet
Validated: 1
EndChar

StartChar: onehalf
Encoding: 189 189 196
Width: 1861
Flags: W
HStem: 0 225<1320 1653.2> 583 232<1209.79 1477.99> 1490 20G<498 865 1329.22 1688>
VStem: 228 341<0 341> 431 300<705 1005> 1344 344<1166 1510> 1478 317<519.432 732.5>
DStem2: 228 0 569 0 0.595393 0.803435<203.029 1877.64> 268.238 0 568.238 0 0.224951 0.97437<791.03 1278.8>
LayerCount: 2
Fore
SplineSet
957 0 m 17,0,1
 1059 446 1059 446 1378 472 c 0,2,3
 1478 480 1478 480 1478 551 c 0,4,5
 1478 583 1478 583 1423 583 c 2,6,-1
 1406 583 l 2,7,8
 1281 583 1281 583 1132 513 c 1,9,-1
 1191 765 l 1,10,11
 1341 815 1341 815 1502 815 c 2,12,-1
 1526 815 l 2,13,14
 1795 815 1795 815 1795 650 c 0,15,16
 1795 623 1795 623 1788 591 c 8,17,18
 1728 315 1728 315 1373 305 c 0,19,20
 1338 304 1338 304 1320 225 c 9,21,-1
 1413 225 l 2,22,23
 1596 225 1596 225 1729 295 c 1,24,-1
 1672 50 l 1,25,26
 1522 0 1522 0 1360 0 c 2,27,-1
 957 0 l 17,0,1
228 0 m 1,28,-1
 1344 1510 l 1,29,-1
 1688 1510 l 9,30,-1
 569 0 l 17,31,-1
 228 0 l 1,28,-1
431 705 m 1,32,-1
 556 1246 l 1,33,-1
 438 1246 l 1,34,-1
 498 1509 l 1,35,-1
 849 1510 l 1,36,37
 881 1473 881 1473 881 1402 c 0,38,39
 881 1356 881 1356 867 1295 c 2,40,-1
 731 705 l 1,41,-1
 431 705 l 1,32,-1
EndSplineSet
Validated: 1
EndChar

StartChar: threequarters
Encoding: 190 190 197
Width: 2084
Flags: W
HStem: 0 21G<442 797.821 1584 1888.62> 705 221<414.758 427.256 526.594 804.875> 1046 163<567 817.62> 1310 220<601.676 836.987> 1490 20G<1543.22 1902>
VStem: 361 752<705 901> 442 341<0 341> 818 295<943.488 1101> 837 300<1268.48 1458.5> 1410 300<505 805> 1558 344<1166 1510>
DStem2: 442 0 783 0 0.595393 0.803435<203.029 1877.64> 1584 0 1884 0 0.224951 0.97437<67.4853 227.783 452.642 751.256>
LayerCount: 2
Fore
SplineSet
367 940 m 9,0,-1
 636 990 l 17,1,2
 638 926 638 926 699 926 c 0,3,4
 818 926 818 926 818 1018 c 0,5,6
 818 1046 818 1046 726 1046 c 2,7,-1
 529 1046 l 1,8,-1
 567 1209 l 1,9,-1
 592 1209 l 2,10,11
 837 1209 837 1209 837 1284 c 0,12,13
 837 1310 837 1310 784 1310 c 2,14,-1
 769 1310 l 2,15,16
 663 1310 663 1310 544 1261 c 1,17,-1
 599 1497 l 1,18,19
 684 1530 684 1530 850 1530 c 2,20,-1
 872 1530 l 2,21,22
 1137 1530 1137 1530 1137 1387 c 0,23,24
 1137 1365 1137 1365 1131 1342 c 8,25,26
 1115 1280 1115 1280 1046 1179 c 1,27,28
 1113 1136 1113 1136 1113 1066 c 0,29,30
 1113 1046 1113 1046 1108 1021 c 0,31,32
 1046 705 1046 705 588 705 c 0,33,34
 362 705 362 705 361 869 c 0,35,36
 361 901 361 901 367 940 c 9,0,-1
1584 0 m 1,37,-1
 1635 222 l 1,38,-1
 1275 222 l 1,39,-1
 1410 805 l 17,40,-1
 1710 805 l 9,41,-1
 1626 441 l 1,42,-1
 1686 441 l 1,43,-1
 1753 732 l 1,44,-1
 2053 732 l 1,45,-1
 1884 0 l 1,46,-1
 1584 0 l 1,37,-1
442 0 m 1,47,-1
 1558 1510 l 1,48,-1
 1902 1510 l 9,49,-1
 783 0 l 17,50,-1
 442 0 l 1,47,-1
EndSplineSet
Validated: 1
EndChar

StartChar: germandbls
Encoding: 223 223 198
Width: 1406
Flags: W
HStem: 0 277<708 893.046> 691 240<879 1001.21> 1256 274<911.36 1279.5>
VStem: 200 350<0 350> 1047 360<448.958 654.976> 1098 352<1071.13 1403.5>
DStem2: 200 0 550 0 0.224951 0.97437<78.7329 1232.33>
LayerCount: 2
Fore
SplineSet
200 0 m 1,0,-1
 402 874 l 2,1,2
 553 1530 553 1530 1109 1530 c 0,3,4
 1450 1530 1450 1530 1450 1277 c 0,5,6
 1450 1225 1450 1225 1435 1159 c 0,7,8
 1394 979 1394 979 1234 870 c 1,9,10
 1407 810 1407 810 1407 650 c 0,11,12
 1407 611 1407 611 1397 566 c 0,13,14
 1271 0 1271 0 644 0 c 9,15,-1
 708 277 l 17,16,17
 989 280 989 280 1044 553 c 0,18,19
 1047 568 1047 568 1047 581 c 0,20,21
 1047 691 1047 691 824 691 c 9,22,-1
 879 931 l 17,23,24
 1045 935 1045 935 1093 1146 c 16,25,26
 1098 1168 1098 1168 1098 1185 c 0,27,28
 1098 1256 1098 1256 1022 1256 c 8,29,30
 840 1256 840 1256 752 876 c 2,31,-1
 550 0 l 1,32,-1
 200 0 l 1,0,-1
EndSplineSet
Validated: 1
EndChar

StartChar: uni0191
Encoding: 401 401 199
Width: 1237
Flags: W
HStem: -430 21G<-84.4135 196> 621 277<757 1260> 1233 277<835 1402>
DStem2: 100.466 -430 450.466 -430 0.224951 0.97437<509.767 1157.35 1441.65 1785.61>
LayerCount: 2
Fore
SplineSet
479 1510 m 1,0,-1
 1466 1510 l 1,1,-1
 1402 1233 l 1,2,-1
 835 1233 l 9,3,-1
 757 898 l 1,4,-1
 1324 898 l 1,5,-1
 1260 621 l 1,6,-1
 693 621 l 1,7,-1
 619 300 l 2,8,9
 481 -301 481 -301 -89 -430 c 1,10,-1
 -28 -164 l 1,11,12
 193 -30 193 -30 269 300 c 2,13,-1
 479 1210 l 2,14,15
 494 1275 494 1275 494 1350 c 128,-1,16
 494 1425 494 1425 479 1510 c 1,0,-1
EndSplineSet
Validated: 1
EndChar

StartChar: Oslash
Encoding: 216 216 200
Width: 1538
Flags: W
HStem: -20 274<600.5 980.129> 1256 274<906.371 1285.5>
DStem2: 155.266 -20 505.177 -20 0.224951 0.97437<638.049 1237.65> 631 525 693 269 0.620525 0.784187<0 741.824> 1023.32 -20 1372.94 -20 0.224951 0.97437<431.982 1024.31>
LayerCount: 2
Fore
SplineSet
216 0 m 1,0,-1
 294 98 l 1,1,2
 237 167 237 167 237 275 c 0,3,4
 237 334 237 334 252 399 c 2,5,-1
 369 906 l 2,6,7
 513 1530 513 1530 1231 1530 c 0,8,9
 1340 1530 1340 1530 1422 1510 c 1,10,-1
 1675 1510 l 1,11,-1
 1596 1410 l 1,12,13
 1650 1343 1650 1343 1650 1238 c 0,14,15
 1650 1181 1650 1181 1634 1111 c 2,16,-1
 1517 604 l 2,17,18
 1373 -20 1373 -20 655 -20 c 0,19,20
 546 -20 546 -20 465 0 c 1,21,-1
 216 0 l 1,0,-1
631 525 m 1,22,-1
 1196 1240 l 1,23,24
 1146 1256 1146 1256 1066 1256 c 0,25,26
 800 1256 800 1256 718 899 c 2,27,-1
 631 525 l 1,22,-1
1254 978 m 1,28,-1
 693 269 l 1,29,30
 744 254 744 254 821 254 c 0,31,32
 1087 254 1087 254 1169 611 c 2,33,-1
 1254 978 l 1,28,-1
EndSplineSet
Validated: 1
EndChar

StartChar: eth
Encoding: 240 240 201
Width: 1373
Flags: W
HStem: -20 274<385 843.16> 672 274<707.808 1002.5>
VStem: 215 366<103.5 465.444>
DStem2: 679 1206 762 966 0.892752 0.450548<0 138.635 599.333 802.709>
LayerCount: 2
Fore
SplineSet
229 342 m 2,0,-1
 249 430 l 2,1,2
 366 946 366 946 994 946 c 0,3,4
 1011 946 1011 946 1043 944 c 1,5,6
 1052 981 1052 981 1052 1015 c 0,7,8
 1051 1064 1051 1064 1034 1103 c 1,9,-1
 762 966 l 1,10,-1
 679 1206 l 1,11,-1
 803 1268 l 1,12,13
 748 1284 748 1284 683 1296 c 1,14,-1
 933 1550 l 1,15,16
 1081 1529 1081 1529 1180 1458 c 1,17,-1
 1428 1584 l 1,18,-1
 1509 1343 l 1,19,-1
 1333 1254 l 1,20,21
 1376 1140 1376 1140 1376 984 c 0,22,23
 1376 815 1376 815 1325 592 c 2,24,-1
 1303 496 l 2,25,26
 1185 -20 1185 -20 555 -20 c 0,27,28
 215 -20 215 -20 215 227 c 0,29,30
 215 280 215 280 229 342 c 2,0,-1
584 363 m 2,31,32
 581 348 581 348 581 336 c 0,33,34
 581 254 581 254 721 254 c 0,35,36
 897 254 897 254 954 501 c 2,37,-1
 968 563 l 2,38,39
 971 578 971 578 971 590 c 0,40,41
 971 672 971 672 831 672 c 0,42,43
 655 672 655 672 598 425 c 2,44,-1
 584 363 l 2,31,32
EndSplineSet
Validated: 1
EndChar

StartChar: oslash
Encoding: 248 248 202
Width: 1338
Flags: W
HStem: -20 274<658 837.25> 846 274<754.75 951>
DStem2: 605 456 658 254 0.663649 0.748044<0 384.675>
LayerCount: 2
Fore
SplineSet
230 0 m 1,0,-1
 278 61 l 1,1,2
 215 122 215 122 215 230 c 0,3,4
 215 280 215 280 229 342 c 2,5,-1
 289 604 l 2,6,7
 409 1120 409 1120 1037 1120 c 0,8,9
 1133 1120 1133 1120 1202 1100 c 1,10,-1
 1364 1100 l 1,11,-1
 1316 1038 l 1,12,13
 1377 977 1377 977 1377 871 c 0,14,15
 1377 819 1377 819 1363 758 c 2,16,-1
 1303 496 l 2,17,18
 1183 -20 1183 -20 555 -20 c 0,19,20
 459 -20 459 -20 390 0 c 1,21,-1
 230 0 l 1,0,-1
951 846 m 1,22,-1
 871 846 l 2,23,24
 695 846 695 846 638 599 c 2,25,-1
 605 456 l 1,26,-1
 951 846 l 1,22,-1
984 634 m 1,27,-1
 658 254 l 1,28,-1
 721 254 l 2,29,30
 897 254 897 254 954 501 c 2,31,-1
 984 634 l 1,27,-1
EndSplineSet
Validated: 1
EndChar

StartChar: uni1E02
Encoding: 7682 7682 203
Width: 1486
Flags: W
HStem: 0 277<614 967.981> 690 277<773 1093.62> 1233 277<835 1166.38> 1566 381<979.553 1185.04>
VStem: 1127 367<480.094 688> 1175 357<1093.83 1390.5>
DStem2: 200 0 550.049 0 0.224951 0.97437<363.03 786.815 1071.11 1344.24>
LayerCount: 2
Fore
SplineSet
1128 1947 m 0,0,1
 1280 1947 1280 1947 1280 1824 c 0,2,3
 1280 1799 1280 1799 1272 1760 c 0,4,5
 1230 1566 1230 1566 1038 1566 c 0,6,7
 888 1566 888 1566 888 1692 c 0,8,9
 888 1720 888 1720 896 1758 c 0,10,11
 936 1947 936 1947 1128 1947 c 0,0,1
200 0 m 1,12,-1
 479 1210 l 2,13,14
 500 1300 500 1300 500 1375 c 128,-1,15
 500 1450 500 1450 479 1510 c 1,16,-1
 1116 1510 l 2,17,18
 1532 1510 1532 1510 1532 1271 c 0,19,20
 1532 1234 1532 1234 1522 1192 c 0,21,22
 1478 1006 1478 1006 1319 894 c 1,23,24
 1494 859 1494 859 1494 688 c 0,25,26
 1494 641 1494 641 1481 584 c 0,27,28
 1348 0 1348 0 628 0 c 2,29,-1
 200 0 l 1,12,-1
614 277 m 1,30,-1
 794 277 l 2,31,32
 1054 277 1054 277 1123 552 c 0,33,34
 1127 568 1127 568 1127 581 c 0,35,36
 1123 690 1123 690 903 690 c 2,37,-1
 709 690 l 1,38,-1
 614 277 l 1,30,-1
773 967 m 1,39,-1
 939 967 l 2,40,41
 1133 967 1133 967 1173 1146 c 0,42,43
 1175 1155 1175 1155 1175 1163 c 0,44,45
 1175 1233 1175 1233 1027 1233 c 2,46,-1
 835 1233 l 25,47,-1
 773 967 l 1,39,-1
EndSplineSet
Validated: 1
EndChar

StartChar: uni1E03
Encoding: 7683 7683 204
Width: 1378
Flags: W
HStem: -20 286<416.5 883.913> 820 300<885.743 1255.5> 1169 381<1051.16 1256.54> 1490 20G<479 853.5>
VStem: 259 374<94.5 443.29> 500 358<1148.39 1508.5> 1039 374<650.922 1005.5>
DStem2: 195.583 -20 544.884 -20 0.224951 0.97437<459.311 748.849 1140.84 1425.44>
LayerCount: 2
Fore
SplineSet
1200 1550 m 0,0,1
 1352 1550 1352 1550 1352 1427 c 0,2,3
 1352 1399 1352 1399 1344 1363 c 0,4,5
 1301 1169 1301 1169 1110 1169 c 0,6,7
 959 1169 959 1169 959 1295 c 0,8,9
 959 1325 959 1325 967 1361 c 0,10,11
 1009 1550 1009 1550 1200 1550 c 0,0,1
479 1510 m 1,12,-1
 849 1510 l 1,13,14
 858 1474 858 1474 858 1424 c 0,15,16
 858 1336 858 1336 829 1210 c 2,17,-1
 784 1015 l 1,18,19
 921 1120 921 1120 1098 1120 c 0,20,21
 1413 1120 1413 1120 1413 891 c 0,22,23
 1413 845 1413 845 1400 789 c 2,24,-1
 1333 496 l 2,25,26
 1213 -20 1213 -20 574 -20 c 0,27,28
 259 -20 259 -20 259 209 c 0,29,30
 259 255 259 255 272 311 c 2,31,-1
 479 1210 l 2,32,33
 500 1300 500 1300 500 1375 c 128,-1,34
 500 1450 500 1450 479 1510 c 1,12,-1
637 379 m 0,35,36
 633 363 633 363 633 350 c 0,37,38
 633 266 633 266 774 266 c 0,39,40
 930 266 930 266 984 501 c 2,41,-1
 1034 718 l 2,42,43
 1039 741 1039 741 1039 759 c 0,44,45
 1039 820 1039 820 977 820 c 0,46,47
 876 820 876 820 782 688 c 0,48,49
 678 541 678 541 637 379 c 0,35,36
EndSplineSet
Validated: 1
EndChar

StartChar: uni1E0A
Encoding: 7690 7690 205
Width: 1538
Flags: W
HStem: 0 277<614 983.688> 1233 277<835 1239.99> 1566 381<1031.55 1235.48>
VStem: 1281 365<968.812 1363.5>
DStem2: 200 0 550.049 0 0.224951 0.97437<363.03 1344.24> 1027.78 0 1378.4 0 0.224951 0.97437<427.83 1140.89>
LayerCount: 2
Fore
SplineSet
1180 1947 m 0,0,1
 1332 1947 1332 1947 1332 1824 c 0,2,3
 1332 1800 1332 1800 1324 1760 c 0,4,5
 1280 1566 1280 1566 1090 1566 c 0,6,7
 940 1566 940 1566 940 1692 c 0,8,9
 940 1719 940 1719 948 1758 c 0,10,11
 989 1947 989 1947 1180 1947 c 0,0,1
200 0 m 1,12,-1
 479 1210 l 2,13,14
 500 1300 500 1300 500 1375 c 128,-1,15
 500 1450 500 1450 479 1510 c 1,16,-1
 1227 1510 l 2,17,18
 1646 1510 1646 1510 1646 1217 c 0,19,20
 1646 1160 1646 1160 1630 1092 c 2,21,-1
 1522 622 l 2,22,23
 1378 0 1378 0 661 0 c 2,24,-1
 200 0 l 1,12,-1
614 277 m 1,25,-1
 827 277 l 2,26,27
 1092 277 1092 277 1173 629 c 2,28,-1
 1276 1075 l 2,29,30
 1281 1095 1281 1095 1281 1113 c 0,31,32
 1281 1233 1281 1233 1060 1233 c 2,33,-1
 835 1233 l 9,34,-1
 614 277 l 1,25,-1
EndSplineSet
Validated: 1
EndChar

StartChar: uni1E0B
Encoding: 7691 7691 206
Width: 1378
Flags: W
HStem: -20 300<376.5 726.522> 0 21G<875.5 1248> 834 286<741.977 987.205> 1169 381<723.163 928.543> 1490 20G<1107 1481>
VStem: 219 374<94.5 449.078> 1128 357<1137.7 1508.4>
DStem2: 825.851 -20 1173.12 -20 0.224951 0.97437<499.987 787.315 1146.74 1425.87>
LayerCount: 2
Fore
SplineSet
872 1550 m 0,0,1
 1024 1550 1024 1550 1024 1427 c 0,2,3
 1024 1399 1024 1399 1016 1363 c 0,4,5
 973 1169 973 1169 782 1169 c 0,6,7
 631 1169 631 1169 631 1295 c 0,8,9
 631 1325 631 1325 639 1361 c 0,10,11
 681 1550 681 1550 872 1550 c 0,0,1
993 704 m 0,12,13
 998 726 998 726 998 749 c 0,14,15
 998 834 998 834 858 834 c 0,16,17
 702 834 702 834 648 599 c 2,18,-1
 598 382 l 2,19,20
 593 360 593 360 593 342 c 0,21,22
 593 280 593 280 655 280 c 0,23,24
 740 280 740 280 847 412 c 0,25,26
 958 549 958 549 993 704 c 0,12,13
1248 0 m 1,27,-1
 878 0 l 1,28,29
 873 30 873 30 873 108 c 1,30,31
 694 -20 694 -20 534 -20 c 0,32,33
 219 -20 219 -20 219 209 c 0,34,35
 219 254 219 254 232 311 c 2,36,-1
 299 604 l 2,37,38
 417 1120 417 1120 917 1120 c 0,39,40
 1007 1120 1007 1120 1081 1098 c 1,41,-1
 1107 1210 l 2,42,43
 1128 1300 1128 1300 1128 1376 c 0,44,45
 1128 1450 1128 1450 1107 1510 c 1,46,-1
 1477 1510 l 1,47,48
 1485 1468 1485 1468 1485 1420 c 0,49,50
 1485 1331 1485 1331 1457 1210 c 2,51,-1
 1247 300 l 2,52,53
 1225 205 1225 205 1225 129 c 128,-1,54
 1225 53 1225 53 1248 0 c 1,27,-1
EndSplineSet
Validated: 1
EndChar

StartChar: uni1E1E
Encoding: 7710 7710 207
Width: 1237
Flags: W
HStem: 0 21G<200 554.605> 621 277<757 1260> 1233 277<835 1402> 1566 381<971.163 1176.54>
VStem: 200 350<0 350>
DStem2: 200 0 550 0 0.224951 0.97437<78.7329 715.985 1000.28 1344.24>
LayerCount: 2
Fore
SplineSet
1120 1947 m 0,0,1
 1272 1947 1272 1947 1272 1824 c 0,2,3
 1272 1796 1272 1796 1264 1760 c 0,4,5
 1221 1566 1221 1566 1030 1566 c 0,6,7
 879 1566 879 1566 879 1692 c 0,8,9
 879 1722 879 1722 887 1758 c 0,10,11
 929 1947 929 1947 1120 1947 c 0,0,1
200 0 m 1,12,-1
 479 1210 l 2,13,14
 500 1300 500 1300 500 1375 c 128,-1,15
 500 1450 500 1450 479 1510 c 1,16,-1
 1466 1510 l 1,17,-1
 1402 1233 l 1,18,-1
 835 1233 l 9,19,-1
 757 898 l 1,20,-1
 1324 898 l 1,21,-1
 1260 621 l 1,22,-1
 693 621 l 1,23,-1
 550 0 l 1,24,-1
 200 0 l 1,12,-1
EndSplineSet
Validated: 1
EndChar

StartChar: uni1E1F
Encoding: 7711 7711 208
Width: 1028
Flags: W
HStem: 0 21G<220 574.603> 630 277<779 1015> 1256 274<913.746 1230.56> 1566 381<861.163 1066.54>
VStem: 220 350<0 350>
DStem2: 220 0 570 0 0.224951 0.97437<78.7329 594.304 1009.5 1294.57>
LayerCount: 2
Fore
SplineSet
1010 1947 m 0,0,1
 1162 1947 1162 1947 1162 1824 c 0,2,3
 1162 1796 1162 1796 1154 1760 c 0,4,5
 1111 1566 1111 1566 920 1566 c 0,6,7
 769 1566 769 1566 769 1692 c 0,8,9
 769 1722 769 1722 777 1758 c 0,10,11
 819 1947 819 1947 1010 1947 c 0,0,1
220 0 m 1,12,-1
 354 579 l 9,13,14
 296 570 296 570 236 534 c 1,15,-1
 302 819 l 1,16,17
 360 848 360 848 417 855 c 1,18,-1
 454 1014 l 2,19,20
 573 1530 573 1530 1201 1530 c 0,21,22
 1288 1530 1288 1530 1367 1512 c 9,23,-1
 1209 1211 l 17,24,25
 1130 1256 1130 1256 1036 1256 c 0,26,27
 860 1256 860 1256 803 1009 c 2,28,-1
 779 907 l 1,29,-1
 1079 907 l 1,30,-1
 1015 630 l 1,31,-1
 715 630 l 1,32,-1
 570 0 l 1,33,-1
 220 0 l 1,12,-1
EndSplineSet
Validated: 1
EndChar

StartChar: uni1E40
Encoding: 7744 7744 209
Width: 1844
Flags: W
HStem: 0 21G<200 554.615 1339 1714> 1490 20G<479 967 1533 1993> 1566 381<1217.16 1422.54>
VStem: 200 350<0 350> 1334 358<1.51941 362.422>
DStem2: 200 0 550 0 0.224951 0.97437<78.7329 1278.5> 1293.74 0 1643.74 0 0.224951 0.97437<224.392 1202.98>
LayerCount: 2
Fore
SplineSet
1366 1947 m 0,0,1
 1518 1947 1518 1947 1518 1824 c 0,2,3
 1518 1796 1518 1796 1510 1760 c 0,4,5
 1467 1566 1467 1566 1276 1566 c 0,6,7
 1125 1566 1125 1566 1125 1692 c 0,8,9
 1125 1722 1125 1722 1133 1758 c 0,10,11
 1175 1947 1175 1947 1366 1947 c 0,0,1
200 0 m 1,12,-1
 479 1210 l 2,13,14
 500 1300 500 1300 500 1375 c 128,-1,15
 500 1450 500 1450 479 1510 c 1,16,-1
 774 1510 l 2,17,18
 1160 1510 1160 1510 1160 1131 c 0,19,20
 1160 1083 1160 1083 1154 1029 c 1,21,-1
 1163 1029 l 17,22,23
 1348 1510 1348 1510 1718 1510 c 2,24,-1
 1993 1510 l 1,25,-1
 1713 300 l 2,26,27
 1692 211 1692 211 1692 136 c 0,28,29
 1693 59 1693 59 1714 0 c 1,30,-1
 1344 0 l 1,31,32
 1334 38 1334 38 1334 89 c 0,33,34
 1335 180 1335 180 1363 300 c 2,35,-1
 1565 1172 l 1,36,37
 1351 1100 1351 1100 1229 570 c 1,38,-1
 879 570 l 1,39,40
 928 781 928 781 928 919 c 0,41,42
 927 1125 927 1125 820 1170 c 9,43,-1
 550 0 l 1,44,-1
 200 0 l 1,12,-1
EndSplineSet
Validated: 1
EndChar

StartChar: uni1E41
Encoding: 7745 7745 210
Width: 2086
Flags: W
HStem: 0 21G<200 554.651 868 1222.65 1583 1956> 820 300<898.956 1218 1570.5 1922> 1080 20G<384 756.5> 1169 381<1229.16 1434.54>
VStem: 1580 356<1.72058 382.297> 1705 375<649.906 1003>
DStem2: 200 0 550 0 0.224951 0.97437<78.7329 692.993> 868 0 1218 0 0.224951 0.97437<78.7329 692.993> 1535.74 0 1885.74 0 0.224951 0.97437<229.772 772.049>
LayerCount: 2
Fore
SplineSet
1378 1550 m 0,0,1
 1530 1550 1530 1550 1530 1427 c 0,2,3
 1530 1399 1530 1399 1522 1363 c 0,4,5
 1479 1169 1479 1169 1288 1169 c 0,6,7
 1137 1169 1137 1169 1137 1295 c 0,8,9
 1137 1325 1137 1325 1145 1361 c 0,10,11
 1187 1550 1187 1550 1378 1550 c 0,0,1
200 0 m 1,12,-1
 385 800 l 2,13,14
 403 878 403 878 403 952 c 0,15,16
 403 1028 403 1028 384 1100 c 1,17,-1
 754 1100 l 1,18,19
 759 1064 759 1064 759 992 c 1,20,21
 924 1120 924 1120 1098 1120 c 0,22,23
 1338 1120 1338 1120 1402 972 c 1,24,25
 1586 1120 1586 1120 1766 1120 c 0,26,27
 2078 1120 2078 1120 2080 886 c 0,28,29
 2080 839 2080 839 2066 779 c 2,30,-1
 1955 300 l 2,31,32
 1936 218 1936 218 1936 141 c 0,33,34
 1936 65 1936 65 1956 0 c 1,35,-1
 1586 0 l 1,36,37
 1580 45 1580 45 1580 94 c 0,38,39
 1580 192 1580 192 1605 300 c 2,40,-1
 1699 705 l 2,41,42
 1705 731 1705 731 1705 754 c 0,43,44
 1705 820 1705 820 1645 820 c 0,45,46
 1409 820 1409 820 1248 129 c 2,47,-1
 1218 0 l 1,48,-1
 868 0 l 1,49,-1
 1031 705 l 2,50,51
 1037 731 1037 731 1037 754 c 0,52,53
 1037 820 1037 820 977 820 c 0,54,55
 741 820 741 820 580 129 c 2,56,-1
 550 0 l 1,57,-1
 200 0 l 1,12,-1
EndSplineSet
Validated: 1
EndChar

StartChar: uni1E56
Encoding: 7766 7766 211
Width: 1424
Flags: W
HStem: 0 21G<200 554.619> 433 277<714 1009.12> 1233 277<835 1165.87> 1566 381<979.163 1184.54>
VStem: 200 350<0 350> 1205 363<974.486 1358>
DStem2: 200 0 550 0 0.224951 0.97437<78.7329 523.13 807.428 1344.24>
LayerCount: 2
Fore
SplineSet
1128 1947 m 0,0,1
 1280 1947 1280 1947 1280 1824 c 0,2,3
 1280 1796 1280 1796 1272 1760 c 0,4,5
 1229 1566 1229 1566 1038 1566 c 0,6,7
 887 1566 887 1566 887 1692 c 0,8,9
 887 1722 887 1722 895 1758 c 0,10,11
 937 1947 937 1947 1128 1947 c 0,0,1
200 0 m 1,12,-1
 479 1210 l 2,13,14
 500 1300 500 1300 500 1375 c 128,-1,15
 500 1450 500 1450 479 1510 c 1,16,-1
 1153 1510 l 2,17,18
 1568 1510 1568 1510 1568 1206 c 0,19,20
 1568 1145 1568 1145 1551 1072 c 0,21,22
 1402 433 1402 433 687 433 c 2,23,-1
 650 433 l 1,24,-1
 550 0 l 1,25,-1
 200 0 l 1,12,-1
714 710 m 1,26,-1
 853 710 l 2,27,28
 1119 710 1119 710 1200 1066 c 0,29,30
 1205 1088 1205 1088 1205 1108 c 0,31,32
 1205 1233 1205 1233 986 1233 c 2,33,-1
 835 1233 l 9,34,-1
 714 710 l 1,26,-1
EndSplineSet
Validated: 1
EndChar

StartChar: uni1E57
Encoding: 7767 7767 212
Width: 1378
Flags: W
HStem: -410 21G<105 459.623> -20 285<644.954 888.961> 819 301<901.635 1255.5> 1080 20G<384 756.5> 1169 381<913.163 1118.54>
VStem: 105 350<-410 -60> 1039 374<651.617 1005.5>
DStem2: 105 -410 455 -410 0.224951 0.97437<78.7329 500.569 859.947 1152.52>
LayerCount: 2
Fore
SplineSet
1062 1550 m 0,0,1
 1214 1550 1214 1550 1214 1427 c 0,2,3
 1214 1399 1214 1399 1206 1363 c 0,4,5
 1163 1169 1163 1169 972 1169 c 0,6,7
 821 1169 821 1169 821 1295 c 0,8,9
 821 1325 821 1325 829 1361 c 0,10,11
 871 1550 871 1550 1062 1550 c 0,0,1
638 380 m 0,12,13
 634 364 634 364 634 350 c 0,14,15
 634 265 634 265 774 265 c 0,16,17
 928 265 928 265 983 500 c 2,18,-1
 1034 717 l 2,19,20
 1039 740 1039 740 1039 758 c 0,21,22
 1039 819 1039 819 977 819 c 0,23,24
 890 819 890 819 783 687 c 0,25,26
 684 565 684 565 638 380 c 0,12,13
384 1100 m 1,27,-1
 754 1100 l 1,28,29
 759 1070 759 1070 759 992 c 1,30,31
 931 1120 931 1120 1098 1120 c 0,32,33
 1413 1120 1413 1120 1413 891 c 0,34,35
 1413 844 1413 844 1400 788 c 2,36,-1
 1332 495 l 2,37,38
 1212 -20 1212 -20 715 -20 c 0,39,40
 626 -20 626 -20 550 1 c 1,41,-1
 455 -410 l 25,42,-1
 105 -410 l 25,43,-1
 384 799 l 2,44,45
 408 903 408 903 408 975 c 0,46,47
 408 1050 408 1050 384 1100 c 1,27,-1
EndSplineSet
Validated: 1
EndChar

StartChar: uni1E60
Encoding: 7776 7776 213
Width: 1538
Flags: W
HStem: -20 274<449.5 995.407> 1256 274<888.525 1419.5> 1566 381<1105.16 1310.54>
VStem: 243 378<135.5 441.55> 1154 367<466.203 663> 1232 376<1102.2 1383>
LayerCount: 2
Fore
SplineSet
1254 1947 m 0,0,1
 1406 1947 1406 1947 1406 1824 c 0,2,3
 1406 1796 1406 1796 1398 1760 c 0,4,5
 1355 1566 1355 1566 1164 1566 c 0,6,7
 1013 1566 1013 1566 1013 1692 c 0,8,9
 1013 1722 1013 1722 1021 1758 c 0,10,11
 1063 1947 1063 1947 1254 1947 c 0,0,1
262 440 m 9,12,-1
 634 536 l 17,13,14
 621 480 621 480 621 432 c 0,15,16
 621 254 621 254 821 254 c 0,17,18
 1081 254 1081 254 1150 530 c 16,19,20
 1154 546 1154 546 1154 559 c 0,21,22
 1154 667 1154 667 931 670 c 0,23,24
 427 677 427 677 427 946 c 0,25,26
 427 984 427 984 437 1027 c 8,27,28
 554 1530 554 1530 1231 1530 c 0,29,30
 1608 1530 1608 1530 1608 1236 c 0,31,32
 1608 1177 1608 1177 1593 1108 c 9,33,-1
 1221 1012 l 17,34,35
 1232 1066 1232 1066 1232 1104 c 0,36,37
 1232 1256 1232 1256 1074 1256 c 0,38,39
 835 1256 835 1256 803 1094 c 16,40,41
 801 1084 801 1084 801 1074 c 0,42,43
 801 983 801 983 1023 971 c 0,44,45
 1521 945 1521 945 1521 663 c 0,46,47
 1521 620 1521 620 1510 572 c 0,48,49
 1374 -20 1374 -20 655 -20 c 0,50,51
 244 -20 244 -20 243 291 c 0,52,53
 243 358 243 358 262 440 c 9,12,-1
EndSplineSet
Validated: 1
EndChar

StartChar: uni1E61
Encoding: 7777 7777 214
Width: 1318
Flags: W
HStem: -20 274<368 872.352> 846 274<731.193 1138.67 1272.39 1321> 1169 381<913.163 1118.54>
VStem: 353 362<584.5 827.492> 908 358<294.228 564.5>
LayerCount: 2
Fore
SplineSet
1062 1550 m 0,0,1
 1214 1550 1214 1550 1214 1427 c 0,2,3
 1214 1399 1214 1399 1206 1363 c 0,4,5
 1163 1169 1163 1169 972 1169 c 0,6,7
 821 1169 821 1169 821 1295 c 0,8,9
 821 1325 821 1325 829 1361 c 0,10,11
 871 1550 871 1550 1062 1550 c 0,0,1
226 330 m 9,12,-1
 599 428 l 17,13,14
 591 394 591 394 591 366 c 0,15,16
 591 254 591 254 721 254 c 0,17,18
 908 254 908 254 908 395 c 24,19,20
 908 442 908 442 770 453 c 0,21,22
 353 486 353 486 353 683 c 0,23,24
 353 708 353 708 359 734 c 8,25,26
 448 1120 448 1120 1048 1120 c 0,27,28
 1331 1120 1331 1120 1331 916 c 0,29,30
 1331 879 1331 879 1321 834 c 1,31,32
 1261 819 1261 819 948 736 c 1,33,34
 952 754 952 754 952 770 c 0,35,36
 952 846 952 846 849 846 c 0,37,38
 715 846 715 846 715 759 c 0,39,40
 715 721 715 721 832 711 c 0,41,42
 1266 674 1266 674 1266 455 c 0,43,44
 1266 426 1266 426 1259 394 c 8,45,46
 1168 -20 1168 -20 524 -20 c 0,47,48
 212 -20 212 -20 212 218 c 0,49,50
 212 268 212 268 226 330 c 9,12,-1
EndSplineSet
Validated: 1
EndChar

StartChar: uni1E6A
Encoding: 7786 7786 215
Width: 1190
Flags: W
HStem: 0 21G<420 774.623> 1233 277<361.578 705 1055 1465> 1566 381<891.163 1096.54>
VStem: 420 350<0 350>
DStem2: 420 0 770 0 0.224951 0.97437<78.7329 1265.51 1734.81 1950.06>
LayerCount: 2
Fore
SplineSet
1040 1947 m 0,0,1
 1192 1947 1192 1947 1192 1824 c 0,2,3
 1192 1796 1192 1796 1184 1760 c 0,4,5
 1141 1566 1141 1566 950 1566 c 0,6,7
 799 1566 799 1566 799 1692 c 0,8,9
 799 1722 799 1722 807 1758 c 0,10,11
 849 1947 849 1947 1040 1947 c 0,0,1
420 0 m 1,12,-1
 705 1233 l 1,13,-1
 595 1233 l 2,14,15
 407 1233 407 1233 278 1163 c 1,16,-1
 347 1460 l 1,17,18
 461 1510 461 1510 659 1510 c 2,19,-1
 1529 1510 l 1,20,-1
 1465 1233 l 1,21,-1
 1055 1233 l 1,22,-1
 770 0 l 1,23,-1
 420 0 l 1,12,-1
EndSplineSet
Validated: 1
EndChar

StartChar: uni1E6B
Encoding: 7787 7787 216
Width: 969
Flags: W
HStem: 0 21G<354 730> 823 277<268.21 500 914 1149> 1490 20G<589 963.5> 1566 381<763.163 968.543>
VStem: 348 359<1.33313 357.203> 610 358<1139.53 1508.5>
DStem2: 309.74 0 659.74 0 0.224951 0.97437<217.348 844.706 1207.74 1405.01>
LayerCount: 2
Fore
SplineSet
912 1947 m 0,0,1
 1064 1947 1064 1947 1064 1824 c 0,2,3
 1064 1796 1064 1796 1056 1760 c 0,4,5
 1013 1566 1013 1566 822 1566 c 0,6,7
 671 1566 671 1566 671 1692 c 0,8,9
 671 1722 671 1722 679 1758 c 0,10,11
 721 1947 721 1947 912 1947 c 0,0,1
360 0 m 1,12,13
 348 31 348 31 348 82 c 0,14,15
 348 166 348 166 379 300 c 2,16,-1
 500 823 l 1,17,18
 319 823 319 823 184 753 c 1,19,-1
 252 1050 l 1,20,21
 365 1100 365 1100 564 1100 c 1,22,-1
 589 1210 l 2,23,24
 610 1300 610 1300 610 1375 c 128,-1,25
 610 1450 610 1450 589 1510 c 1,26,-1
 959 1510 l 1,27,28
 968 1474 968 1474 968 1424 c 0,29,30
 968 1338 968 1338 939 1210 c 2,31,-1
 914 1100 l 1,32,-1
 1213 1100 l 1,33,-1
 1149 823 l 1,34,-1
 850 823 l 1,35,-1
 729 300 l 2,36,37
 707 204 707 204 707 129 c 128,-1,38
 707 54 707 54 730 0 c 1,39,-1
 360 0 l 1,12,13
EndSplineSet
Validated: 1
EndChar

StartChar: Wgrave
Encoding: 7808 7808 217
Width: 2045
Flags: W
HStem: -20 300<416 767.514> -20 256<1134 1491.82> 1490 20G<479 853.5 1859.38 2214>
VStem: 259 375<97 446.117> 500 358<1144.36 1508.51> 1864 350<1160 1510>
DStem2: 194.274 -20 544.19 -20 0.224951 0.97437<456.178 1427.21> 862.12 -20 1212.73 -20 0.224951 0.97437<563.043 1303.56> 1510.79 -20 1860.01 -20 0.224951 0.97437<416.326 1570.24>
LayerCount: 2
Fore
SplineSet
479 1510 m 1,0,1
 849 1510 l 1,2,3
 858 1474 858 1474 858 1424 c 0,4,5
 858 1335 858 1335 829 1210 c 2,6,-1
 640 395 l 2,7,8
 634 367 634 367 634 346 c 0,9,10
 634 280 634 280 694 280 c 0,11,12
 932 280 932 280 1120 1097 c 2,13,-1
 1156 1250 l 1,14,-1
 1506 1250 l 1,15,-1
 1312 410 l 2,16,17
 1299 356 1299 356 1299 319 c 0,18,19
 1299 236 1299 236 1362 236 c 0,20,21
 1569 236 1569 236 1650 583 c 2,22,-1
 1864 1510 l 1,23,-1
 2214 1510 l 1,24,-1
 2005 608 l 2,25,26
 1860 -20 1860 -20 1241 -20 c 0,27,28
 1027 -20 1027 -20 949 140 c 1,29,30
 763 -20 763 -20 573 -20 c 0,31,32
 259 -20 259 -20 259 214 c 0,33,34
 259 263 259 263 273 321 c 2,35,-1
 479 1212 l 2,36,37
 500 1302 500 1302 500 1376.5 c 128,-1,38
 500 1451 500 1451 479 1510 c 1,0,1
1396 1540 m 1,39,-1
 1009 1677 l 1,40,-1
 1202 1947 l 1,41,-1
 1541 1741 l 1,42,-1
 1396 1540 l 1,39,-1
EndSplineSet
Validated: 1
EndChar

StartChar: wgrave
Encoding: 7809 7809 218
Width: 2046
Flags: W
HStem: -20 300<417 775.116 1127.5 1485.71> 1080 20G<384 757 1117.35 1472 1720 2093>
VStem: 260 374<97 450.094> 405 355<717.703 1098.28> 1740 356<723.425 1098.23>
DStem2: 195.274 -20 545.19 -20 0.224951 0.97437<454.949 1000.75> 863.21 -20 1213.19 -20 0.224951 0.97437<521.891 1149.51>
LayerCount: 2
Fore
SplineSet
384 1100 m 1,0,-1
 754 1100 l 1,1,2
 760 1055 760 1055 760 1006 c 0,3,4
 760 908 760 908 735 800 c 2,5,-1
 641 395 l 2,6,7
 634 365 634 365 634 345 c 0,8,9
 634 280 634 280 695 280 c 0,10,11
 931 280 931 280 1092 971 c 2,12,-1
 1122 1100 l 1,13,-1
 1472 1100 l 1,14,-1
 1309 395 l 2,15,16
 1302 365 1302 365 1302 345 c 0,17,18
 1302 280 1302 280 1363 280 c 0,19,20
 1603 280 1603 280 1721 800 c 0,21,22
 1740 884 1740 884 1740 959 c 0,23,24
 1740 1033 1740 1033 1720 1100 c 1,25,-1
 2090 1100 l 1,26,27
 2096 1054 2096 1054 2096 1006 c 0,28,29
 2096 910 2096 910 2071 800 c 0,30,31
 1881 -20 1881 -20 1242 -20 c 0,32,33
 1013 -20 1013 -20 945 136 c 1,34,35
 770 -20 770 -20 574 -20 c 0,36,37
 260 -20 260 -20 260 214 c 0,38,39
 260 261 260 261 274 321 c 2,40,-1
 385 800 l 2,41,42
 405 886 405 886 405 961 c 0,43,44
 405 1035 405 1035 384 1100 c 1,0,-1
1308 1143 m 1,45,-1
 922 1280 l 1,46,-1
 1115 1550 l 1,47,-1
 1453 1344 l 1,48,-1
 1308 1143 l 1,45,-1
EndSplineSet
Validated: 1
EndChar

StartChar: Wacute
Encoding: 7810 7810 219
Width: 2045
Flags: W
HStem: -20 300<416 767.514> -20 256<1134 1491.82> 1490 20G<479 853.5 1859.38 2214>
VStem: 259 375<97 446.117> 500 358<1144.36 1508.51> 1864 350<1160 1510>
DStem2: 194.274 -20 544.19 -20 0.224951 0.97437<456.178 1427.21> 862.12 -20 1212.73 -20 0.224951 0.97437<563.043 1303.56> 1510.79 -20 1860.01 -20 0.224951 0.97437<416.326 1570.24>
LayerCount: 2
Fore
SplineSet
479 1510 m 1,0,1
 849 1510 l 1,2,3
 858 1474 858 1474 858 1424 c 0,4,5
 858 1335 858 1335 829 1210 c 2,6,-1
 640 395 l 2,7,8
 634 367 634 367 634 346 c 0,9,10
 634 280 634 280 694 280 c 0,11,12
 932 280 932 280 1120 1097 c 2,13,-1
 1156 1250 l 1,14,-1
 1506 1250 l 1,15,-1
 1312 410 l 2,16,17
 1299 356 1299 356 1299 319 c 0,18,19
 1299 236 1299 236 1362 236 c 0,20,21
 1569 236 1569 236 1650 583 c 2,22,-1
 1864 1510 l 1,23,-1
 2214 1510 l 1,24,-1
 2005 608 l 2,25,26
 1860 -20 1860 -20 1241 -20 c 0,27,28
 1027 -20 1027 -20 949 140 c 1,29,30
 763 -20 763 -20 573 -20 c 0,31,32
 259 -20 259 -20 259 214 c 0,33,34
 259 263 259 263 273 321 c 2,35,-1
 479 1212 l 2,36,37
 500 1302 500 1302 500 1376.5 c 128,-1,38
 500 1451 500 1451 479 1510 c 1,0,1
1392 1540 m 1,39,-1
 1339 1741 l 1,40,-1
 1772 1947 l 1,41,-1
 1841 1677 l 1,42,-1
 1392 1540 l 1,39,-1
EndSplineSet
Validated: 1
EndChar

StartChar: wacute
Encoding: 7811 7811 220
Width: 2046
Flags: W
HStem: -20 300<417 775.116 1127.5 1485.71> 1080 20G<384 757 1117.35 1472 1720 2093>
VStem: 260 374<97 450.094> 405 355<717.703 1098.28> 1740 356<723.425 1098.23>
DStem2: 195.274 -20 545.19 -20 0.224951 0.97437<454.949 1000.75> 863.21 -20 1213.19 -20 0.224951 0.97437<521.891 1149.51>
LayerCount: 2
Fore
SplineSet
384 1100 m 1,0,-1
 754 1100 l 1,1,2
 760 1055 760 1055 760 1006 c 0,3,4
 760 908 760 908 735 800 c 2,5,-1
 641 395 l 2,6,7
 634 365 634 365 634 345 c 0,8,9
 634 280 634 280 695 280 c 0,10,11
 931 280 931 280 1092 971 c 2,12,-1
 1122 1100 l 1,13,-1
 1472 1100 l 1,14,-1
 1309 395 l 2,15,16
 1302 365 1302 365 1302 345 c 0,17,18
 1302 280 1302 280 1363 280 c 0,19,20
 1603 280 1603 280 1721 800 c 0,21,22
 1740 884 1740 884 1740 959 c 0,23,24
 1740 1033 1740 1033 1720 1100 c 1,25,-1
 2090 1100 l 1,26,27
 2096 1054 2096 1054 2096 1006 c 0,28,29
 2096 910 2096 910 2071 800 c 0,30,31
 1881 -20 1881 -20 1242 -20 c 0,32,33
 1013 -20 1013 -20 945 136 c 1,34,35
 770 -20 770 -20 574 -20 c 0,36,37
 260 -20 260 -20 260 214 c 0,38,39
 260 261 260 261 274 321 c 2,40,-1
 385 800 l 2,41,42
 405 886 405 886 405 961 c 0,43,44
 405 1035 405 1035 384 1100 c 1,0,-1
1295 1143 m 1,45,-1
 1242 1344 l 1,46,-1
 1676 1550 l 1,47,-1
 1745 1280 l 1,48,-1
 1295 1143 l 1,45,-1
EndSplineSet
Validated: 1
EndChar

StartChar: Wdieresis
Encoding: 7812 7812 221
Width: 2045
Flags: W
HStem: -20 300<416 767.514> -20 256<1134 1491.82> 1490 20G<479 853.5 1859.38 2214> 1593 335<1161.38 1350.75 1553.2 1740.5>
VStem: 259 375<97 446.117> 500 358<1144.36 1508.51> 1864 350<1160 1510>
DStem2: 194.274 -20 544.19 -20 0.224951 0.97437<456.178 1427.21> 862.12 -20 1212.73 -20 0.224951 0.97437<563.043 1303.56> 1510.79 -20 1860.01 -20 0.224951 0.97437<416.326 1570.24>
LayerCount: 2
Fore
SplineSet
1688 1928 m 0,0,1
 1820 1928 1820 1928 1820 1821 c 0,2,3
 1820 1792 1820 1792 1813 1764 c 0,4,5
 1771 1593 1771 1593 1607 1593 c 0,6,7
 1477 1593 1477 1593 1477 1703 c 0,8,9
 1477 1726 1477 1726 1485 1762 c 0,10,11
 1523 1928 1523 1928 1688 1928 c 0,0,1
1295 1928 m 0,12,13
 1428 1928 1428 1928 1428 1820 c 0,14,15
 1428 1796 1428 1796 1421 1764 c 0,16,17
 1383 1593 1383 1593 1216 1593 c 0,18,19
 1084 1593 1084 1593 1084 1703 c 0,20,21
 1084 1730 1084 1730 1092 1763 c 0,22,23
 1133 1928 1133 1928 1295 1928 c 0,12,13
479 1510 m 1,24,-1
 849 1510 l 1,25,26
 858 1474 858 1474 858 1424 c 0,27,28
 858 1335 858 1335 829 1210 c 2,29,-1
 640 395 l 2,30,31
 634 367 634 367 634 346 c 0,32,33
 634 280 634 280 694 280 c 0,34,35
 932 280 932 280 1120 1097 c 2,36,-1
 1156 1250 l 1,37,-1
 1506 1250 l 1,38,-1
 1312 410 l 2,39,40
 1299 356 1299 356 1299 319 c 0,41,42
 1299 236 1299 236 1362 236 c 0,43,44
 1569 236 1569 236 1650 583 c 2,45,-1
 1864 1510 l 1,46,-1
 2214 1510 l 1,47,-1
 2005 608 l 2,48,49
 1860 -20 1860 -20 1241 -20 c 0,50,51
 1027 -20 1027 -20 949 140 c 1,52,53
 763 -20 763 -20 573 -20 c 0,54,55
 259 -20 259 -20 259 214 c 0,56,57
 259 263 259 263 273 321 c 2,58,-1
 479 1212 l 2,59,60
 500 1302 500 1302 500 1376.5 c 128,-1,61
 500 1451 500 1451 479 1510 c 1,24,-1
EndSplineSet
Validated: 1
EndChar

StartChar: wdieresis
Encoding: 7813 7813 222
Width: 2046
Flags: W
HStem: -20 300<417 775.116 1127.5 1485.71> 1080 20G<384 757 1117.35 1472 1720 2093> 1195 335<1063.38 1253.25 1453.11 1643>
VStem: 260 374<97 450.094> 405 355<717.703 1098.28> 1379 343<1276.24 1450.98> 1740 356<723.425 1098.23>
DStem2: 195.274 -20 545.19 -20 0.224951 0.97437<454.949 1000.75> 863.21 -20 1213.19 -20 0.224951 0.97437<521.891 1149.51>
LayerCount: 2
Fore
SplineSet
1590 1530 m 0,0,1
 1722 1530 1722 1530 1722 1423 c 0,2,3
 1722 1395 1722 1395 1715 1366 c 0,4,5
 1674 1195 1674 1195 1509 1195 c 0,6,7
 1379 1195 1379 1195 1379 1305 c 0,8,9
 1379 1327 1379 1327 1387 1364 c 0,10,11
 1424 1530 1424 1530 1590 1530 c 0,0,1
1197 1530 m 0,12,13
 1330 1530 1330 1530 1330 1422 c 0,14,15
 1330 1398 1330 1398 1323 1366 c 0,16,17
 1286 1195 1286 1195 1118 1195 c 0,18,19
 986 1195 986 1195 986 1305 c 0,20,21
 986 1332 986 1332 994 1365 c 0,22,23
 1035 1530 1035 1530 1197 1530 c 0,12,13
384 1100 m 1,24,-1
 754 1100 l 1,25,26
 760 1055 760 1055 760 1006 c 0,27,28
 760 908 760 908 735 800 c 2,29,-1
 641 395 l 2,30,31
 634 365 634 365 634 345 c 0,32,33
 634 280 634 280 695 280 c 0,34,35
 931 280 931 280 1092 971 c 2,36,-1
 1122 1100 l 1,37,-1
 1472 1100 l 1,38,-1
 1309 395 l 2,39,40
 1302 365 1302 365 1302 345 c 0,41,42
 1302 280 1302 280 1363 280 c 0,43,44
 1603 280 1603 280 1721 800 c 0,45,46
 1740 884 1740 884 1740 959 c 0,47,48
 1740 1033 1740 1033 1720 1100 c 1,49,-1
 2090 1100 l 1,50,51
 2096 1054 2096 1054 2096 1006 c 0,52,53
 2096 910 2096 910 2071 800 c 0,54,55
 1881 -20 1881 -20 1242 -20 c 0,56,57
 1013 -20 1013 -20 945 136 c 1,58,59
 770 -20 770 -20 574 -20 c 0,60,61
 260 -20 260 -20 260 214 c 0,62,63
 260 261 260 261 274 321 c 2,64,-1
 385 800 l 2,65,66
 405 886 405 886 405 961 c 0,67,68
 405 1035 405 1035 384 1100 c 1,24,-1
EndSplineSet
Validated: 1
EndChar

StartChar: Ygrave
Encoding: 7922 7922 223
Width: 1486
Flags: W
HStem: 0 21G<558 912.606> 1490 20G<449 821.5 1320.36 1675>
VStem: 361 361<639.5 1018.35> 466 358<1126.46 1508.05> 558 350<0 350> 1325 350<1160 1510>
DStem2: 975.892 0 1325.66 0 0.224951 0.97437<900.469 1549.83>
LayerCount: 2
Fore
SplineSet
558 0 m 1,0,-1
 668 476 l 1,1,2
 361 512 361 512 361 767 c 0,3,4
 361 825 361 825 377 896 c 2,5,-1
 449 1210 l 2,6,7
 466 1286 466 1286 466 1361 c 128,-1,8
 466 1436 466 1436 449 1510 c 1,9,-1
 819 1510 l 1,10,11
 824 1459 824 1459 824 1420 c 0,12,13
 824 1319 824 1319 799 1210 c 2,14,-1
 727 895 l 2,15,16
 722 872 722 872 722 852 c 0,17,18
 722 740 722 740 896 740 c 0,19,20
 1147 740 1147 740 1228 1092 c 2,21,-1
 1325 1510 l 1,22,-1
 1675 1510 l 1,23,-1
 1578 1093 l 2,24,25
 1463 595 1463 595 1022 495 c 1,26,-1
 908 0 l 1,27,-1
 558 0 l 1,0,-1
1172 1540 m 1,28,-1
 785 1677 l 1,29,-1
 978 1947 l 1,30,-1
 1317 1741 l 1,31,-1
 1172 1540 l 1,28,-1
EndSplineSet
Validated: 1
EndChar

StartChar: ygrave
Encoding: 7923 7923 224
Width: 1418
Flags: W
HStem: -430 257<383.952 709.508> -20 300<417 759.833> 1080 20G<384 757 1117.35 1472>
VStem: 260 375<97 450.094> 405 355<717.703 1098.26>
DStem2: 100.618 -430 450.534 -430 0.224951 0.97437<877.022 1421.53> 768.554 -430 1118.61 -430 0.224951 0.97437<942.676 1570.29>
LayerCount: 2
Fore
SplineSet
384 1100 m 1,0,-1
 754 1100 l 1,1,2
 760 1055 760 1055 760 1006 c 0,3,4
 760 908 760 908 735 800 c 2,5,-1
 641 395 l 2,6,7
 635 369 635 369 635 346 c 0,8,9
 635 280 635 280 695 280 c 0,10,11
 931 280 931 280 1092 971 c 2,12,-1
 1122 1100 l 1,13,-1
 1472 1100 l 1,14,-1
 1313 412 l 2,15,16
 1118 -430 1118 -430 480 -430 c 0,17,18
 220 -430 220 -430 172 -220 c 9,19,-1
 538 -122 l 17,20,21
 546 -173 546 -173 590 -173 c 0,22,23
 753 -173 753 -173 873 96 c 1,24,25
 731 -20 731 -20 574 -20 c 0,26,27
 260 -20 260 -20 260 214 c 0,28,29
 260 261 260 261 274 321 c 2,30,-1
 385 800 l 2,31,32
 405 886 405 886 405 961 c 0,33,34
 405 1034 405 1034 384 1100 c 1,0,-1
1037 1143 m 1,35,-1
 651 1280 l 1,36,-1
 844 1550 l 1,37,-1
 1182 1344 l 1,38,-1
 1037 1143 l 1,35,-1
EndSplineSet
Validated: 1
EndChar

StartChar: Agrave
Encoding: 192 192 225
Width: 1536
Flags: W
HStem: 0 21G<180 534.605 1030.5 1406> 621 277<737 1129> 1260 270<922.835 1218.12>
VStem: 180 350<0 350> 1025 359<1.4574 363.969> 1246 361<984.273 1380.88>
DStem2: 180 0 530 0 0.224951 0.97437<78.7329 715.985 1000.28 1234.68> 985.74 0 1335.74 0 0.224951 0.97437<224.392 637.31 921.608 1175.54>
LayerCount: 2
Fore
SplineSet
737 898 m 9,0,-1
 1193 898 l 1,1,-1
 1241 1104 l 2,2,3
 1246 1127 1246 1127 1246 1147 c 0,4,5
 1246 1260 1246 1260 1072 1260 c 0,6,7
 821 1260 821 1260 737 898 c 9,0,-1
180 0 m 1,8,-1
 389 907 l 2,9,10
 533 1530 533 1530 1189 1530 c 0,11,12
 1607 1530 1607 1530 1607 1231 c 0,13,14
 1607 1173 1607 1173 1591 1103 c 2,15,-1
 1405 300 l 2,16,17
 1384 211 1384 211 1384 136 c 0,18,19
 1384 59 1384 59 1406 0 c 1,20,-1
 1036 0 l 1,21,22
 1025 34 1025 34 1025 85 c 0,23,24
 1025 170 1025 170 1055 300 c 2,25,-1
 1129 621 l 1,26,-1
 673 621 l 1,27,-1
 530 0 l 1,28,-1
 180 0 l 1,8,-1
1172 1540 m 1,29,-1
 785 1677 l 1,30,-1
 978 1947 l 1,31,-1
 1317 1741 l 1,32,-1
 1172 1540 l 1,29,-1
EndSplineSet
Validated: 1
EndChar

StartChar: Aacute
Encoding: 193 193 226
Width: 1536
Flags: W
HStem: 0 21G<180 534.605 1030.5 1406> 621 277<737 1129> 1260 270<922.835 1218.12>
VStem: 180 350<0 350> 1025 359<1.4574 363.969> 1246 361<984.273 1380.88>
DStem2: 180 0 530 0 0.224951 0.97437<78.7329 715.985 1000.28 1234.68> 985.74 0 1335.74 0 0.224951 0.97437<224.392 637.31 921.608 1175.54>
LayerCount: 2
Fore
SplineSet
737 898 m 9,0,-1
 1193 898 l 1,1,-1
 1241 1104 l 2,2,3
 1246 1127 1246 1127 1246 1147 c 0,4,5
 1246 1260 1246 1260 1072 1260 c 0,6,7
 821 1260 821 1260 737 898 c 9,0,-1
180 0 m 1,8,-1
 389 907 l 2,9,10
 533 1530 533 1530 1189 1530 c 0,11,12
 1607 1530 1607 1530 1607 1231 c 0,13,14
 1607 1173 1607 1173 1591 1103 c 2,15,-1
 1405 300 l 2,16,17
 1384 211 1384 211 1384 136 c 0,18,19
 1384 59 1384 59 1406 0 c 1,20,-1
 1036 0 l 1,21,22
 1025 34 1025 34 1025 85 c 0,23,24
 1025 170 1025 170 1055 300 c 2,25,-1
 1129 621 l 1,26,-1
 673 621 l 1,27,-1
 530 0 l 1,28,-1
 180 0 l 1,8,-1
1085 1540 m 1,29,-1
 1032 1741 l 1,30,-1
 1466 1947 l 1,31,-1
 1534 1677 l 1,32,-1
 1085 1540 l 1,29,-1
EndSplineSet
Validated: 1
EndChar

StartChar: Acircumflex
Encoding: 194 194 227
Width: 1536
Flags: W
HStem: 0 21G<180 534.605 1030.5 1406> 621 277<737 1129> 1260 270<922.835 1218.12>
VStem: 180 350<0 350> 1025 359<1.4574 363.969> 1246 361<984.273 1380.88>
DStem2: 180 0 530 0 0.224951 0.97437<78.7329 715.985 1000.28 1234.68> 985.74 0 1335.74 0 0.224951 0.97437<224.392 637.31 921.608 1175.54>
LayerCount: 2
Fore
SplineSet
737 898 m 9,0,-1
 1193 898 l 1,1,-1
 1241 1104 l 2,2,3
 1246 1127 1246 1127 1246 1147 c 0,4,5
 1246 1260 1246 1260 1072 1260 c 0,6,7
 821 1260 821 1260 737 898 c 9,0,-1
180 0 m 1,8,-1
 389 907 l 2,9,10
 533 1530 533 1530 1189 1530 c 0,11,12
 1607 1530 1607 1530 1607 1231 c 0,13,14
 1607 1173 1607 1173 1591 1103 c 2,15,-1
 1405 300 l 2,16,17
 1384 211 1384 211 1384 136 c 0,18,19
 1384 59 1384 59 1406 0 c 1,20,-1
 1036 0 l 1,21,22
 1025 34 1025 34 1025 85 c 0,23,24
 1025 170 1025 170 1055 300 c 2,25,-1
 1129 621 l 1,26,-1
 673 621 l 1,27,-1
 530 0 l 1,28,-1
 180 0 l 1,8,-1
934 1540 m 1,29,-1
 881 1741 l 1,30,-1
 1258 1947 l 1,31,-1
 1541 1741 l 1,32,-1
 1396 1540 l 1,33,-1
 1193 1665 l 1,34,-1
 934 1540 l 1,29,-1
EndSplineSet
Validated: 1
EndChar

StartChar: Atilde
Encoding: 195 195 228
Width: 1536
Flags: W
HStem: 0 21G<180 534.605 1030.5 1406> 621 277<737 1129> 1260 270<922.835 1218.12> 1610 230<1206.25 1454.28> 1672 230<966.971 1232.88>
VStem: 180 350<0 350> 1025 359<1.4574 363.969> 1246 361<984.273 1380.88>
DStem2: 180 0 530 0 0.224951 0.97437<78.7329 715.985 1000.28 1234.68> 985.74 0 1335.74 0 0.224951 0.97437<224.392 637.31 921.608 1175.54>
LayerCount: 2
Fore
SplineSet
737 898 m 9,0,-1
 1193 898 l 1,1,-1
 1241 1104 l 2,2,3
 1246 1127 1246 1127 1246 1147 c 0,4,5
 1246 1260 1246 1260 1072 1260 c 0,6,7
 821 1260 821 1260 737 898 c 9,0,-1
180 0 m 1,8,-1
 389 907 l 2,9,10
 533 1530 533 1530 1189 1530 c 0,11,12
 1607 1530 1607 1530 1607 1231 c 0,13,14
 1607 1173 1607 1173 1591 1103 c 2,15,-1
 1405 300 l 2,16,17
 1384 211 1384 211 1384 136 c 0,18,19
 1384 59 1384 59 1406 0 c 1,20,-1
 1036 0 l 1,21,22
 1025 34 1025 34 1025 85 c 0,23,24
 1025 170 1025 170 1055 300 c 2,25,-1
 1129 621 l 1,26,-1
 673 621 l 1,27,-1
 530 0 l 1,28,-1
 180 0 l 1,8,-1
1479 1672 m 1,29,30
 1400 1610 1400 1610 1331 1610 c 0,31,32
 1264 1610 1264 1610 1183 1647 c 0,33,34
 1128 1672 1128 1672 1037 1672 c 0,35,36
 961 1672 961 1672 892 1609 c 1,37,-1
 946 1839 l 1,38,39
 1011 1902 1011 1902 1090 1902 c 0,40,41
 1171 1902 1171 1902 1240 1872 c 0,42,43
 1314 1840 1314 1840 1384 1840 c 0,44,45
 1450 1840 1450 1840 1532 1902 c 1,46,-1
 1479 1672 l 1,29,30
EndSplineSet
Validated: 1
EndChar

StartChar: Adieresis
Encoding: 196 196 229
Width: 1536
Flags: W
HStem: 0 21G<180 534.605 1030.5 1406> 621 277<737 1129> 1260 270<922.835 1218.12> 1593 335<915.376 1104.75 1307.2 1494.5>
VStem: 180 350<0 350> 1025 359<1.4574 363.969> 1246 361<984.273 1380.88>
DStem2: 180 0 530 0 0.224951 0.97437<78.7329 715.985 1000.28 1234.68> 985.74 0 1335.74 0 0.224951 0.97437<224.392 637.31 921.608 1175.54>
LayerCount: 2
Fore
SplineSet
1442 1928 m 0,0,1
 1574 1928 1574 1928 1574 1821 c 0,2,3
 1574 1792 1574 1792 1567 1764 c 0,4,5
 1525 1593 1525 1593 1361 1593 c 0,6,7
 1231 1593 1231 1593 1231 1703 c 0,8,9
 1231 1726 1231 1726 1239 1762 c 0,10,11
 1277 1928 1277 1928 1442 1928 c 0,0,1
1049 1928 m 0,12,13
 1182 1928 1182 1928 1182 1820 c 0,14,15
 1182 1796 1182 1796 1175 1764 c 0,16,17
 1137 1593 1137 1593 970 1593 c 0,18,19
 838 1593 838 1593 838 1703 c 0,20,21
 838 1730 838 1730 846 1763 c 0,22,23
 887 1928 887 1928 1049 1928 c 0,12,13
737 898 m 9,24,-1
 1193 898 l 1,25,-1
 1241 1104 l 2,26,27
 1246 1127 1246 1127 1246 1147 c 0,28,29
 1246 1260 1246 1260 1072 1260 c 0,30,31
 821 1260 821 1260 737 898 c 9,24,-1
180 0 m 1,32,-1
 389 907 l 2,33,34
 533 1530 533 1530 1189 1530 c 0,35,36
 1607 1530 1607 1530 1607 1231 c 0,37,38
 1607 1173 1607 1173 1591 1103 c 2,39,-1
 1405 300 l 2,40,41
 1384 211 1384 211 1384 136 c 0,42,43
 1384 59 1384 59 1406 0 c 1,44,-1
 1036 0 l 1,45,46
 1025 34 1025 34 1025 85 c 0,47,48
 1025 170 1025 170 1055 300 c 2,49,-1
 1129 621 l 1,50,-1
 673 621 l 1,51,-1
 530 0 l 1,52,-1
 180 0 l 1,32,-1
EndSplineSet
Validated: 1
EndChar

StartChar: Aring
Encoding: 197 197 230
Width: 1536
Flags: W
HStem: 0 21G<180 534.605 1030.5 1406> 621 277<737 1129> 1260 270<922.835 1218.12> 1566 114<1131.91 1260.79> 1823 124<1143.95 1273.2>
VStem: 180 350<0 350> 1013 118<1682.41 1813.14> 1025 359<1.4574 363.969> 1246 361<984.273 1380.88> 1274 132<1691.29 1885.5>
DStem2: 180 0 530 0 0.224951 0.97437<78.7329 715.985 1000.28 1234.68> 985.74 0 1335.74 0 0.224951 0.97437<224.392 637.31 921.608 1175.54>
LayerCount: 2
Fore
SplineSet
737 898 m 9,0,-1
 1193 898 l 1,1,-1
 1241 1104 l 2,2,3
 1246 1127 1246 1127 1246 1147 c 0,4,5
 1246 1260 1246 1260 1072 1260 c 0,6,7
 821 1260 821 1260 737 898 c 9,0,-1
180 0 m 1,8,-1
 389 907 l 2,9,10
 533 1530 533 1530 1189 1530 c 0,11,12
 1607 1530 1607 1530 1607 1231 c 0,13,14
 1607 1173 1607 1173 1591 1103 c 2,15,-1
 1405 300 l 2,16,17
 1384 211 1384 211 1384 136 c 0,18,19
 1384 59 1384 59 1406 0 c 1,20,-1
 1036 0 l 1,21,22
 1025 34 1025 34 1025 85 c 0,23,24
 1025 170 1025 170 1055 300 c 2,25,-1
 1129 621 l 1,26,-1
 673 621 l 1,27,-1
 530 0 l 1,28,-1
 180 0 l 1,8,-1
1134 1752 m 0,29,30
 1131 1738 1131 1738 1131 1727 c 0,31,32
 1131 1680 1131 1680 1187 1680 c 0,33,34
 1256 1680 1256 1680 1271 1751 c 0,35,36
 1274 1765 1274 1765 1274 1777 c 0,37,38
 1274 1823 1274 1823 1219 1823 c 0,39,40
 1149 1823 1149 1823 1134 1752 c 0,29,30
1254 1947 m 0,41,42
 1406 1947 1406 1947 1406 1824 c 0,43,44
 1406 1795 1406 1795 1398 1759 c 0,45,46
 1355 1566 1355 1566 1164 1566 c 0,47,48
 1013 1566 1013 1566 1013 1692 c 0,49,50
 1013 1722 1013 1722 1021 1758 c 0,51,52
 1063 1947 1063 1947 1254 1947 c 0,41,42
EndSplineSet
Validated: 1
EndChar

StartChar: AE
Encoding: 198 198 231
Width: 2121
Flags: W
HStem: 0 277<1401 2036.66> 621 277<737 1129 1544 2045> 1233 277<1622 2187> 1260 270<922.835 1221.81>
VStem: 180 350<0 350>
DStem2: 180 0 530 0 0.224951 0.97437<78.7329 715.985 1000.28 1234.68>
LayerCount: 2
Fore
SplineSet
180 0 m 1,0,-1
 389 907 l 2,1,2
 533 1530 533 1530 1189 1530 c 0,3,4
 1297 1530 1297 1530 1378 1510 c 1,5,-1
 2251 1510 l 1,6,-1
 2187 1233 l 1,7,-1
 1622 1233 l 1,8,-1
 1544 898 l 1,9,-1
 2109 898 l 1,10,-1
 2045 621 l 1,11,-1
 1480 621 l 1,12,-1
 1401 277 l 1,13,-1
 1805 277 l 2,14,15
 1988 277 1988 277 2121 347 c 1,16,-1
 2053 50 l 1,17,18
 1924 0 1924 0 1741 0 c 2,19,-1
 986 0 l 9,20,-1
 1129 621 l 1,21,-1
 673 621 l 1,22,-1
 530 0 l 1,23,-1
 180 0 l 1,0,-1
737 898 m 1,24,-1
 1193 898 l 1,25,-1
 1241 1104 l 2,26,27
 1246 1127 1246 1127 1246 1147 c 0,28,29
 1246 1260 1246 1260 1072 1260 c 0,30,31
 821 1260 821 1260 737 898 c 1,24,-1
EndSplineSet
Validated: 1
EndChar

StartChar: Amacron
Encoding: 256 256 232
Width: 1536
Flags: W
HStem: 0 21G<180 534.605 1030.5 1406> 621 277<737 1129> 1260 270<922.835 1218.12> 1638 230<957 1466>
VStem: 180 350<0 350> 1025 359<1.4574 363.969> 1246 361<984.273 1380.88>
DStem2: 180 0 530 0 0.224951 0.97437<78.7329 715.985 1000.28 1234.68> 985.74 0 1335.74 0 0.224951 0.97437<224.392 637.31 921.608 1175.54>
LayerCount: 2
Fore
SplineSet
737 898 m 9,0,-1
 1193 898 l 1,1,-1
 1241 1104 l 2,2,3
 1246 1127 1246 1127 1246 1147 c 0,4,5
 1246 1260 1246 1260 1072 1260 c 0,6,7
 821 1260 821 1260 737 898 c 9,0,-1
180 0 m 1,8,-1
 389 907 l 2,9,10
 533 1530 533 1530 1189 1530 c 0,11,12
 1607 1530 1607 1530 1607 1231 c 0,13,14
 1607 1173 1607 1173 1591 1103 c 2,15,-1
 1405 300 l 2,16,17
 1384 211 1384 211 1384 136 c 0,18,19
 1384 59 1384 59 1406 0 c 1,20,-1
 1036 0 l 1,21,22
 1025 34 1025 34 1025 85 c 0,23,24
 1025 170 1025 170 1055 300 c 2,25,-1
 1129 621 l 1,26,-1
 673 621 l 1,27,-1
 530 0 l 1,28,-1
 180 0 l 1,8,-1
904 1638 m 1,29,-1
 957 1868 l 1,30,-1
 1519 1868 l 1,31,-1
 1466 1638 l 1,32,-1
 904 1638 l 1,29,-1
EndSplineSet
Validated: 1
EndChar

StartChar: Abreve
Encoding: 258 258 233
Width: 1536
Flags: W
HStem: 0 21G<180 534.605 1030.5 1406> 621 277<737 1129> 1260 270<922.835 1218.12> 1603 230<1006.58 1422.37>
VStem: 180 350<0 350> 1025 359<1.4574 363.969> 1246 361<984.273 1380.88>
DStem2: 180 0 530 0 0.224951 0.97437<78.7329 715.985 1000.28 1234.68> 985.74 0 1335.74 0 0.224951 0.97437<224.392 637.31 921.608 1175.54>
LayerCount: 2
Fore
SplineSet
737 898 m 9,0,-1
 1193 898 l 1,1,-1
 1241 1104 l 2,2,3
 1246 1127 1246 1127 1246 1147 c 0,4,5
 1246 1260 1246 1260 1072 1260 c 0,6,7
 821 1260 821 1260 737 898 c 9,0,-1
180 0 m 1,8,-1
 389 907 l 2,9,10
 533 1530 533 1530 1189 1530 c 0,11,12
 1607 1530 1607 1530 1607 1231 c 0,13,14
 1607 1173 1607 1173 1591 1103 c 2,15,-1
 1405 300 l 2,16,17
 1384 211 1384 211 1384 136 c 0,18,19
 1384 59 1384 59 1406 0 c 1,20,-1
 1036 0 l 1,21,22
 1025 34 1025 34 1025 85 c 0,23,24
 1025 170 1025 170 1055 300 c 2,25,-1
 1129 621 l 1,26,-1
 673 621 l 1,27,-1
 530 0 l 1,28,-1
 180 0 l 1,8,-1
965 1901 m 1,29,30
 1065 1833 1065 1833 1232 1833 c 0,31,32
 1392 1833 1392 1833 1527 1901 c 1,33,-1
 1474 1671 l 1,34,35
 1339 1603 1339 1603 1179 1603 c 0,36,37
 1012 1603 1012 1603 912 1671 c 1,38,-1
 965 1901 l 1,29,30
EndSplineSet
Validated: 1
EndChar

StartChar: Aogonek
Encoding: 260 260 234
Width: 1536
Flags: W
HStem: -430 21G<950 1061.94> 0 21G<180 534.605> 621 277<737 1129> 1260 270<922.835 1218.12>
VStem: 180 350<0 350> 867 330<-254.458 -0.648193> 1246 361<984.273 1380.88>
DStem2: 80.7267 -430 430.727 -430 0.224951 0.97437<520.044 1157.3 1441.59 1675.99> 886.466 -430 1236.47 -430 0.224951 0.97437<665.642 1078.62 1362.92 1616.85>
LayerCount: 2
Fore
SplineSet
180 0 m 1,0,-1
 389 907 l 2,1,2
 533 1530 533 1530 1189 1530 c 0,3,4
 1607 1530 1607 1530 1607 1231 c 0,5,6
 1607 1173 1607 1173 1591 1103 c 2,7,-1
 1405 300 l 2,8,9
 1384 209 1384 209 1384 136 c 0,10,11
 1384 59 1384 59 1406 0 c 1,12,-1
 1227 0 l 1,13,14
 1211 -24 1211 -24 1201 -66 c 0,15,16
 1197 -82 1197 -82 1197 -98 c 0,17,18
 1199 -186 1199 -186 1321 -231 c 1,19,-1
 1033 -430 l 1,20,21
 867 -336 867 -336 867 -168 c 0,22,23
 867 -125 867 -125 878 -78 c 0,24,25
 912 68 912 68 1029 155 c 1,26,27
 1036 218 1036 218 1055 300 c 2,28,-1
 1129 621 l 1,29,-1
 673 621 l 1,30,-1
 530 0 l 1,31,-1
 180 0 l 1,0,-1
737 898 m 1,32,-1
 1193 898 l 1,33,-1
 1241 1104 l 2,34,35
 1246 1127 1246 1127 1246 1147 c 0,36,37
 1246 1260 1246 1260 1072 1260 c 0,38,39
 821 1260 821 1260 737 898 c 1,32,-1
EndSplineSet
Validated: 1
EndChar

StartChar: Ccedilla
Encoding: 199 199 235
Width: 1538
Flags: W
HStem: -430 21G<615.302 766> 1256 274<906.597 1438.5>
VStem: 236 365<129.5 519.742> 1268 378<1080.35 1376.5>
DStem2: 60.6103 -430 410.686 -430 0.224951 0.97437<908.397 1658.54>
LayerCount: 2
Fore
SplineSet
1517 604 m 1,0,1
 1407 127 1407 127 961 15 c 1,2,3
 961 -40 961 -40 952 -78 c 0,4,5
 897 -313 897 -313 635 -430 c 1,6,-1
 439 -231 l 1,7,8
 610 -178 610 -178 635 -66 c 0,9,10
 640 -44 640 -44 640 -20 c 1,11,12
 236 -15 236 -15 236 274 c 0,13,14
 236 330 236 330 252 399 c 2,15,-1
 369 906 l 2,16,17
 513 1530 513 1530 1231 1530 c 0,18,19
 1646 1530 1646 1530 1646 1223 c 0,20,21
 1646 1160 1646 1160 1628 1084 c 1,22,-1
 1256 988 l 1,23,24
 1268 1041 1268 1041 1268 1083 c 0,25,26
 1268 1256 1268 1256 1066 1256 c 0,27,28
 801 1256 801 1256 718 899 c 2,29,-1
 606 416 l 2,30,31
 601 394 601 394 601 377 c 0,32,33
 601 254 601 254 821 254 c 0,34,35
 1087 254 1087 254 1145 507 c 1,36,-1
 1517 604 l 1,0,1
EndSplineSet
Validated: 1
EndChar

StartChar: Cacute
Encoding: 262 262 236
Width: 1538
Flags: W
HStem: -20 274<639.659 996.506> 1256 274<906.371 1438.5>
VStem: 236 365<127 519.742> 1268 378<1080.35 1376.5>
DStem2: 155.266 -20 505.341 -20 0.224951 0.97437<487.642 1237.65>
LayerCount: 2
Fore
SplineSet
1517 604 m 1,0,1
 1373 -20 1373 -20 655 -20 c 0,2,3
 236 -20 236 -20 236 274 c 0,4,5
 236 331 236 331 252 399 c 2,6,-1
 369 906 l 2,7,8
 513 1530 513 1530 1231 1530 c 0,9,10
 1646 1530 1646 1530 1646 1223 c 0,11,12
 1646 1160 1646 1160 1628 1084 c 1,13,-1
 1256 988 l 1,14,15
 1268 1041 1268 1041 1268 1083 c 0,16,17
 1268 1256 1268 1256 1066 1256 c 0,18,19
 800 1256 800 1256 718 899 c 2,20,-1
 606 416 l 2,21,22
 601 395 601 395 601 377 c 0,23,24
 601 254 601 254 821 254 c 0,25,26
 1087 254 1087 254 1145 507 c 1,27,-1
 1517 604 l 1,0,1
1085 1540 m 1,28,-1
 1032 1741 l 1,29,-1
 1466 1947 l 1,30,-1
 1534 1677 l 1,31,-1
 1085 1540 l 1,28,-1
EndSplineSet
Validated: 1
EndChar

StartChar: Ccircumflex
Encoding: 264 264 237
Width: 1538
Flags: W
HStem: -20 274<639.659 996.506> 1256 274<906.371 1438.5>
VStem: 236 365<127 519.742> 1268 378<1080.35 1376.5>
DStem2: 155.266 -20 505.341 -20 0.224951 0.97437<487.642 1237.65>
LayerCount: 2
Fore
SplineSet
1517 604 m 1,0,1
 1373 -20 1373 -20 655 -20 c 0,2,3
 236 -20 236 -20 236 274 c 0,4,5
 236 331 236 331 252 399 c 2,6,-1
 369 906 l 2,7,8
 513 1530 513 1530 1231 1530 c 0,9,10
 1646 1530 1646 1530 1646 1223 c 0,11,12
 1646 1160 1646 1160 1628 1084 c 1,13,-1
 1256 988 l 1,14,15
 1268 1041 1268 1041 1268 1083 c 0,16,17
 1268 1256 1268 1256 1066 1256 c 0,18,19
 800 1256 800 1256 718 899 c 2,20,-1
 606 416 l 2,21,22
 601 395 601 395 601 377 c 0,23,24
 601 254 601 254 821 254 c 0,25,26
 1087 254 1087 254 1145 507 c 1,27,-1
 1517 604 l 1,0,1
934 1540 m 1,28,-1
 881 1741 l 1,29,-1
 1258 1947 l 1,30,-1
 1541 1741 l 1,31,-1
 1396 1540 l 1,32,-1
 1193 1665 l 1,33,-1
 934 1540 l 1,28,-1
EndSplineSet
Validated: 1
EndChar

StartChar: Cdotaccent
Encoding: 266 266 238
Width: 1538
Flags: W
HStem: -20 274<639.659 996.506> 1256 274<906.371 1438.5> 1566 381<1105.16 1310.54>
VStem: 236 365<127 519.742> 1268 378<1080.35 1376.5>
DStem2: 155.266 -20 505.341 -20 0.224951 0.97437<487.642 1237.65>
LayerCount: 2
Fore
SplineSet
1254 1947 m 0,0,1
 1406 1947 1406 1947 1406 1824 c 0,2,3
 1406 1796 1406 1796 1398 1760 c 0,4,5
 1355 1566 1355 1566 1164 1566 c 0,6,7
 1013 1566 1013 1566 1013 1692 c 0,8,9
 1013 1722 1013 1722 1021 1758 c 0,10,11
 1063 1947 1063 1947 1254 1947 c 0,0,1
1517 604 m 1,12,13
 1373 -20 1373 -20 655 -20 c 0,14,15
 236 -20 236 -20 236 274 c 0,16,17
 236 331 236 331 252 399 c 2,18,-1
 369 906 l 2,19,20
 513 1530 513 1530 1231 1530 c 0,21,22
 1646 1530 1646 1530 1646 1223 c 0,23,24
 1646 1160 1646 1160 1628 1084 c 1,25,-1
 1256 988 l 1,26,27
 1268 1041 1268 1041 1268 1083 c 0,28,29
 1268 1256 1268 1256 1066 1256 c 0,30,31
 800 1256 800 1256 718 899 c 2,32,-1
 606 416 l 2,33,34
 601 395 601 395 601 377 c 0,35,36
 601 254 601 254 821 254 c 0,37,38
 1087 254 1087 254 1145 507 c 1,39,-1
 1517 604 l 1,12,13
EndSplineSet
Validated: 1
EndChar

StartChar: Ccaron
Encoding: 268 268 239
Width: 1538
Flags: W
HStem: -20 274<639.659 996.506> 1256 274<906.371 1438.5>
VStem: 236 365<127 519.742> 1268 378<1080.35 1376.5>
DStem2: 155.266 -20 505.341 -20 0.224951 0.97437<487.642 1237.65>
LayerCount: 2
Fore
SplineSet
1517 604 m 1,0,1
 1373 -20 1373 -20 655 -20 c 0,2,3
 236 -20 236 -20 236 274 c 0,4,5
 236 331 236 331 252 399 c 2,6,-1
 369 906 l 2,7,8
 513 1530 513 1530 1231 1530 c 0,9,10
 1646 1530 1646 1530 1646 1223 c 0,11,12
 1646 1160 1646 1160 1628 1084 c 1,13,-1
 1256 988 l 1,14,15
 1268 1041 1268 1041 1268 1083 c 0,16,17
 1268 1256 1268 1256 1066 1256 c 0,18,19
 800 1256 800 1256 718 899 c 2,20,-1
 606 416 l 2,21,22
 601 395 601 395 601 377 c 0,23,24
 601 254 601 254 821 254 c 0,25,26
 1087 254 1087 254 1145 507 c 1,27,-1
 1517 604 l 1,0,1
1490 1947 m 1,28,-1
 1542 1746 l 1,29,-1
 1165 1540 l 1,30,-1
 882 1746 l 1,31,-1
 1028 1947 l 1,32,-1
 1230 1822 l 1,33,-1
 1490 1947 l 1,28,-1
EndSplineSet
Validated: 1
EndChar

StartChar: Eth
Encoding: 208 208 240
Width: 1538
Flags: W
HStem: 0 277<614 983.688> 621 277<297 343 758 983> 1233 277<835 1239.99>
VStem: 1281 365<968.812 1363.5>
DStem2: 200 0 550.049 0 0.224951 0.97437<363.03 637.252 1000.51 1344.24> 1027.78 0 1378.4 0 0.224951 0.97437<427.83 1140.89>
LayerCount: 2
Fore
SplineSet
200 0 m 1,0,-1
 343 621 l 1,1,-1
 233 621 l 1,2,-1
 297 898 l 1,3,-1
 407 898 l 1,4,-1
 479 1210 l 2,5,6
 500 1301 500 1301 500 1375 c 0,7,8
 500 1450 500 1450 479 1510 c 1,9,-1
 1227 1510 l 2,10,11
 1646 1510 1646 1510 1646 1217 c 0,12,13
 1646 1162 1646 1162 1630 1092 c 2,14,-1
 1522 622 l 1,15,16
 1378 0 1378 0 661 0 c 2,17,-1
 200 0 l 1,0,-1
614 277 m 1,18,-1
 827 277 l 2,19,20
 1092 277 1092 277 1173 629 c 2,21,-1
 1276 1075 l 2,22,23
 1281 1095 1281 1095 1281 1113 c 0,24,25
 1281 1233 1281 1233 1060 1233 c 2,26,-1
 835 1233 l 1,27,-1
 758 898 l 1,28,-1
 1047 898 l 1,29,-1
 983 621 l 1,30,-1
 694 621 l 1,31,-1
 614 277 l 1,18,-1
EndSplineSet
Validated: 1
EndChar

StartChar: Dcaron
Encoding: 270 270 241
Width: 1538
Flags: W
HStem: 0 277<614 983.688> 1233 277<835 1239.99>
VStem: 1281 365<968.812 1363.5>
DStem2: 200 0 550.049 0 0.224951 0.97437<363.03 1344.24> 1027.78 0 1378.4 0 0.224951 0.97437<427.83 1140.89>
LayerCount: 2
Fore
SplineSet
200 0 m 1,0,-1
 479 1210 l 2,1,2
 500 1300 500 1300 500 1375 c 128,-1,3
 500 1450 500 1450 479 1510 c 1,4,-1
 1227 1510 l 2,5,6
 1646 1510 1646 1510 1646 1217 c 0,7,8
 1646 1160 1646 1160 1630 1092 c 2,9,-1
 1522 622 l 2,10,11
 1378 0 1378 0 661 0 c 2,12,-1
 200 0 l 1,0,-1
614 277 m 1,13,-1
 827 277 l 2,14,15
 1092 277 1092 277 1173 629 c 2,16,-1
 1276 1075 l 2,17,18
 1281 1095 1281 1095 1281 1113 c 0,19,20
 1281 1233 1281 1233 1060 1233 c 2,21,-1
 835 1233 l 9,22,-1
 614 277 l 1,13,-1
1436 1947 m 1,23,-1
 1488 1746 l 1,24,-1
 1111 1540 l 1,25,-1
 828 1746 l 1,26,-1
 974 1947 l 1,27,-1
 1176 1822 l 1,28,-1
 1436 1947 l 1,23,-1
EndSplineSet
Validated: 1
EndChar

StartChar: Dcroat
Encoding: 272 272 242
Width: 1538
Flags: W
HStem: 0 277<614 983.688> 621 277<297 343 758 983> 1233 277<835 1239.99>
VStem: 1281 365<968.812 1363.5>
DStem2: 200 0 550.049 0 0.224951 0.97437<363.03 637.252 1000.51 1344.24> 1027.78 0 1378.4 0 0.224951 0.97437<427.83 1140.89>
LayerCount: 2
Fore
SplineSet
200 0 m 1,0,-1
 343 621 l 1,1,-1
 233 621 l 1,2,-1
 297 898 l 1,3,-1
 407 898 l 1,4,-1
 479 1210 l 2,5,6
 500 1301 500 1301 500 1375 c 0,7,8
 500 1450 500 1450 479 1510 c 1,9,-1
 1227 1510 l 2,10,11
 1646 1510 1646 1510 1646 1217 c 0,12,13
 1646 1162 1646 1162 1630 1092 c 2,14,-1
 1522 622 l 1,15,16
 1378 0 1378 0 661 0 c 2,17,-1
 200 0 l 1,0,-1
614 277 m 1,18,-1
 827 277 l 2,19,20
 1092 277 1092 277 1173 629 c 2,21,-1
 1276 1075 l 2,22,23
 1281 1095 1281 1095 1281 1113 c 0,24,25
 1281 1233 1281 1233 1060 1233 c 2,26,-1
 835 1233 l 1,27,-1
 758 898 l 1,28,-1
 1047 898 l 1,29,-1
 983 621 l 1,30,-1
 694 621 l 1,31,-1
 614 277 l 1,18,-1
EndSplineSet
Validated: 1
EndChar

